<?xml version="1.0" encoding="UTF-8" standalone="no"?>
<!-- Created with Inkscape (http://www.inkscape.org/) -->

<svg
   xmlns:dc="http://purl.org/dc/elements/1.1/"
   xmlns:cc="http://creativecommons.org/ns#"
   xmlns:rdf="http://www.w3.org/1999/02/22-rdf-syntax-ns#"
   xmlns:svg="http://www.w3.org/2000/svg"
   xmlns="http://www.w3.org/2000/svg"
   xmlns:sodipodi="http://sodipodi.sourceforge.net/DTD/sodipodi-0.dtd"
   xmlns:inkscape="http://www.inkscape.org/namespaces/inkscape"
   width="320"
   height="320"
   id="svg2"
   version="1.1"
   inkscape:version="0.91 r13725"
   sodipodi:docname="logo_ADV_nuevo.svg"
   inkscape:export-filename="/home/nacho/repos/ADVoleyPlaya14/app/src/main/res/drawable-xxhdpi/ic_launcher.png"
   inkscape:export-xdpi="40.5"
   inkscape:export-ydpi="40.5">
  <defs
     id="defs4" />
  <sodipodi:namedview
     id="base"
     pagecolor="#ffffff"
     bordercolor="#666666"
     borderopacity="1.0"
     inkscape:pageopacity="0.0"
     inkscape:pageshadow="2"
     inkscape:zoom="1.4226849"
     inkscape:cx="59.675562"
     inkscape:cy="97.635203"
     inkscape:document-units="px"
     inkscape:current-layer="layer1"
     showgrid="false"
     fit-margin-top="1"
     fit-margin-left="1"
     fit-margin-right="1"
     fit-margin-bottom="1"
     inkscape:window-width="1920"
     inkscape:window-height="1002"
     inkscape:window-x="0"
     inkscape:window-y="25"
     inkscape:window-maximized="1"
     units="mm" />
  <metadata
     id="metadata7">
    <rdf:RDF>
      <cc:Work
         rdf:about="">
        <dc:format>image/svg+xml</dc:format>
        <dc:type
           rdf:resource="http://purl.org/dc/dcmitype/StillImage" />
        <dc:title></dc:title>
      </cc:Work>
    </rdf:RDF>
  </metadata>
  <g
     inkscape:label="Capa 1"
     inkscape:groupmode="layer"
     id="layer1"
     transform="translate(-212.41161,-331.00797)">
    <path
       style="fill:#eeeeee;stroke:#a40000;stroke-width:10;stroke-linecap:butt;stroke-linejoin:miter;stroke-opacity:1"
       d="m 233.12486,364.60391 c 48.5506,29.24926 101.10295,21.27657 139.40931,-4.39661 36.18471,25.88039 90.45496,36.37662 139.40931,4.03022 C 500.59089,443.42757 489.16776,532.73771 372.53417,621.80583 238.40654,520.43144 241.25593,412.46927 233.12486,364.60391 Z"
       id="path3066"
       inkscape:connector-curvature="0"
       sodipodi:nodetypes="ccccc" />
    <path
       style="fill:#204a87;fill-opacity:1;stroke:none"
       d="m 366.56542,363.92605 c -0.47299,0.28394 -0.92951,0.5964 -1.40625,0.875 -2.50099,1.46152 -5.02608,2.87856 -7.625,4.1875 -0.39918,0.20105 -0.81738,0.36518 -1.21875,0.5625 l 0,44.375 50,0 0,-36.375 c -1.20744,-0.41438 -2.43517,-0.80218 -3.625,-1.25 -2.73531,-1.02951 -5.42849,-2.14713 -8.0625,-3.34375 -2.63401,-1.19662 -5.22872,-2.46217 -7.75,-3.8125 -2.52128,-1.35033 -4.97788,-2.75937 -7.375,-4.25 -0.49476,-0.30767 -0.94832,-0.65545 -1.4375,-0.96875 l -11.5,0 z m 39.75,50 0,50 50,0 0,-50 -50,0 z m 50,0 47.5625,0 c 0.84411,-4.44236 1.70073,-8.8865 2.4375,-13.28125 l 0,-33.03125 c -1.20923,0.71418 -2.41079,1.52316 -3.625,2.1875 -3.09546,1.69365 -6.19265,3.24595 -9.3125,4.625 -3.11985,1.37905 -6.27343,2.60964 -9.40625,3.6875 -3.13282,1.07786 -6.24064,1.99117 -9.375,2.78125 -3.13436,0.79008 -6.28178,1.45305 -9.40625,1.96875 -2.96754,0.4898 -5.92643,0.83966 -8.875,1.09375 l 0,29.96875 z m 0,50 0,50 13.09375,0 c 1.53027,-2.76048 3.18449,-5.52898 4.59375,-8.28125 2.79368,-5.45603 5.33074,-10.89252 7.6875,-16.3125 2.35676,-5.41998 4.52883,-10.83989 6.5,-16.21875 1.12753,-3.07677 2.07918,-6.12548 3.09375,-9.1875 l -34.96875,0 z m 0,50 -50,0 0,50 28.09375,0 c 2.51001,-2.93157 5.16627,-5.88569 7.5,-8.8125 4.41248,-5.53384 8.52221,-11.04953 12.34375,-16.5625 0.7393,-1.06652 1.34417,-2.12188 2.0625,-3.1875 l 0,-21.4375 z m -50,50 -50,0 0,45 c 1.35558,1.12383 2.64362,2.25217 4.03125,3.375 0.67379,0.54521 1.41233,1.08006 2.09375,1.625 l 19.84375,0 c 3.64729,-2.93958 7.4776,-5.87343 10.90625,-8.8125 4.64555,-3.9822 8.86449,-7.95785 13.125,-11.9375 l 0,-29.25 z m -50,0 0,-50 -50,0 0,45.34375 c 1.29436,1.55639 2.40472,3.09677 3.75,4.65625 l 46.25,0 z m -50,-50 0,-50 -50,0 0,11.03125 c 1.95777,5.13072 4.05274,10.30971 6.4375,15.59375 2.66205,5.89843 5.58116,11.87889 8.84375,17.9375 0.96402,1.79017 2.16697,3.63518 3.1875,5.4375 l 31.53125,0 z m -50,-50 0,-50 -16.28125,0 c 0.61417,3.64118 1.23635,7.29082 2,11.125 0.98233,4.93211 2.11236,10.02747 3.40625,15.25 1.29389,5.22253 2.7598,10.58211 4.4375,16.0625 0.75604,2.46969 1.71788,5.04524 2.5625,7.5625 l 3.875,0 z m 0,-50 50,0 0,-30.90625 c -2.88717,0.17811 -5.79882,0.27505 -8.71875,0.25 -3.03496,-0.026 -6.09464,-0.18262 -9.15625,-0.4375 -3.06161,-0.25488 -6.10814,-0.63175 -9.1875,-1.125 -3.07936,-0.49325 -6.16181,-1.1026 -9.25,-1.84375 -3.08819,-0.74115 -6.19314,-1.59517 -9.28125,-2.59375 -1.47129,-0.47576 -2.93647,-1.08921 -4.40625,-1.625 l 0,38.28125 z m 50,0 0,50 50,0 0,-50 -50,0 z m 50,50 0,50 50,0 0,-50 -50,0 z"
       id="path3550"
       inkscape:connector-curvature="0" />
    <path
       sodipodi:nodetypes="ccccc"
       inkscape:connector-curvature="0"
       id="path3056"
       d="m 233.12486,364.60391 c 48.5506,29.24926 101.10295,21.27657 139.40931,-4.39661 36.18471,25.88039 90.45496,36.37662 139.40931,4.03022 C 500.59089,443.42757 489.16776,532.73771 372.53417,621.80583 238.40654,520.43144 241.25593,412.46927 233.12486,364.60391 Z"
       style="fill:none;stroke:#a40000;stroke-width:10;stroke-linecap:butt;stroke-linejoin:miter;stroke-opacity:1" />
    <path
       style="fill:#edd400;fill-opacity:1;stroke:none"
       d="m 341.82497,408.59705 c 10.05459,2.40406 21.88404,-1.94343 30.84774,3.20694 2.59409,1.49051 5.97179,4.05699 5.29758,7.24527 -0.66897,3.16355 -6.07807,2.86358 -8.03126,5.44053 -0.82478,1.08818 -1.86502,2.64517 -1.29536,3.8861 0.85639,1.86552 8.02844,4.4447 9.65258,4.88462 l 0.32367,18.1047 c -4.29941,-0.76016 -13.21142,-3.80836 -20.0088,-4.60649 -3.90629,-0.45867 -8.20852,-0.6206 -11.79904,-0.0883 0.69747,-3.0787 1.87114,-5.35062 0.48123,-7.39115 -1.5862,-2.32871 -5.62952,-1.13561 -8.05029,-2.57742 -2.25099,-1.34069 -3.53297,-3.92868 -5.67277,-5.44053 -1.59224,-1.12498 -3.35321,-2.08412 -5.22585,-2.62634 -4.91185,-1.42223 -11.96975,-0.77898 -15.26725,-1.50077 -1.40592,-1.12912 -1.77744,-3.82158 -0.74161,-5.29758 4.42472,-2.4296 11.96585,0.79443 15.61561,-1.70617 1.3587,-0.9309 -0.0672,-3.49467 -1.02701,-4.8331 -2.51492,-3.50696 -9.46386,-2.09378 -11.13136,-6.611 -0.71898,-1.94771 0.0746,-4.82443 1.81351,-5.95868 3.64251,-2.37587 8.76929,0.36967 12.95365,1.55444 3.56906,1.01054 7.35421,3.37987 11.26503,4.31495 z"
       id="path3068"
       inkscape:connector-curvature="0"
       sodipodi:nodetypes="aacccccacaaaaccsaccca" />
    <path
       style="fill:#edd400;fill-opacity:1;stroke:none"
       d="m 414.01369,455.82095 c -2.21375,4.47501 -2.69337,13.27888 -3.71581,18.23068 4.87296,0.87803 11.43724,-0.80784 15.90831,-3.94804 5.98257,-4.20178 8.43182,-11.96145 12.19249,-18.23069 4.85474,-8.09311 8.37499,-16.94815 13.3537,-24.96559 2.10784,-3.39435 7.60344,-5.80942 6.96714,-9.754 -0.48084,-2.98081 -4.35979,-5.95809 -7.3155,-5.34147 -3.90567,0.81481 -4.17919,6.80439 -6.03819,10.33459 -2.45255,4.65734 -3.96889,9.80435 -6.7349,14.28264 -3.2593,5.27691 -6.47118,10.99478 -11.49579,14.631 -3.76933,2.7278 -8.68845,3.56051 -13.12145,4.76088 z"
       id="path3070"
       inkscape:connector-curvature="0"
       sodipodi:nodetypes="ccaaaaaaaac" />
    <path
       inkscape:connector-curvature="0"
       style="fill:#edd400;fill-opacity:1;stroke:none"
       d="m 367.76818,530.70047 c -3.13509,-1.18811 -6.65078,-2.32133 -10.5625,-3.3125 -4.29249,-1.08764 -8.9194,-2.04853 -13.59375,-2.8125 -4.67435,-0.76397 -9.39777,-1.33775 -13.875,-1.6875 -0.54127,-0.0423 -0.96636,0.004 -1.5,-0.0313 3.98522,5.27609 8.0648,10.45171 7.40625,16.59375 -0.6187,5.77042 -5.32889,12.39002 -11.03125,13.46875 -7.23654,1.36895 -13.70297,-5.97247 -19.28125,-10.78125 -3.1138,-2.68426 -3.47376,-9.32196 -7.5625,-9.75 -3.33207,-0.34883 -6.79117,0.86634 -7.65625,6.5 -0.86508,5.63366 7.01108,14.91999 12.875,20.4375 5.85661,5.51063 12.09271,11.0778 21.15625,11.59375 9.06354,0.51595 20.56487,-4.70568 28.09375,-11.46875 8.0999,-7.27601 10.88129,-18.90119 15.53125,-28.75 z"
       id="path3353"
       sodipodi:nodetypes="cssccsssszazscc" />
    <path
       inkscape:connector-curvature="0"
       style="fill:#2e3436;fill-opacity:1;stroke:none"
       d="m 387.89318,487.10672 c -0.0147,-0.007 -0.0165,-0.024 -0.0313,-0.0313 -1.35329,-0.66292 -2.92852,-1.32997 -4.6875,-2 -3.51797,-1.34006 -7.76025,-2.65556 -12.4375,-3.90625 -4.67725,-1.25069 -9.78143,-2.43323 -15,-3.4375 -5.21857,-1.00427 -10.54558,-1.83672 -15.6875,-2.4375 -5.14192,-0.60078 -10.08394,-0.95977 -14.53125,-1 -2.06814,-0.0187 -3.99247,0.0601 -5.8125,0.1875 -2.5663,5.04093 -4.58247,10.35861 -4.75,15.875 -0.24673,8.12422 4.33878,15.70465 7.4375,23.21875 1.34073,3.25114 3.57494,6.27754 5.84375,9.28125 0.53364,0.0355 0.95873,-0.011 1.5,0.0313 4.47723,0.34975 9.20065,0.92353 13.875,1.6875 4.67435,0.76397 9.30126,1.72486 13.59375,2.8125 3.91172,0.99117 7.42741,2.12439 10.5625,3.3125 0.01,-0.0206 0.0215,-0.0419 0.0313,-0.0625 5.24271,-11.07723 7.77717,-23.43685 13.9375,-34.03125 1.87795,-3.22967 3.84738,-6.5165 6.15625,-9.5 z"
       id="path3351" />
    <path
       inkscape:connector-curvature="0"
       style="fill:#edd400;fill-opacity:1;stroke:none"
       d="m 393.11193,432.88797 c -4.37813,0.11786 -8.8897,0.41085 -13.8125,0.21875 l 0.34375,19.5 c -6.83513,-1.20444 -13.08216,-4.31961 -19.875,-4.875 -6.46195,-0.52833 -13.52911,-1.30385 -19.375,1.5 -7.08602,3.39865 -11.96683,10.53835 -16.15625,17.1875 -1.61775,2.56758 -3.1201,5.29061 -4.53125,8.0625 1.82003,-0.1274 3.74436,-0.20621 5.8125,-0.1875 4.44731,0.0402 9.38933,0.39922 14.53125,1 5.14192,0.60078 10.46893,1.43323 15.6875,2.4375 5.21857,1.00427 10.32275,2.18681 15,3.4375 4.67725,1.25069 8.91953,2.56619 12.4375,3.90625 1.75898,0.67003 3.33421,1.33708 4.6875,2 0.0148,0.007 0.0165,0.024 0.0313,0.0313 1.76338,-2.27863 3.70919,-4.40434 6.03125,-6.0625 4.03452,-2.88102 6.29672,-4.35626 14.03125,-4.875 -0.76071,-8.02293 3.5,-22.28125 3.5,-22.28125 0,0 -10.05592,4.24386 -14.0625,1.75 -1.70432,-1.06084 -2.47012,-3.7436 -1.96875,-5.6875 0.89672,-3.47674 4.65252,-6.00382 8.03125,-7.21875 3.49965,-1.25842 7.44137,0.98063 11.125,0.46875 3.06728,-0.42624 8.77009,0.18962 8.84375,-2.90625 0.14687,-6.1731 -11.25291,-5.43756 -17.3125,-6.625 -4.38817,-0.85991 -8.62187,-0.89911 -13,-0.78125 z"
       id="path3072"
       sodipodi:nodetypes="cccssscsssssccsccsssssscc" />
    <path
       style="color:#000000;font-style:normal;font-variant:normal;font-weight:normal;font-stretch:normal;font-size:medium;line-height:normal;font-family:Sans;-inkscape-font-specification:Sans;text-indent:0;text-align:start;text-decoration:none;text-decoration-line:none;letter-spacing:normal;word-spacing:normal;text-transform:none;direction:ltr;block-progression:tb;writing-mode:lr-tb;baseline-shift:baseline;text-anchor:start;display:inline;overflow:visible;visibility:visible;fill:#ffffff;fill-opacity:1;stroke:#2e3436;stroke-width:1.5;stroke-opacity:1;marker:none;enable-background:accumulate"
       d="m 465.8843,454.41399 -5.15625,2.25 0,15.375 5.15625,-1.125 0,-16.5 z m -6.15625,2.65625 -4.84375,2.09375 0,14.15625 4.84375,-1.0625 0,-15.1875 z m -5.84375,2.53125 -5.4375,2.34375 0,12.75 5.4375,-1.1875 0,-13.90625 z m -6.4375,2.78125 -5.15625,2.21875 0,11.4375 5.15625,-1.125 0,-12.53125 z m -6.15625,2.65625 -5.15625,2.21875 0,10.125 5.15625,-1.125 0,-11.21875 z m -6.15625,2.65625 -5.125,2.1875 0,8.8125 5.125,-1.09375 0,-9.90625 z m -6.125,2.625 -5.15625,2.21875 0,7.5 5.15625,-1.125 0,-8.59375 z m 36.875,1.59375 -5.15625,1.125 0,15.21875 5.15625,-0.0625 0,-16.28125 z m -6.15625,1.34375 -4.84375,1.0625 0,13.96875 4.84375,-0.0313 0,-15 z m -5.84375,1.28125 -5.4375,1.1875 0,12.65625 5.4375,-0.0625 0,-13.78125 z m -6.4375,1.40625 -5.15625,1.125 0,11.34375 5.15625,-0.0313 0,-12.4375 z m -6.15625,1.34375 -5.15625,1.125 0,10.0625 5.15625,-0.0313 0,-11.15625 z m -6.15625,1.34375 -5.125,1.09375 0,8.8125 5.125,-0.0313 0,-9.875 z m -6.125,1.3125 -5.15625,1.125 0,7.53125 5.15625,-0.0313 0,-8.625 z m 36.875,9.25 -5.15625,0.0625 0,15.71875 5.15625,1.09375 0,-16.875 z m -6.15625,0.0625 -4.84375,0.0313 0,14.4375 4.84375,1.03125 0,-15.5 z m -5.84375,0.0625 -5.4375,0.0625 0,12.96875 5.4375,1.15625 0,-14.1875 z m -6.4375,0.0625 -5.15625,0.0313 0,11.625 5.15625,1.09375 0,-12.75 z m -6.15625,0.0625 -5.15625,0.0313 0,10.25 5.15625,1.09375 0,-11.375 z m -6.15625,0.0625 -5.125,0.0313 0,8.90625 5.125,1.09375 0,-10.03125 z m -6.125,0.0625 -5.15625,0.0313 0,7.5625 5.15625,1.09375 0,-8.6875 z m -5.15625,8.59375 0,7.5 5.15625,2.15625 0,-8.5625 -5.15625,-1.09375 z m 6.15625,1.28125 0,8.78125 5.125,2.125 0,-9.8125 -5.125,-1.09375 z m 6.125,1.3125 0,10 5.15625,2.125 0,-11.03125 -5.15625,-1.09375 z m 6.15625,1.3125 0,11.25 5.15625,2.125 0,-12.28125 -5.15625,-1.09375 z m 6.15625,1.3125 0,12.46875 5.4375,2.25 0,-13.5625 -5.4375,-1.15625 z m 6.4375,1.375 0,13.75 4.84375,2 0,-14.71875 -4.84375,-1.03125 z m 5.84375,1.25 0,14.90625 5.15625,2.125 0,-15.9375 -5.15625,-1.09375 z m -36.875,0.75 0,7.4375 5.15625,3.21875 0,-8.5 -5.15625,-2.15625 z m 6.15625,2.5625 0,8.71875 5.125,3.1875 0,-9.78125 -5.125,-2.125 z m 6.125,2.53125 0,9.96875 5.15625,3.21875 0,-11.0625 -5.15625,-2.125 z m 6.15625,2.5625 0,11.25 5.15625,3.1875 0,-12.3125 -5.15625,-2.125 z m -18.4375,0.96875 0,7.3125 5.15625,4.375 0,-8.5 -5.15625,-3.1875 z m 24.59375,1.5625 0,12.53125 5.4375,3.375 0,-13.65625 -5.4375,-2.25 z m -18.4375,2.25 0,8.71875 5.125,4.3125 0,-9.84375 -5.125,-3.1875 z m 24.875,0.40625 0,13.875 4.84375,3 0,-14.875 -4.84375,-2 z m 5.84375,2.40625 0,15.09375 5.15625,3.1875 0,-16.15625 -5.15625,-2.125 z m -24.59375,1 0,10.09375 5.15625,4.34375 0,-11.21875 -5.15625,-3.21875 z m -12.28125,0.96875 0,7.1875 5.15625,5.46875 0,-8.3125 -5.15625,-4.34375 z m 18.4375,2.84375 0,11.46875 5.15625,4.34375 0,-12.59375 -5.15625,-3.21875 z m -12.28125,2.375 -0.15625,8.34375 5.28125,5.625 0,-9.65625 -5.125,-4.3125 z m 18.4375,1.46875 0,12.8125 5.4375,4.59375 0,-14.03125 -5.4375,-3.375 z m -12.3125,3.6875 -0.15625,9.71875 5.3125,5.65625 0,-11 -5.15625,-4.375 z m 18.75,0.3125 0,14.25 4.84375,4.09375 0,-15.34375 -4.84375,-3 z m 5.84375,3.625 0,15.5625 5.15625,4.34375 0,-16.71875 -5.15625,-3.1875 z m -18.4375,1.28125 0,11.21875 5.15625,5.5 0,-12.375 -5.15625,-4.34375 z m 6.15625,5.1875 0,12.625 5.4375,5.78125 0,-13.8125 -5.4375,-4.59375 z m 6.4375,5.4375 0,14.03125 4.84375,5.15625 0,-15.09375 -4.84375,-4.09375 z m 5.84375,4.9375 0,15.3125 5.15625,5.5 0,-16.46875 -5.15625,-4.34375 z"
       id="path3434"
       inkscape:connector-curvature="0" />
    <g
       id="g3219"
       transform="matrix(1.1818518,0,0,0.69359358,-102.60282,171.69517)"
       style="stroke:#2e3436;stroke-width:2.2090013;stroke-linecap:round;stroke-linejoin:miter;stroke-miterlimit:4;stroke-dasharray:none">
      <path
         sodipodi:nodetypes="scccss"
         inkscape:connector-curvature="0"
         id="path3200"
         d="m 467.99396,611.06983 c 4.79003,-4.27597 34.39029,2.06191 63.0329,5.11111 l -18.80394,15.36632 21.46796,19.47366 c -20.43516,4.1798 -60.86911,5.15533 -66.41784,0.42063 -5.02228,-4.28549 -4.62264,-35.60162 0.72092,-40.37172 z"
         style="fill:#ffffff;stroke:#2e3436;stroke-width:2.2090013;stroke-linecap:round;stroke-linejoin:miter;stroke-miterlimit:4;stroke-dasharray:none;stroke-opacity:1" />
      <path
         sodipodi:nodetypes="cc"
         inkscape:connector-curvature="0"
         id="path3202"
         d="m 495.25397,640.65238 c -1.40278,8.87374 -29.99158,0.16136 -27.94784,10.82884"
         style="fill:none;stroke:#2e3436;stroke-width:2.2090013;stroke-linecap:round;stroke-linejoin:miter;stroke-miterlimit:4;stroke-dasharray:none;stroke-opacity:1" />
      <path
         style="fill:#ffffff;stroke:#2e3436;stroke-width:2.2090013;stroke-linecap:round;stroke-linejoin:miter;stroke-miterlimit:4;stroke-dasharray:none;stroke-opacity:1"
         d="m 337.59484,609.58107 c -4.79003,-4.27597 -43.38125,1.23938 -64.56661,3.63695 l 20.33765,16.84048 -23.00167,17.9995 c 20.43516,4.1798 62.40282,6.62949 67.95155,1.89479 5.02228,-4.28549 4.62264,-35.60162 -0.72092,-40.37172 z"
         id="path3211"
         inkscape:connector-curvature="0"
         sodipodi:nodetypes="scccss" />
      <path
         style="fill:none;stroke:#2e3436;stroke-width:2.2090013;stroke-linecap:round;stroke-linejoin:miter;stroke-miterlimit:4;stroke-dasharray:none;stroke-opacity:1"
         d="m 310.33483,639.16362 c 1.40278,8.87374 29.99158,0.16136 27.94784,10.82884"
         id="path3213"
         inkscape:connector-curvature="0"
         sodipodi:nodetypes="cc" />
      <path
         sodipodi:nodetypes="ccccc"
         inkscape:connector-curvature="0"
         id="path3198"
         d="m 310.40641,639.54631 c 3.93749,-18.22199 1.7385,-31.39025 0.36046,-45.95903 61.91825,-14.70774 122.85515,-14.75722 184.19596,0 -2.9386,11.43406 -2.19051,37.01763 0.36046,46.67996 -66.25586,-20.42802 -127.45777,-19.24817 -184.91688,-0.72093 z"
         style="fill:#ffffff;stroke:#2e3436;stroke-width:2.2090013;stroke-linecap:round;stroke-linejoin:round;stroke-miterlimit:4;stroke-dasharray:none;stroke-opacity:1" />
    </g>
    <g
       style="font-style:normal;font-variant:normal;font-weight:bold;font-stretch:normal;font-size:18px;line-height:100%;font-family:Arial;-inkscape-font-specification:'Arial Bold';text-align:center;letter-spacing:0px;word-spacing:0px;writing-mode:lr-tb;text-anchor:middle;fill:#2e3436;fill-opacity:1;stroke:none"
       id="text3226"
       transform="translate(0.48693469,-21.922863)">
      <path
         d="m 281.78143,625.52745 -2.79253,0.45945 -1.58522,-2.7053 -5.08207,0.83613 -0.57422,3.06058 -2.72316,0.44803 2.86022,-13.52857 2.71449,-0.4466 7.18249,11.87628 m -5.55406,-4.2524 -2.52805,-4.4296 -0.94094,5.00034 3.46899,-0.57074"
         style="fill:#2e3436"
         id="path3236"
         inkscape:connector-curvature="0" />
      <path
         d="m 283.17861,625.35868 -0.35682,-2.44381 2.44382,-0.35682 0.35682,2.44381 -2.44382,0.35682"
         style="fill:#2e3436"
         id="path3238"
         inkscape:connector-curvature="0" />
      <path
         d="m 286.48816,611.84407 4.71632,-0.6043 c 1.06357,-0.13626 1.88475,-0.15877 2.46354,-0.0675 0.77803,0.1248 1.4705,0.43481 2.07743,0.93004 0.60692,0.49526 1.10236,1.13474 1.48634,1.91846 0.38321,0.77792 0.65152,1.7655 0.80494,2.96274 0.13477,1.05195 0.12017,1.97536 -0.0438,2.77021 -0.20052,0.97086 -0.56031,1.78196 -1.07939,2.43328 -0.39167,0.49323 -0.95254,0.91067 -1.68261,1.25232 -0.54649,0.25315 -1.2963,0.44078 -2.24944,0.56291 l -4.85581,0.62217 -1.63752,-12.78029 m 2.85748,1.83138 1.08461,8.46498 1.92663,-0.24686 c 0.72067,-0.0923 1.23562,-0.19966 1.54485,-0.32199 0.40504,-0.15823 0.72814,-0.3798 0.96928,-0.66471 0.24694,-0.28565 0.4211,-0.72443 0.52249,-1.31633 0.10063,-0.59771 0.0876,-1.39058 -0.0389,-2.3786 -0.1266,-0.98801 -0.31096,-1.73529 -0.55307,-2.24184 -0.24213,-0.50652 -0.5391,-0.88789 -0.89091,-1.14409 -0.35182,-0.25619 -0.77563,-0.40568 -1.27141,-0.4485 -0.37077,-0.0352 -1.08212,0.0146 -2.13406,0.14938 l -1.15947,0.14856"
         style="fill:#2e3436"
         id="path3240"
         inkscape:connector-curvature="0" />
      <path
         d="m 301.0264,623.02908 -0.27168,-2.45474 2.45474,-0.27168 0.27168,2.45474 -2.45474,0.27168"
         style="fill:#2e3436"
         id="path3242"
         inkscape:connector-curvature="0" />
      <path
         d="m 309.27787,622.16283 -5.81423,-12.38637 2.80841,-0.26928 4.15603,9.18137 2.23069,-9.79375 2.74717,-0.26341 -3.3634,13.26635 -2.76467,0.26509"
         style="fill:#2e3436"
         id="path3244"
         inkscape:connector-curvature="0" />
      <path
         d="m 315.69646,616.74095 c -0.0621,-0.81795 0.0794,-1.62492 0.42442,-2.4209 0.34503,-0.79597 0.87033,-1.42347 1.57589,-1.8825 0.7114,-0.45946 1.52282,-0.72378 2.43427,-0.79298 1.40805,-0.10688 2.59677,0.26417 3.56617,1.11314 0.96893,0.84315 1.5064,1.9629 1.61241,3.35927 0.10688,1.40806 -0.26014,2.61117 -1.10105,3.60932 -0.83553,0.99187 -1.94271,1.54014 -3.32155,1.64481 -0.85302,0.0648 -1.68269,-0.0662 -2.48902,-0.3928 -0.8005,-0.32707 -1.43047,-0.8463 -1.88993,-1.5577 -0.45991,-0.71725 -0.73045,-1.61046 -0.81161,-2.67966 m 2.53397,-0.0601 c 0.0701,0.92313 0.34283,1.61345 0.81828,2.07096 0.47545,0.45751 1.03451,0.66187 1.6772,0.61309 0.64267,-0.0488 1.16156,-0.33498 1.55666,-0.85858 0.40093,-0.52403 0.56592,-1.25346 0.49496,-2.18827 -0.0692,-0.91144 -0.34151,-1.59591 -0.81695,-2.05343 -0.46961,-0.45795 -1.02575,-0.66253 -1.66843,-0.61375 -0.64269,0.0488 -1.1645,0.3352 -1.56543,0.85924 -0.40094,0.52404 -0.56637,1.24762 -0.49629,2.17074"
         style="fill:#2e3436"
         id="path3246"
         inkscape:connector-curvature="0" />
      <path
         d="m 327.60456,620.69008 -0.79116,-12.86046 2.46507,-0.15164 0.79115,12.86045 -2.46506,0.15165"
         style="fill:#2e3436"
         id="path3248"
         inkscape:connector-curvature="0" />
      <path
         d="m 337.8427,617.15627 2.478,0.29391 c -0.27253,0.91656 -0.73972,1.6284 -1.40157,2.13552 -0.65629,0.50098 -1.49653,0.77621 -2.52072,0.82566 -1.62117,0.0783 -2.84651,-0.39344 -3.67605,-1.41517 -0.6555,-0.81894 -1.01447,-1.87512 -1.07693,-3.16854 -0.0746,-1.54507 0.27086,-2.77312 1.03641,-3.68416 0.76526,-0.91687 1.76533,-1.40513 3.00022,-1.46477 1.38705,-0.067 2.50367,0.33962 3.34984,1.21974 0.84588,0.87429 1.2969,2.25747 1.35308,4.14953 l -6.1803,0.29843 c 0.0529,0.73072 0.27942,1.29174 0.67962,1.68305 0.39991,0.38546 0.88372,0.56448 1.45142,0.53706 0.38627,-0.0186 0.706,-0.13968 0.95919,-0.36309 0.25319,-0.2234 0.43578,-0.57246 0.54779,-1.04717 m 0.0201,-2.49997 c -0.052,-0.71316 -0.26254,-1.24562 -0.63149,-1.59738 -0.36924,-0.3576 -0.80552,-0.52425 -1.30884,-0.49995 -0.53843,0.026 -0.97376,0.24354 -1.30598,0.65261 -0.33222,0.40909 -0.47915,0.95001 -0.4408,1.62276 l 3.68711,-0.17804"
         style="fill:#2e3436"
         id="path3250"
         inkscape:connector-curvature="0" />
      <path
         d="m 342.22281,609.34125 -0.0805,-2.28374 2.4682,-0.087 0.0805,2.28374 -2.46819,0.087 m 0.37346,10.59303 -0.32887,-9.32819 2.46819,-0.087 0.32888,9.32819 -2.4682,0.087"
         style="fill:#2e3436"
         id="path3252"
         inkscape:connector-curvature="0" />
      <path
         d="m 347.48044,619.75804 -0.27854,-12.88175 2.46915,-0.0534 0.10032,4.63954 c 0.74279,-0.88344 1.63555,-1.33644 2.67828,-1.359 1.13644,-0.0246 2.08558,0.3681 2.84741,1.17798 0.76169,0.80404 1.1592,1.97639 1.19252,3.51703 0.0344,1.59339 -0.31979,2.82887 -1.0627,3.70646 -0.73707,0.87747 -1.64746,1.32792 -2.73119,1.35135 -0.53308,0.0115 -1.06315,-0.10888 -1.59021,-0.36121 -0.52134,-0.25833 -0.97509,-0.64411 -1.36127,-1.15737 l 0.0296,1.37077 -2.2934,0.0496 m 2.34631,-4.92101 c 0.0209,0.96657 0.18866,1.67796 0.50329,2.13415 0.44181,0.64685 1.01713,0.96261 1.72596,0.94728 0.54478,-0.0118 1.00256,-0.25317 1.37333,-0.72419 0.37649,-0.477 0.55391,-1.21636 0.53226,-2.21808 -0.0231,-1.06615 -0.23297,-1.82937 -0.62973,-2.28965 -0.39689,-0.46614 -0.89702,-0.69268 -1.50039,-0.67964 -0.59166,0.0128 -1.07873,0.25483 -1.46121,0.72609 -0.38261,0.46542 -0.56378,1.16676 -0.54351,2.10404"
         style="fill:#2e3436"
         id="path3254"
         inkscape:connector-curvature="0" />
      <path
         d="m 358.00129,614.74522 c -0.003,-0.8203 0.19699,-1.61489 0.59883,-2.38376 0.40184,-0.76886 0.97125,-1.35662 1.70824,-1.76328 0.74284,-0.40667 1.57129,-0.61147 2.48536,-0.6144 1.41209,-0.005 2.57078,0.45176 3.47607,1.36878 0.90525,0.91119 1.36012,2.06696 1.3646,3.46734 0.005,1.41211 -0.44878,2.58543 -1.35985,3.51999 -0.90525,0.92868 -2.04927,1.39523 -3.43207,1.39965 -0.85547,0.003 -1.67346,-0.18801 -2.45399,-0.57224 -0.77467,-0.38424 -1.36534,-0.94779 -1.77201,-1.69064 -0.40669,-0.7487 -0.61175,-1.65918 -0.61518,-2.73144 m 2.53166,0.12374 c 0.003,0.92578 0.22495,1.63406 0.66597,2.12484 0.44102,0.49078 0.9838,0.73514 1.62833,0.73308 0.64452,-0.002 1.1828,-0.24987 1.61482,-0.74345 0.43787,-0.49358 0.65531,-1.20912 0.65232,-2.14662 -0.003,-0.91405 -0.2249,-1.61647 -0.66591,-2.10726 -0.43518,-0.49079 -0.97502,-0.73516 -1.61954,-0.73311 -0.64454,0.002 -1.18574,0.24989 -1.62361,0.74348 -0.43788,0.49359 -0.65534,1.20327 -0.65238,2.12904"
         style="fill:#2e3436"
         id="path3256"
         inkscape:connector-curvature="0" />
      <path
         d="m 369.59131,619.54402 0.12855,-12.88413 2.46961,0.0246 -0.12856,12.88412 -2.4696,-0.0246"
         style="fill:#2e3436"
         id="path3258"
         inkscape:connector-curvature="0" />
      <path
         d="m 379.55788,619.67505 0.44003,-12.87725 3.89128,0.13297 2.03637,8.86378 2.61034,-8.70499 3.90006,0.13326 -0.44003,12.87725 -2.41558,-0.0825 0.34638,-10.13666 -2.9025,10.04932 -2.50343,-0.0856 -2.20096,-10.22371 -0.34638,10.13667 -2.41558,-0.0825"
         style="fill:#2e3436"
         id="path3260"
         inkscape:connector-curvature="0" />
      <path
         d="m 395.10581,609.66237 0.11423,-2.2823 2.46664,0.12345 -0.11423,2.2823 -2.46664,-0.12345 m -0.52985,10.58636 0.46658,-9.32232 2.46664,0.12346 -0.46658,9.32231 -2.46664,-0.12345"
         style="fill:#2e3436"
         id="path3262"
         inkscape:connector-curvature="0" />
      <path
         d="m 399.29617,621.09561 2.79438,0.5183 c 0.0263,0.33041 0.12038,0.56233 0.28229,0.69575 0.22294,0.19007 0.58587,0.30085 1.08879,0.33232 0.64327,0.0403 1.13176,-0.026 1.46548,-0.1989 0.22442,-0.11512 0.40115,-0.31248 0.5302,-0.59207 0.0888,-0.19992 0.15044,-0.57474 0.18484,-1.12444 l 0.0851,-1.35965 c -0.79978,0.95974 -1.76108,1.40448 -2.88387,1.33422 -1.25147,-0.0783 -2.20957,-0.66957 -2.87433,-1.77379 -0.52077,-0.87212 -0.74218,-1.93098 -0.66424,-3.17659 0.0977,-1.5614 0.54663,-2.73096 1.34676,-3.50868 0.80598,-0.77735 1.76745,-1.13108 2.88441,-1.06119 1.15203,0.0721 2.07067,0.63741 2.75591,1.69593 l 0.0818,-1.30701 2.30701,0.14436 -0.5231,8.35963 c -0.0688,1.09941 -0.21086,1.91537 -0.42617,2.44789 -0.21533,0.53251 -0.49643,0.94349 -0.8433,1.23294 -0.34689,0.28944 -0.80067,0.50469 -1.36134,0.64573 -0.55485,0.1414 -1.25039,0.18594 -2.08664,0.13362 -1.57895,-0.0988 -2.68181,-0.44082 -3.30859,-1.02602 -0.62715,-0.57936 -0.91475,-1.28425 -0.86278,-2.11465 0.005,-0.0819 0.0143,-0.18111 0.0274,-0.2977 m 2.54372,-5.32712 c -0.0619,0.9883 0.0828,1.72534 0.43404,2.21111 0.35742,0.48029 0.81683,0.738 1.37824,0.77313 0.60233,0.0377 1.12573,-0.16439 1.57022,-0.60624 0.44484,-0.4477 0.69617,-1.13354 0.75399,-2.05751 0.0604,-0.96491 -0.0936,-1.69372 -0.46201,-2.18645 -0.36839,-0.49271 -0.85667,-0.7581 -1.46485,-0.79616 -0.59065,-0.0369 -1.0934,0.16348 -1.50827,0.60131 -0.40866,0.43236 -0.64245,1.1193 -0.70136,2.06081"
         style="fill:#2e3436"
         id="path3264"
         inkscape:connector-curvature="0" />
      <path
         d="m 416.66788,621.69297 0.11093,-1.39305 c -0.37831,0.4695 -0.8563,0.82526 -1.43397,1.06727 -0.57184,0.24248 -1.1644,0.3393 -1.77769,0.29047 -0.62498,-0.0498 -1.17477,-0.23169 -1.64938,-0.54574 -0.47462,-0.31406 -0.80314,-0.72816 -0.98555,-1.24232 -0.18242,-0.51414 -0.23874,-1.20928 -0.16897,-2.08542 l 0.46885,-5.88761 2.46193,0.19605 -0.34047,4.27553 c -0.1042,1.30836 -0.12435,2.11497 -0.0605,2.41983 0.0702,0.29949 0.21805,0.54638 0.44358,0.74067 0.22598,0.18846 0.52296,0.29734 0.89094,0.32664 0.42054,0.0335 0.80635,-0.0504 1.15743,-0.25169 0.35152,-0.20712 0.60211,-0.47518 0.75175,-0.80418 0.1501,-0.33485 0.27817,-1.16813 0.38423,-2.49985 l 0.31257,-3.92508 2.46193,0.19606 -0.74095,9.30452 -2.28671,-0.1821"
         style="fill:#2e3436"
         id="path3266"
         inkscape:connector-curvature="0" />
      <path
         d="m 427.17485,619.66168 2.41036,0.64578 c -0.40099,0.86808 -0.96531,1.50566 -1.69296,1.91277 -0.72128,0.40182 -1.59228,0.55387 -2.613,0.45613 -1.61566,-0.15471 -2.76081,-0.79707 -3.43547,-1.92707 -0.53145,-0.90438 -0.73545,-2.00109 -0.61202,-3.29012 0.14745,-1.53982 0.66524,-2.70573 1.55337,-3.49774 0.88869,-0.79782 1.94838,-1.13781 3.17908,-1.01997 1.38234,0.13238 2.42921,0.69469 3.14061,1.68693 0.71194,0.98642 0.96022,2.41994 0.74483,4.30054 l -6.15932,-0.5898 c -0.0523,0.73077 0.0915,1.31845 0.43156,1.76304 0.34059,0.43876 0.79377,0.68523 1.35954,0.7394 0.38496,0.0369 0.71872,-0.0371 1.00131,-0.22197 0.28257,-0.18484 0.51327,-0.50415 0.69211,-0.95792 m 0.37792,-2.47133 c 0.0506,-0.71325 -0.0814,-1.27037 -0.3962,-1.67135 -0.31423,-0.40679 -0.72214,-0.63421 -1.22375,-0.68225 -0.53661,-0.0514 -0.9986,0.10157 -1.38598,0.45884 -0.38739,0.35729 -0.61028,0.87159 -0.66867,1.5429 l 3.6746,0.35186"
         style="fill:#2e3436"
         id="path3268"
         inkscape:connector-curvature="0" />
      <path
         d="m 431.4819,623.08746 1.37318,-12.81138 2.45566,0.2632 -1.37318,12.81139 -2.45566,-0.26321"
         style="fill:#2e3436"
         id="path3270"
         inkscape:connector-curvature="0" />
      <path
         d="m 441.76775,614.84684 -0.22592,1.95575 -1.67635,-0.19365 -0.43167,3.73687 c -0.0874,0.75669 -0.12396,1.20074 -0.10965,1.33216 0.0208,0.12627 0.0818,0.23653 0.18298,0.3308 0.10699,0.0949 0.24198,0.15182 0.40497,0.17064 0.227,0.0262 0.56494,-0.0144 1.01383,-0.12177 l -0.0103,1.92757 c -0.59867,0.17857 -1.25889,0.22617 -1.98065,0.1428 -0.44237,-0.0511 -0.83268,-0.16992 -1.17093,-0.35645 -0.33758,-0.19235 -0.57732,-0.41469 -0.71922,-0.66702 -0.13542,-0.25747 -0.21194,-0.59072 -0.22957,-0.99974 -0.0194,-0.29127 0.0209,-0.87054 0.12112,-1.73782 l 0.46696,-4.04245 -1.1263,-0.13011 0.22592,-1.95574 1.1263,0.1301 0.21281,-1.84224 2.62755,-1.14747 -0.37822,3.27413 1.67636,0.19364"
         style="fill:#2e3436"
         id="path3272"
         inkscape:connector-curvature="0" />
      <path
         d="m 448.51044,625.10061 0.17788,-1.3861 c -0.40048,0.45074 -0.89505,0.78306 -1.4837,0.99698 -0.58286,0.21466 -1.17939,0.28284 -1.78962,0.20452 -0.62185,-0.0798 -1.16225,-0.28798 -1.62119,-0.62453 -0.45894,-0.33655 -0.76713,-0.76599 -0.92458,-1.28833 -0.15745,-0.52233 -0.18023,-1.21938 -0.0684,-2.09114 l 0.75182,-5.8582 2.44964,0.31438 -0.54597,4.25417 c -0.16708,1.30182 -0.22604,2.10653 -0.1769,2.41411 0.0557,0.30252 0.19149,0.55625 0.4074,0.76118 0.21664,0.19912 0.50804,0.32217 0.87418,0.36916 0.41844,0.0537 0.80784,-0.0115 1.1682,-0.19566 0.36109,-0.18996 0.6243,-0.44564 0.78961,-0.76706 0.16604,-0.32722 0.3341,-1.15337 0.50416,-2.47845 l 0.50121,-3.90546 2.44964,0.31437 -1.18815,9.25806 -2.27528,-0.292"
         style="fill:#2e3436"
         id="path3274"
         inkscape:connector-curvature="0" />
      <path
         d="m 455.66793,626.0816 -2.44525,-0.34685 1.31086,-9.24148 2.27121,0.32217 -0.18638,1.31399 c 0.47673,-0.5656 0.88282,-0.92521 1.21828,-1.07885 0.34124,-0.1528 0.70911,-0.20123 1.1036,-0.14528 0.55692,0.079 1.07173,0.30886 1.54444,0.68956 l -1.05948,2.02459 c -0.37405,-0.32528 -0.73801,-0.51302 -1.09188,-0.56323 -0.34228,-0.0485 -0.64592,0.006 -0.91093,0.16374 -0.26419,0.1519 -0.50087,0.46454 -0.71004,0.93789 -0.20338,0.47419 -0.41657,1.49736 -0.63957,3.06951 l -0.40486,2.85424"
         style="fill:#2e3436"
         id="path3276"
         inkscape:connector-curvature="0" />
      <path
         d="m 462.5893,627.10125 -2.44157,-0.37187 1.40544,-9.22757 2.26779,0.3454 -0.19983,1.31202 c 0.4825,-0.56068 0.89225,-0.91612 1.22926,-1.06632 0.34279,-0.1493 0.71113,-0.19395 1.10503,-0.13397 0.55608,0.0847 1.06852,0.31982 1.5373,0.70534 l -1.08016,2.01363 c -0.37069,-0.32909 -0.73271,-0.52055 -1.08605,-0.57437 -0.34177,-0.0521 -0.64595,-5.8e-4 -0.91256,0.15439 -0.26573,0.1492 -0.5056,0.45939 -0.71961,0.93058 -0.20823,0.47208 -0.43188,1.49301 -0.67097,3.06279 l -0.43407,2.84995"
         style="fill:#2e3436"
         id="path3278"
         inkscape:connector-curvature="0" />
      <path
         d="m 470.04493,621.70605 -2.14549,-0.76377 c 0.39549,-0.84928 0.93204,-1.43775 1.60966,-1.76541 0.67761,-0.32764 1.61477,-0.39274 2.81148,-0.19529 1.08686,0.17934 1.87477,0.44297 2.36372,0.79087 0.48989,0.34214 0.80889,0.7303 0.95698,1.16449 0.15481,0.42938 0.14494,1.17304 -0.0296,2.231 l -0.49534,2.84006 c -0.13355,0.80937 -0.1947,1.41393 -0.18345,1.81367 0.018,0.39491 0.0977,0.8297 0.23908,1.30437 l -2.41076,-0.39778 c -0.0369,-0.17237 -0.0753,-0.42516 -0.11538,-0.75839 -0.0166,-0.15121 -0.0298,-0.25137 -0.0395,-0.30048 -0.48302,0.336 -0.97826,0.56607 -1.4857,0.69019 -0.50745,0.12412 -1.02999,0.14183 -1.56764,0.0531 -0.94812,-0.15644 -1.65434,-0.53724 -2.11866,-1.14238 -0.45853,-0.6042 -0.62294,-1.29942 -0.4932,-2.08566 0.0858,-0.52031 0.28645,-0.96229 0.60182,-1.32596 0.31632,-0.36945 0.7147,-0.6244 1.19515,-0.76486 0.48718,-0.14528 1.16615,-0.22922 2.03692,-0.25183 1.17418,-0.026 1.99623,-0.0952 2.46613,-0.20773 l 0.0401,-0.24281 c 0.0773,-0.46828 0.0165,-0.81977 -0.18232,-1.0545 -0.19787,-0.24049 -0.61766,-0.41368 -1.25936,-0.51957 -0.4336,-0.0715 -0.78611,-0.0406 -1.05753,0.0928 -0.27048,0.1276 -0.51617,0.3929 -0.73706,0.7959 m 2.93437,2.51517 c -0.32937,0.0525 -0.84417,0.0953 -1.54441,0.12821 -0.70025,0.0329 -1.16589,0.1016 -1.3969,0.206 -0.35517,0.17301 -0.56137,0.43294 -0.6186,0.77981 -0.0563,0.3411 0.0222,0.65692 0.23561,0.94749 0.21335,0.29056 0.51659,0.46827 0.90972,0.53314 0.43936,0.0725 0.88235,-0.003 1.32895,-0.22612 0.33109,-0.17104 0.56911,-0.40791 0.71408,-0.71061 0.0979,-0.19763 0.19507,-0.5884 0.29142,-1.1723 l 0.0801,-0.48562"
         style="fill:#2e3436"
         id="path3280"
         inkscape:connector-curvature="0" />
    </g>
    <path
       style="fill:none;stroke:none"
       d="m 263.87339,606.78667 c 67.26335,-12.81772 142.51609,-12.13754 218.04225,1.53371"
       id="path3230"
       inkscape:connector-curvature="0"
       sodipodi:nodetypes="cc" />
    <g
       id="g5065"
       transform="matrix(0.15859254,0,0,0.15859254,314.66487,300.98334)"
       style="fill:#eeeeec;stroke:#2e3436">
      <circle
         transform="matrix(7.6156859,0,0,7.6156859,3672.8956,-5289.7116)"
         id="path3981"
         style="fill:#eeeeec;fill-opacity:1;fill-rule:nonzero;stroke:#2e3436"
         cx="-345.45676"
         cy="799.36548"
         r="15.363029" />
      <g
         transform="matrix(0.10571593,0,0,0.10571593,1117.3248,992.69202)"
         id="g3948"
         style="fill:#eeeeec;stroke:#2e3436">
        <path
           inkscape:connector-curvature="0"
           style="color:#000000;font-style:normal;font-variant:normal;font-weight:normal;font-stretch:normal;font-size:medium;line-height:normal;font-family:Sans;-inkscape-font-specification:Sans;text-indent:0;text-align:start;text-decoration:none;text-decoration-line:none;letter-spacing:normal;word-spacing:normal;text-transform:none;direction:ltr;block-progression:tb;writing-mode:lr-tb;baseline-shift:baseline;text-anchor:start;display:inline;overflow:visible;visibility:visible;fill:#eeeeec;fill-opacity:1;stroke:#2e3436;stroke-width:59.64538193;marker:none;enable-background:accumulate"
           d="m -712.46928,-2936.0656 c 134.8381,0 263.9744,24.3843 383.25,68.9688 -274.84,32.8327 -467.4832,138.1592 -608.2813,318.625 -170.86562,219.0043 -198.04162,453.5191 -195.50002,810.0625 l 0,0.5625 c -136.9709,2.253 -290.1969,-31.6164 -402.3437,-79.3125 -49.9658,-646.9845 420.8237,-1059.9779 753.03122,-1116.7188 22.8704,-3.4955 46.3866,-2.1875 69.8438,-2.1875 z"
           id="path3946" />
        <path
           inkscape:connector-curvature="0"
           style="color:#000000;font-style:normal;font-variant:normal;font-weight:normal;font-stretch:normal;font-size:medium;line-height:normal;font-family:Sans;-inkscape-font-specification:Sans;text-indent:0;text-align:start;text-decoration:none;text-decoration-line:none;letter-spacing:normal;word-spacing:normal;text-transform:none;direction:ltr;block-progression:tb;writing-mode:lr-tb;baseline-shift:baseline;text-anchor:start;display:inline;overflow:visible;visibility:visible;fill:#eeeeec;fill-opacity:1;stroke:#2e3436;stroke-width:59.64538193;marker:none;enable-background:accumulate"
           d="m -831.31308,-2929.6593 c -425.27682,118.0116 -756.31672,591.8923 -712.37502,1109 -87.5843,-37.0213 -173.2364,-85.9114 -256.3125,-145.6563 57.5185,-506.7994 461.0668,-908.5472 968.68752,-963.3437 z"
           id="path3944" />
        <path
           inkscape:connector-curvature="0"
           style="color:#000000;font-style:normal;font-variant:normal;font-weight:normal;font-stretch:normal;font-size:medium;line-height:normal;font-family:Sans;-inkscape-font-specification:Sans;text-indent:0;text-align:start;text-decoration:none;text-decoration-line:none;letter-spacing:normal;word-spacing:normal;text-transform:none;direction:ltr;block-progression:tb;writing-mode:lr-tb;baseline-shift:baseline;text-anchor:start;display:inline;overflow:visible;visibility:visible;fill:#eeeeec;fill-opacity:1;stroke:#2e3436;stroke-width:59.64538193;marker:none;enable-background:accumulate"
           d="m -313.00058,-2860.8781 c 93.631,36.7139 180.9488,85.9514 259.937503,145.6563 -433.894503,101.7192 -688.127203,471.3243 -655.250003,872.9375 l -0.1875,0.375 c -139.5545,66.9975 -279.0914,100.4516 -416.50002,103.875 l 0,-0.4375 c -2.5347,-355.573 23.2526,-588.2984 193.96882,-805.3125 143.1587,-181.9833 336.8302,-286.493 618.0312,-317.0938 z"
           id="path3942" />
        <path
           inkscape:connector-curvature="0"
           style="color:#000000;font-style:normal;font-variant:normal;font-weight:normal;font-stretch:normal;font-size:medium;line-height:normal;font-family:Sans;-inkscape-font-specification:Sans;text-indent:0;text-align:start;text-decoration:none;text-decoration-line:none;letter-spacing:normal;word-spacing:normal;text-transform:none;direction:ltr;block-progression:tb;writing-mode:lr-tb;baseline-shift:baseline;text-anchor:start;display:inline;overflow:visible;visibility:visible;fill:#eeeeec;fill-opacity:1;stroke:#2e3436;stroke-width:59.64538193;marker:none;enable-background:accumulate"
           d="m -44.781777,-2708.9093 c 259.622797,200.1329 426.874997,514.2108 426.874997,867.4062 0,151.5024 -30.7706,295.8258 -86.4063,427.0312 44.3952,-294.6813 -50.8053,-557.5849 -191,-759.1249 -142.697797,-205.1385 -331.7274,-346.9262 -469.0937,-394.7188 106.1062,-65.0976 218.945,-116.9247 319.625003,-140.5937 z"
           id="path3940" />
        <path
           inkscape:connector-curvature="0"
           style="color:#000000;font-style:normal;font-variant:normal;font-weight:normal;font-stretch:normal;font-size:medium;line-height:normal;font-family:Sans;-inkscape-font-specification:Sans;text-indent:0;text-align:start;text-decoration:none;text-decoration-line:none;letter-spacing:normal;word-spacing:normal;text-transform:none;direction:ltr;block-progression:tb;writing-mode:lr-tb;baseline-shift:baseline;text-anchor:start;display:inline;overflow:visible;visibility:visible;fill:#eeeeec;fill-opacity:1;stroke:#2e3436;stroke-width:59.64538193;marker:none;enable-background:accumulate"
           d="m -372.37558,-2562.5656 0.094,0.031 c 135.1587,45.0604 326.772703,187.0162 470.406303,393.5 143.633597,206.4837 239.543097,477.2888 185.156097,780.7187 l -0.5936,3.2187 c -61.5408,133.9843 -149.3397,253.3997 -256.812497,351.6563 132.809797,-425.8078 -106.7303,-999.826 -661.750003,-1202.8437 56.0041,-127.9654 145.5955,-240.5991 263.5,-326.2813 z"
           id="path3938" />
        <path
           inkscape:connector-curvature="0"
           style="color:#000000;font-style:normal;font-variant:normal;font-weight:normal;font-stretch:normal;font-size:medium;line-height:normal;font-family:Sans;-inkscape-font-specification:Sans;text-indent:0;text-align:start;text-decoration:none;text-decoration-line:none;letter-spacing:normal;word-spacing:normal;text-transform:none;direction:ltr;block-progression:tb;writing-mode:lr-tb;baseline-shift:baseline;text-anchor:start;display:inline;overflow:visible;visibility:visible;fill:#eeeeec;fill-opacity:1;stroke:#2e3436;stroke-width:59.64538193;marker:none;enable-background:accumulate"
           d="m -639.03178,-2228.9406 c 556.413603,203.2912 792.9696,782.1054 653.656203,1204.5 l -0.5625,1.6875 c -83.488,74.13812 -178.421503,135.67342 -281.781203,181.68752 15.3288,-209.08662 8.3511,-410.14782 -52.9375,-583.65632 -61.4024,-173.8303 -177.5651,-319.8894 -379.6563,-417.7187 -11.1814,-135.631 10.6368,-267.5313 61.2813,-386.5 z"
           id="path3936" />
        <path
           inkscape:connector-curvature="0"
           style="color:#000000;font-style:normal;font-variant:normal;font-weight:normal;font-stretch:normal;font-size:medium;line-height:normal;font-family:Sans;-inkscape-font-specification:Sans;text-indent:0;text-align:start;text-decoration:none;text-decoration-line:none;letter-spacing:normal;word-spacing:normal;text-transform:none;direction:ltr;block-progression:tb;writing-mode:lr-tb;baseline-shift:baseline;text-anchor:start;display:inline;overflow:visible;visibility:visible;fill:#eeeeec;fill-opacity:1;stroke:#2e3436;stroke-width:59.64538193;marker:none;enable-background:accumulate"
           d="m -1800.9693,-1957.2218 c 336.9905,240.8325 717.6156,304.6255 1097.09372,121.9375 123.0164,59.5343 213.6298,136.7879 279.3438,227.4062 -173.7779,155.6039 -441.3257,235.0345 -700.75002,236.9375 -260.4969,1.9109 -512.5249,-74.4051 -653.1563,-228.5 l -2.2813,-2.5 c -17.212,-77.1023 -26.3124,-157.2678 -26.3124,-239.5625 0,-39.0918 2.0665,-77.6864 6.0625,-115.7187 z"
           id="path3934" />
        <path
           inkscape:connector-curvature="0"
           style="color:#000000;font-style:normal;font-variant:normal;font-weight:normal;font-stretch:normal;font-size:medium;line-height:normal;font-family:Sans;-inkscape-font-specification:Sans;text-indent:0;text-align:start;text-decoration:none;text-decoration-line:none;letter-spacing:normal;word-spacing:normal;text-transform:none;direction:ltr;block-progression:tb;writing-mode:lr-tb;baseline-shift:baseline;text-anchor:start;display:inline;overflow:visible;visibility:visible;fill:#eeeeec;fill-opacity:1;stroke:#2e3436;stroke-width:59.64538193;marker:none;enable-background:accumulate"
           d="m -419.84428,-1601.3468 c 39.05,55.2281 69.0609,115.3139 91.6562,179.2812 24.2127,68.5462 39.8983,141.5829 49.0313,217.8437 l -0.2188,0.1876 c -155.0048,153.651 -396.5256,224.70702 -638.9687,228.15622 -242.44322,3.4492 -485.65482,-60.76892 -643.40632,-176.28122 l -2.5312,-1.875 c -100.5999,-124.4998 -174.4565,-271.4994 -212.8438,-432.2813 144.1761,151.4036 394.1714,225.2656 651.9063,223.375 260.69052,-1.9123 529.55892,-81.3725 705.37502,-238.4062 z"
           id="path3932" />
        <path
           inkscape:connector-curvature="0"
           style="color:#000000;font-style:normal;font-variant:normal;font-weight:normal;font-stretch:normal;font-size:medium;line-height:normal;font-family:Sans;-inkscape-font-specification:Sans;text-indent:0;text-align:start;text-decoration:none;text-decoration-line:none;letter-spacing:normal;word-spacing:normal;text-transform:none;direction:ltr;block-progression:tb;writing-mode:lr-tb;baseline-shift:baseline;text-anchor:start;display:inline;overflow:visible;visibility:visible;fill:#eeeeec;fill-opacity:1;stroke:#2e3436;stroke-width:59.64538193;marker:none;enable-background:accumulate"
           d="m -278.00058,-1194.1906 c 12.6725,113.2715 11.1965,233.50162 2,356.65632 l 0,0.125 c -133.7177,58.2006 -281.3146,90.5 -436.4687,90.5 -333.14952,0 -631.50132,-148.8247 -832.25002,-383.59382 159.7068,107.3179 393.3474,165.94162 626.46872,162.62502 241.747,-3.4393 483.0533,-73.49532 640.25,-226.31252 z"
           id="path3928" />
      </g>
    </g>
  </g>
</svg>
