<?xml version="1.0" encoding="UTF-8" standalone="no"?>
<!-- Created with Inkscape (http://www.inkscape.org/) -->

<svg
   xmlns:dc="http://purl.org/dc/elements/1.1/"
   xmlns:cc="http://creativecommons.org/ns#"
   xmlns:rdf="http://www.w3.org/1999/02/22-rdf-syntax-ns#"
   xmlns:svg="http://www.w3.org/2000/svg"
   xmlns="http://www.w3.org/2000/svg"
   xmlns:sodipodi="http://sodipodi.sourceforge.net/DTD/sodipodi-0.dtd"
   xmlns:inkscape="http://www.inkscape.org/namespaces/inkscape"
   width="300"
   height="300"
   id="svg2"
   version="1.1"
   inkscape:version="0.92.0 r15299"
   sodipodi:docname="logo-rfevb.svg"
   inkscape:export-filename="/home/nacho/repos/vstat/trunk/gfx/rfevb.png"
   inkscape:export-xdpi="89.999557"
   inkscape:export-ydpi="89.999557"
   viewBox="0 0 300 300">
  <defs
     id="defs4" />
  <sodipodi:namedview
     id="base"
     pagecolor="#ffffff"
     bordercolor="#666666"
     borderopacity="1.0"
     inkscape:pageopacity="0.0"
     inkscape:pageshadow="2"
     inkscape:zoom="1.3133334"
     inkscape:cx="82.221432"
     inkscape:cy="78.768983"
     inkscape:document-units="px"
     inkscape:current-layer="layer1"
     showgrid="false"
     inkscape:window-width="1920"
     inkscape:window-height="1016"
     inkscape:window-x="0"
     inkscape:window-y="27"
     inkscape:window-maximized="1"
     objecttolerance="1"
     gridtolerance="1"
     fit-margin-top="0"
     fit-margin-left="0"
     fit-margin-right="0"
     fit-margin-bottom="0"
     scale-x="1"
     inkscape:pagecheckerboard="true" />
  <metadata
     id="metadata7">
    <rdf:RDF>
      <cc:Work
         rdf:about="">
        <dc:format>image/svg+xml</dc:format>
        <dc:type
           rdf:resource="http://purl.org/dc/dcmitype/StillImage" />
        <dc:title></dc:title>
      </cc:Work>
    </rdf:RDF>
  </metadata>
  <g
     inkscape:label="Capa 1"
     inkscape:groupmode="layer"
     id="layer1"
     transform="translate(-112.19143,-800.99654)">
    <g
       id="g3098"
       transform="matrix(0.12691725,0,0,0.12691725,222.11285,926.226)">
      <rect
         y="-254.5235"
         x="-138.07005"
         height="1631.5667"
         width="1069.8409"
         id="rect3994"
         style="fill:#ffcc00;fill-opacity:1;fill-rule:nonzero;stroke:none;stroke-width:1.06666672" />
      <rect
         style="fill:#ffffff;stroke:none;stroke-width:1.06666672"
         id="rect3996"
         width="942.88617"
         height="1501.3152"
         x="-74.592705"
         y="-189.39778" />
      <g
         transform="translate(1231.0883)"
         style="fill:none;stroke:#aa4400;stroke-width:10"
         id="g3066">
        <g
           style="fill:none;stroke:#aa4400;stroke-width:10"
           id="g3021">
          <path
             inkscape:connector-curvature="0"
             id="path3001"
             d="M -547.47211,110.71604 V 856.70685"
             style="fill:none;stroke:#aa4400;stroke-width:10.66666698;stroke-linecap:butt;stroke-linejoin:miter;stroke-opacity:1" />
          <path
             style="fill:none;stroke:#aa4400;stroke-width:10.66666698;stroke-linecap:butt;stroke-linejoin:miter;stroke-opacity:1"
             d="M -632.80544,110.71604 V 856.70685"
             id="path3003"
             inkscape:connector-curvature="0" />
          <path
             inkscape:connector-curvature="0"
             id="path3005"
             d="M -718.13877,110.71604 V 856.70685"
             style="fill:none;stroke:#aa4400;stroke-width:10.66666698;stroke-linecap:butt;stroke-linejoin:miter;stroke-opacity:1" />
          <path
             style="fill:none;stroke:#aa4400;stroke-width:10.66666698;stroke-linecap:butt;stroke-linejoin:miter;stroke-opacity:1"
             d="M -803.47211,110.71604 V 856.70685"
             id="path3007"
             inkscape:connector-curvature="0" />
          <path
             inkscape:connector-curvature="0"
             id="path3009"
             d="M -888.80544,110.71604 V 856.70685"
             style="fill:none;stroke:#aa4400;stroke-width:10.66666698;stroke-linecap:butt;stroke-linejoin:miter;stroke-opacity:1" />
          <path
             style="fill:none;stroke:#aa4400;stroke-width:10.66666698;stroke-linecap:butt;stroke-linejoin:miter;stroke-opacity:1"
             d="M -974.13877,110.71604 V 856.70685"
             id="path3011"
             inkscape:connector-curvature="0" />
          <path
             inkscape:connector-curvature="0"
             id="path3013"
             d="M -1059.4721,110.71604 V 856.70685"
             style="fill:none;stroke:#aa4400;stroke-width:10.66666698;stroke-linecap:butt;stroke-linejoin:miter;stroke-opacity:1" />
          <path
             style="fill:none;stroke:#aa4400;stroke-width:10.66666698;stroke-linecap:butt;stroke-linejoin:miter;stroke-opacity:1"
             d="M -1144.8054,110.71604 V 856.70685"
             id="path3015"
             inkscape:connector-curvature="0" />
          <path
             inkscape:connector-curvature="0"
             id="path3017"
             d="M -1230.1388,110.71604 V 856.70685"
             style="fill:none;stroke:#aa4400;stroke-width:10.66666698;stroke-linecap:butt;stroke-linejoin:miter;stroke-opacity:1" />
          <path
             sodipodi:nodetypes="cc"
             style="fill:none;stroke:#aa4400;stroke-width:10.66666698;stroke-linecap:butt;stroke-linejoin:miter;stroke-opacity:1"
             d="M -462.13881,110.71604 V 890.84018"
             id="path3019"
             inkscape:connector-curvature="0" />
        </g>
        <path
           style="fill:none;stroke:#aa4400;stroke-width:10.66666698;stroke-linecap:butt;stroke-linejoin:miter;stroke-opacity:1"
           d="m -367.37125,178.08404 -933.73335,277.33334 z m 0,106.66667 -933.73335,229.54667 z m 0,119.46667 -933.73335,168.96 z m 0,123.73333 -933.73335,104.10667 z m 0,115.2 -933.73335,47.78667 z m 0,106.66667 h -933.73335 z"
           id="path3035"
           inkscape:connector-curvature="0"
           sodipodi:nodetypes="cccccccccccccccccc" />
      </g>
      <path
         sodipodi:nodetypes="ccccc"
         inkscape:connector-curvature="0"
         id="rect3984"
         d="M -71.804012,-200.06445 H 865.50479 V 112.37182 L -71.804012,494.45259 Z"
         style="fill:#000080;fill-opacity:1;fill-rule:nonzero;stroke:none;stroke-width:1.06666672" />
      <text
         id="text3208"
         y="33.880665"
         x="-3.8787761"
         style="font-style:normal;font-variant:normal;font-weight:normal;font-stretch:normal;font-size:213.33332825px;line-height:100%;font-family:'Arial Black';-inkscape-font-specification:'Arial Black,';text-align:start;letter-spacing:0px;word-spacing:0px;writing-mode:lr-tb;text-anchor:start;fill:#ffffff;fill-opacity:1;stroke:none;stroke-width:1.06666672"
         xml:space="preserve"><tspan
           y="33.880665"
           x="-3.8787761"
           id="tspan3210"
           sodipodi:role="line"
           style="stroke-width:1.06666672">RFEVB</tspan></text>
      <rect
         y="1150.9894"
         x="-73.55983"
         height="171.59473"
         width="940.82043"
         id="rect3987"
         style="fill:#d40000;fill-opacity:1;fill-rule:nonzero;stroke:none;stroke-width:1.06666672" />
      <rect
         style="fill:#ffcc00;fill-opacity:1;fill-rule:nonzero;stroke:none;stroke-width:1.06666672"
         id="rect3989"
         width="940.82043"
         height="245.31107"
         x="-73.55983"
         y="905.67828" />
      <path
         sodipodi:nodetypes="ccccc"
         inkscape:connector-curvature="0"
         id="rect3991"
         d="m -73.55978,716.59153 940.82035,163.67531 v 25.41141 H -73.55978 Z"
         style="fill:#d40000;fill-opacity:1;fill-rule:nonzero;stroke:none;stroke-width:1.06666672" />
      <rect
         y="-189.39778"
         x="-74.592705"
         height="1501.3152"
         width="942.88617"
         id="rect3212"
         style="fill:none;stroke:#aa4400;stroke-width:21.33333397;stroke-linecap:square;stroke-linejoin:miter;stroke-miterlimit:4;stroke-dasharray:none;stroke-dashoffset:0;stroke-opacity:1" />
      <g
         transform="translate(2215.9078,376.16437)"
         id="g3110">
        <ellipse
           style="fill:#aa4400;stroke:#aa4400;stroke-width:21.33333015;stroke-linecap:square;stroke-linejoin:miter;stroke-miterlimit:4;stroke-dasharray:none;stroke-dashoffset:0;stroke-opacity:1"
           id="path3982"
           cx="-2321.5063"
           cy="-99.668495"
           rx="191.75276"
           ry="193.10048" />
        <path
           inkscape:connector-curvature="0"
           id="path3088"
           d="m -2299.997,80.227854 c 6.0622,-1.075093 7.1971,-4.074347 7.7937,-20.59552 0.5618,-15.559467 -0.404,-26.989867 -2.4536,-29.039467 -0.9392,-0.939306 -5.5614,-1.637226 -13.514,-2.04064 -6.6477,-0.33728 -15.9266,-1.40704 -20.6199,-2.377386 -72.4842,-14.985707 -119.7321,-84.563734 -107.2006,-157.865181 1.1731,-6.86144 1.8837,-12.8785 1.5791,-13.3712 -0.3044,-0.49269 -4.2642,-1.7664 -8.7993,-2.8305 -6.259,-1.46859 -12.2297,-1.9071 -24.7792,-1.81984 -20.2901,0.14101 -24.3975,1.28021 -26.4197,7.32725 -4.4878,13.42005 -6.7221,43.693764 -4.6069,62.424431 7.0305,62.258453 44.6466,115.890986 100.4855,143.270933 16.7162,8.196587 38.7438,14.928213 55.8744,17.075093 5.8336,0.731094 38.3261,0.610774 42.6605,-0.157973 z m 42.1395,-10.530773 c 11.0333,-4.321174 30.7438,-14.838294 39.7333,-21.20096 8.0116,-5.670507 8.2667,-5.985814 8.2667,-10.216747 0,-12.688533 -7.2973,-46.1630935 -13.6842,-62.772907 -6.5206,-16.95776 -6.6593,-17.207786 -9.3456,-16.857493 -5.1619,0.673173 -33.0454,27.2336 -43.1989,41.14922651 l -3.326,4.55829339 2.7728,9.8417071 c 4.6241,16.41248 5.2391,20.854506 5.4969,39.708266 0.1363,9.973334 0.3012,18.545387 0.3664,19.04896 0.1522,1.174827 4.2166,0.14976 12.9186,-3.258346 z m 79.4667,-60.2126938 c 17.2535,-22.9549862 30.8046,-54.9641602 34.139,-80.6398932 0.9386,-7.2288 0.1905,-7.50464 -12.6812,-4.673813 -19.4839,4.284906 -55.0578,18.162986 -55.0578,21.47904 0,0.673813 2.375,7.56256 5.2777,15.30848 6.4204,17.132266 11.0181,33.7602129 15.0261,54.342826 0.9431,4.84352 1.594,6.122774 2.9845,5.865494 0.9781,-0.180907 5.6183,-5.437974 10.3117,-11.6821338 z m -129.025,-1.7275733 c 0.6096,-0.43104 3.9315,-4.86368 7.3819,-9.8503467 14.8074,-21.4004262 27.1955,-34.9214932 44.8431,-48.9444262 32.6535,-25.94688 64.3371,-40.098134 107.2,-47.880107 l 4.8,-0.871467 -0.1641,-11.685337 c -0.2767,-19.70325 -6.3961,-43.97376 -16.5138,-65.49557 -5.0102,-10.6575 -7.7652,-14.98976 -9.5325,-14.98976 -1.6537,0 -72.8871,52.94304 -112.4563,83.58122 -47.1508,36.508701 -97.3265,76.544647 -98.0193,78.210994 -0.8474,2.038507 5.1597,9.40256 12.927,15.84704 13.3958,11.1144532 28.9491,18.1261865 47.2256,21.2903465 9.8388,1.70336 10.9155,1.7722667 12.3084,0.7874134 z m -77.0763,-61.3855999 c 5.9957,-4.877653 13.7813,-11.16352 17.3013,-13.96864 3.52,-2.805013 9.28,-7.407573 12.8,-10.22784 3.52,-2.820267 11.2,-8.914773 17.0666,-13.54336 5.8667,-4.628693 15.2267,-12.023464 20.8,-16.432964 17.9578,-14.20779 76.8134,-58.576 112.2964,-84.65451 12.7436,-9.36608 23.1703,-17.55701 23.1703,-18.20202 0,-3.73515 -19.2432,-22.69835 -35.4675,-34.95147 -11.4562,-8.65216 -38.934,-23.03296 -41.2613,-21.59456 -0.5222,0.32267 -3.2141,4.78453 -5.982,9.91531 -23.1456,42.90336 -59.9339,80.01941 -102.0236,102.93237 -9.401,5.11765 -31.555,14.83424 -40.5873,17.80117 -3.9537,1.29878 -7.5222,2.90134 -7.9301,3.56139 -1.4975,2.42293 -3.4375,16.48427 -3.4906,25.30037 -0.1045,17.265821 4.7212,36.397554 13.5186,53.600007 3.507,6.857707 5.3188,9.333334 6.8305,9.333334 1.1317,0 6.963,-3.990827 12.9587,-8.868587 z m -7.377,-111.223044 c 17.5125,-7.82155 46.5449,-26.34027 46.5449,-29.68917 0,-2.192 -16.8447,-13.58315 -29.5569,-19.98752 -18.9464,-9.54539 -38.0454,-14.95552 -58.2367,-16.49654 l -9.3937,-0.71701 -4.3381,4.15765 c -12.2807,11.76971 -24.8099,29.26848 -34.0207,47.51499 -4.4835,8.88171 -3.9571,9.70304 5.6636,8.83627 15.8341,-1.42656 42.7953,3.14122 58.9492,9.9873 4.1067,1.74038 8.4267,2.91275 9.6,2.60523 1.1733,-0.30741 7.8281,-3.10251 14.7884,-6.2112 z m 73.8954,-53.03179 c 17.0283,-17.99104 39.1366,-50.97002 37.3282,-55.68256 -1.2795,-3.3344 -34.7275,-7.69557 -49.212,-6.41653 -19.3557,1.70923 -29.6021,3.75467 -46.9275,9.36832 -12.9711,4.20277 -38.4058,16.7296 -38.4058,18.91531 0,1.07157 3.4563,2.45077 11.2,4.46944 15.2128,3.96576 25.4141,7.65376 36.6978,13.2672 10.1935,5.07114 27.6136,16.21973 33.7022,21.56885 2.0533,1.80405 4.521,3.29952 5.4838,3.32341 0.9629,0.0235 5.5229,-3.94218 10.1333,-8.81344 z"
           style="fill:#ffffff;stroke-width:1.06666672"
           sodipodi:nodetypes="cscssscsssssscsssscscsscsscsssscscssscsssscsscscsssssscsscccssssssscsssscsscsssssccs" />
      </g>
      <g
         transform="translate(2279.8172,-19.735012)"
         id="g4081">
        <path
           style="fill:#d40000;fill-opacity:1;stroke:none;stroke-width:1.06666672"
           d="m -2324.0481,-527.79155 11.4711,74.17988 94.8279,35.94283 h 698.2086 l 69.5915,-33.64861 v -76.4741 z"
           id="path4068"
           inkscape:connector-curvature="0"
           sodipodi:nodetypes="ccccccc" />
        <path
           style="fill:#fdd22c;fill-opacity:1;stroke:none;stroke-width:1.06666672"
           d="m -1477.2333,-410.76667 c -119.1609,-42.24563 -257.6583,-64.55403 -400.9667,-64.06666 -134.6229,0.45783 -273.5054,21.03295 -404.5333,64.06666 L -2255,-323.3 c 131.0279,-43.03372 256.8973,-63.60883 378.0999,-64.06667 129.0223,-0.48737 252.7725,21.82104 371.9335,64.06667"
           id="path4063"
           inkscape:connector-curvature="0"
           sodipodi:nodetypes="csccsc" />
        <g
           id="g3839">
          <circle
             id="path3822"
             style="fill:#000080;stroke:none;stroke-width:1.46374702"
             cx="-1881.3635"
             cy="-838.61072"
             r="44.367329" />
          <path
             inkscape:connector-curvature="0"
             id="path3824"
             d="m -1908.0333,-966.7 17.6,39.93333 -40.3667,-21.1 v 58.7 l 40.3667,-19.3 v 25.5 c -3.4004,12.39537 -5.4476,23.90927 -5.4334,36.3 H -1925 c -0.4787,2.61115 -0.7333,5.31719 -0.7333,8.06667 0,24.5034 19.8631,44.36667 44.3667,44.36667 24.5033,0 44.3666,-19.86327 44.3666,-44.36667 0,-2.74948 -0.2546,-5.45552 -0.7333,-8.06667 h -29.4 c -0.244,-11.6611 -1.7068,-22.66463 -5.3668,-34.9 v -26.9 l 39.7668,19.3 v -58.7 l -39.7668,21.1 19.0002,-39.93333 z"
             style="fill:#fdd22c;fill-opacity:1;stroke:#fdd22c;stroke-width:0.53333336;stroke-opacity:1" />
        </g>
        <g
           id="g3843"
           style="fill:#d40000;fill-opacity:1;stroke:#ffd129;stroke-opacity:1">
          <path
             sodipodi:nodetypes="csssc"
             inkscape:connector-curvature="0"
             id="path3834"
             d="m -2332.73,-500.29373 c -24.8921,-22.26024 -38.6567,-46.73409 -38.6567,-72.42398 0,-102.75956 220.2359,-186.06262 491.9109,-186.06262 271.6745,0 491.9104,83.30306 491.9104,186.06262 0,25.68989 -20.65,60.49161 -45.5421,82.75186"
             style="fill:#d40000;fill-opacity:1;fill-rule:nonzero;stroke:#ffd129;stroke-width:34.13333511;stroke-linecap:round;stroke-linejoin:round;stroke-opacity:1" />
          <path
             sodipodi:nodetypes="czazc"
             inkscape:connector-curvature="0"
             id="path3837"
             d="m -2113.5742,-606.90263 c 0,0 -19.1286,-45.13027 0,-106.53159 19.1287,-61.40132 149.4898,-87.9094 232.2743,-87.90941 82.7845,-1e-5 219.2262,26.50807 232.2743,87.90941 13.0481,61.40135 -10e-5,106.53159 -10e-5,106.53159"
             style="fill:#d40000;fill-opacity:1;stroke:#ffd129;stroke-width:34.13333511;stroke-linecap:round;stroke-linejoin:round;stroke-opacity:1" />
        </g>
        <path
           style="fill:#ffd129;fill-opacity:1;fill-rule:nonzero;stroke:none;stroke-width:2.67133045"
           d="m -1834.6167,-713.60211 c 0,49.98483 -33.2583,79.75662 -45.5751,79.75662 -12.3169,0 -47.2951,-29.77179 -47.2951,-79.75662 0,-49.98478 20.7897,-90.50545 46.4351,-90.50545 25.6455,0 46.4351,40.52067 46.4351,90.50545 z"
           id="path3849"
           inkscape:connector-curvature="0"
           sodipodi:nodetypes="szsss" />
        <g
           id="g4014"
           style="stroke:#fe7c1a;stroke-opacity:1"
           transform="translate(1149.8667,85.333333)">
          <circle
             id="path3852"
             style="fill:#000080;stroke:#fe7c1a;stroke-width:12.80000019;stroke-linecap:round;stroke-linejoin:miter;stroke-miterlimit:4;stroke-dasharray:none;stroke-dashoffset:0;stroke-opacity:1"
             cx="-2531.2407"
             cy="-599.78931"
             r="18.764484" />
          <circle
             style="fill:#000080;stroke:#fe7c1a;stroke-width:12.80000019;stroke-linecap:round;stroke-linejoin:miter;stroke-miterlimit:4;stroke-dasharray:none;stroke-dashoffset:0;stroke-opacity:1"
             id="path3854"
             cx="-2515.6658"
             cy="-637.1264"
             r="19.17005" />
          <circle
             id="path3856"
             style="fill:#000080;stroke:#fe7c1a;stroke-width:12.80000019;stroke-linecap:round;stroke-linejoin:miter;stroke-miterlimit:4;stroke-dasharray:none;stroke-dashoffset:0;stroke-opacity:1"
             cx="-2515.6987"
             cy="-676.6554"
             r="18.899672" />
          <circle
             style="fill:#000080;stroke:#fe7c1a;stroke-width:12.80000019;stroke-linecap:round;stroke-linejoin:miter;stroke-miterlimit:4;stroke-dasharray:none;stroke-dashoffset:0;stroke-opacity:1"
             id="path3858"
             cx="-2528.6433"
             cy="-714.38843"
             r="20.116367" />
          <circle
             id="path3860"
             style="fill:#000080;stroke:#fe7c1a;stroke-width:12.80000019;stroke-linecap:round;stroke-linejoin:miter;stroke-miterlimit:4;stroke-dasharray:none;stroke-dashoffset:0;stroke-opacity:1"
             cx="-2555.4092"
             cy="-745.93402"
             r="20.116367" />
          <circle
             style="fill:#000080;stroke:#fe7c1a;stroke-width:12.80000019;stroke-linecap:round;stroke-linejoin:miter;stroke-miterlimit:4;stroke-dasharray:none;stroke-dashoffset:0;stroke-opacity:1"
             id="path3862"
             cx="-2587.9434"
             cy="-768.33551"
             r="19.575615" />
          <circle
             id="path3864"
             style="fill:#000080;stroke:#fe7c1a;stroke-width:12.80000019;stroke-linecap:round;stroke-linejoin:miter;stroke-miterlimit:4;stroke-dasharray:none;stroke-dashoffset:0;stroke-opacity:1"
             cx="-2624.0215"
             cy="-787.58923"
             r="19.710802" />
          <circle
             style="fill:#000080;stroke:#fe7c1a;stroke-width:12.80000019;stroke-linecap:round;stroke-linejoin:miter;stroke-miterlimit:4;stroke-dasharray:none;stroke-dashoffset:0;stroke-opacity:1"
             id="path3866"
             cx="-2661.1345"
             cy="-803.86316"
             r="19.305237" />
          <circle
             id="path3868"
             style="fill:#000080;stroke:#fe7c1a;stroke-width:12.80000019;stroke-linecap:round;stroke-linejoin:miter;stroke-miterlimit:4;stroke-dasharray:none;stroke-dashoffset:0;stroke-opacity:1"
             cx="-2695.3896"
             cy="-814.98474"
             r="19.575615" />
          <circle
             style="fill:#000080;stroke:#fe7c1a;stroke-width:12.80000019;stroke-linecap:round;stroke-linejoin:miter;stroke-miterlimit:4;stroke-dasharray:none;stroke-dashoffset:0;stroke-opacity:1"
             id="path3870"
             cx="-2733.897"
             cy="-821.78821"
             r="19.034861" />
          <circle
             id="path3872"
             style="fill:#000080;stroke:#fe7c1a;stroke-width:12.80000019;stroke-linecap:round;stroke-linejoin:miter;stroke-miterlimit:4;stroke-dasharray:none;stroke-dashoffset:0;stroke-opacity:1"
             cx="-2762.4724"
             cy="-787.23962"
             r="23.376123" />
          <circle
             style="fill:#000080;stroke:#fe7c1a;stroke-width:12.79999924;stroke-linecap:round;stroke-linejoin:miter;stroke-miterlimit:4;stroke-dasharray:none;stroke-dashoffset:0;stroke-opacity:1"
             id="path3874"
             cx="-2767.0513"
             cy="-740.58081"
             r="24.322443" />
          <circle
             style="fill:#000080;stroke:#fe7c1a;stroke-width:12.80000019;stroke-linecap:round;stroke-linejoin:miter;stroke-miterlimit:4;stroke-dasharray:none;stroke-dashoffset:0;stroke-opacity:1"
             id="path3876"
             cx="-2775.2954"
             cy="-831.60822"
             r="23.105747" />
          <circle
             id="path3878"
             style="fill:#000080;stroke:#fe7c1a;stroke-width:12.80000019;stroke-linecap:round;stroke-linejoin:miter;stroke-miterlimit:4;stroke-dasharray:none;stroke-dashoffset:0;stroke-opacity:1"
             cx="-2809.8767"
             cy="-862.17468"
             r="21.837034" />
          <circle
             id="path3882"
             style="fill:#000080;stroke:#fe7c1a;stroke-width:12.79999924;stroke-linecap:round;stroke-linejoin:miter;stroke-miterlimit:4;stroke-dasharray:none;stroke-dashoffset:0;stroke-opacity:1"
             cx="-2882.2266"
             cy="-884.80438"
             r="15.857108" />
          <circle
             style="fill:#000080;stroke:#fe7c1a;stroke-width:12.80000019;stroke-linecap:round;stroke-linejoin:miter;stroke-miterlimit:4;stroke-dasharray:none;stroke-dashoffset:0;stroke-opacity:1"
             id="path3884"
             cx="-2913.6206"
             cy="-886.10309"
             r="14.380809" />
          <circle
             id="path3886"
             style="fill:#000080;stroke:#fe7c1a;stroke-width:12.79999924;stroke-linecap:round;stroke-linejoin:miter;stroke-miterlimit:4;stroke-dasharray:none;stroke-dashoffset:0;stroke-opacity:1"
             cx="-2941.2468"
             cy="-886.38983"
             r="12.946919" />
          <circle
             style="fill:#000080;stroke:#fe7c1a;stroke-width:12.80000019;stroke-linecap:round;stroke-linejoin:miter;stroke-miterlimit:4;stroke-dasharray:none;stroke-dashoffset:0;stroke-opacity:1"
             id="path3888"
             cx="-2966.5139"
             cy="-886.00751"
             r="11.035068" />
          <circle
             id="path3890"
             style="fill:#000080;stroke:#fe7c1a;stroke-width:12.79999924;stroke-linecap:round;stroke-linejoin:miter;stroke-miterlimit:4;stroke-dasharray:none;stroke-dashoffset:0;stroke-opacity:1"
             cx="-2988.978"
             cy="-886.10309"
             r="10.557104" />
          <circle
             style="fill:#000080;stroke:#fe7c1a;stroke-width:12.80000019;stroke-linecap:round;stroke-linejoin:miter;stroke-miterlimit:4;stroke-dasharray:none;stroke-dashoffset:0;stroke-opacity:1"
             id="path3892"
             cx="-3012.6851"
             cy="-883.04413"
             r="10.174733" />
          <circle
             style="fill:#000080;stroke:#fe7c1a;stroke-width:12.80000019;stroke-linecap:round;stroke-linejoin:miter;stroke-miterlimit:4;stroke-dasharray:none;stroke-dashoffset:0;stroke-opacity:1"
             id="path3880"
             cx="-2848.6523"
             cy="-875.46204"
             r="19.433632" />
          <circle
             style="fill:#000080;stroke:#fe7c1a;stroke-width:12.80000019;stroke-linecap:round;stroke-linejoin:miter;stroke-miterlimit:4;stroke-dasharray:none;stroke-dashoffset:0;stroke-opacity:1"
             id="path3922"
             transform="scale(-1,1)"
             cx="3534.4263"
             cy="-599.78931"
             r="18.764484" />
          <circle
             transform="scale(-1,1)"
             id="path3924"
             style="fill:#000080;stroke:#fe7c1a;stroke-width:12.80000019;stroke-linecap:round;stroke-linejoin:miter;stroke-miterlimit:4;stroke-dasharray:none;stroke-dashoffset:0;stroke-opacity:1"
             cx="3550.001"
             cy="-637.1264"
             r="19.17005" />
          <circle
             style="fill:#000080;stroke:#fe7c1a;stroke-width:12.80000019;stroke-linecap:round;stroke-linejoin:miter;stroke-miterlimit:4;stroke-dasharray:none;stroke-dashoffset:0;stroke-opacity:1"
             id="path3926"
             transform="scale(-1,1)"
             cx="3549.9683"
             cy="-676.6554"
             r="18.899672" />
          <circle
             transform="scale(-1,1)"
             id="path3928"
             style="fill:#000080;stroke:#fe7c1a;stroke-width:12.80000019;stroke-linecap:round;stroke-linejoin:miter;stroke-miterlimit:4;stroke-dasharray:none;stroke-dashoffset:0;stroke-opacity:1"
             cx="3537.0237"
             cy="-714.38843"
             r="20.116367" />
          <circle
             style="fill:#000080;stroke:#fe7c1a;stroke-width:12.80000019;stroke-linecap:round;stroke-linejoin:miter;stroke-miterlimit:4;stroke-dasharray:none;stroke-dashoffset:0;stroke-opacity:1"
             id="path3930"
             transform="scale(-1,1)"
             cx="3510.2576"
             cy="-745.93402"
             r="20.116367" />
          <circle
             transform="scale(-1,1)"
             id="path3932"
             style="fill:#000080;stroke:#fe7c1a;stroke-width:12.80000019;stroke-linecap:round;stroke-linejoin:miter;stroke-miterlimit:4;stroke-dasharray:none;stroke-dashoffset:0;stroke-opacity:1"
             cx="3477.7234"
             cy="-768.33551"
             r="19.575615" />
          <circle
             style="fill:#000080;stroke:#fe7c1a;stroke-width:12.80000019;stroke-linecap:round;stroke-linejoin:miter;stroke-miterlimit:4;stroke-dasharray:none;stroke-dashoffset:0;stroke-opacity:1"
             id="path3934"
             transform="scale(-1,1)"
             cx="3441.6453"
             cy="-787.58923"
             r="19.710802" />
          <circle
             transform="scale(-1,1)"
             id="path3936"
             style="fill:#000080;stroke:#fe7c1a;stroke-width:12.80000019;stroke-linecap:round;stroke-linejoin:miter;stroke-miterlimit:4;stroke-dasharray:none;stroke-dashoffset:0;stroke-opacity:1"
             cx="3404.5322"
             cy="-803.86316"
             r="19.305237" />
          <circle
             style="fill:#000080;stroke:#fe7c1a;stroke-width:12.80000019;stroke-linecap:round;stroke-linejoin:miter;stroke-miterlimit:4;stroke-dasharray:none;stroke-dashoffset:0;stroke-opacity:1"
             id="path3938"
             transform="scale(-1,1)"
             cx="3370.2773"
             cy="-814.98474"
             r="19.575615" />
          <circle
             transform="scale(-1,1)"
             id="path3940"
             style="fill:#000080;stroke:#fe7c1a;stroke-width:12.80000019;stroke-linecap:round;stroke-linejoin:miter;stroke-miterlimit:4;stroke-dasharray:none;stroke-dashoffset:0;stroke-opacity:1"
             cx="3331.77"
             cy="-821.78821"
             r="19.034861" />
          <circle
             style="fill:#000080;stroke:#fe7c1a;stroke-width:12.80000019;stroke-linecap:round;stroke-linejoin:miter;stroke-miterlimit:4;stroke-dasharray:none;stroke-dashoffset:0;stroke-opacity:1"
             id="path3942"
             transform="scale(-1,1)"
             cx="3303.1946"
             cy="-787.23962"
             r="23.376123" />
          <circle
             transform="scale(-1,1)"
             id="path3944"
             style="fill:#000080;stroke:#fe7c1a;stroke-width:12.79999924;stroke-linecap:round;stroke-linejoin:miter;stroke-miterlimit:4;stroke-dasharray:none;stroke-dashoffset:0;stroke-opacity:1"
             cx="3298.6157"
             cy="-740.58081"
             r="24.322443" />
          <circle
             transform="scale(-1,1)"
             id="path3946"
             style="fill:#000080;stroke:#fe7c1a;stroke-width:12.80000019;stroke-linecap:round;stroke-linejoin:miter;stroke-miterlimit:4;stroke-dasharray:none;stroke-dashoffset:0;stroke-opacity:1"
             cx="3290.3716"
             cy="-831.60822"
             r="23.105747" />
          <circle
             style="fill:#000080;stroke:#fe7c1a;stroke-width:12.80000019;stroke-linecap:round;stroke-linejoin:miter;stroke-miterlimit:4;stroke-dasharray:none;stroke-dashoffset:0;stroke-opacity:1"
             id="path3948"
             transform="scale(-1,1)"
             cx="3255.7903"
             cy="-862.17468"
             r="21.837034" />
          <circle
             style="fill:#000080;stroke:#fe7c1a;stroke-width:12.79999924;stroke-linecap:round;stroke-linejoin:miter;stroke-miterlimit:4;stroke-dasharray:none;stroke-dashoffset:0;stroke-opacity:1"
             id="path3950"
             transform="scale(-1,1)"
             cx="3183.4402"
             cy="-884.80438"
             r="15.857108" />
          <circle
             transform="scale(-1,1)"
             id="path3952"
             style="fill:#000080;stroke:#fe7c1a;stroke-width:12.80000019;stroke-linecap:round;stroke-linejoin:miter;stroke-miterlimit:4;stroke-dasharray:none;stroke-dashoffset:0;stroke-opacity:1"
             cx="3152.0464"
             cy="-886.10309"
             r="14.380809" />
          <circle
             style="fill:#000080;stroke:#fe7c1a;stroke-width:12.79999924;stroke-linecap:round;stroke-linejoin:miter;stroke-miterlimit:4;stroke-dasharray:none;stroke-dashoffset:0;stroke-opacity:1"
             id="path3954"
             transform="scale(-1,1)"
             cx="3124.4199"
             cy="-886.38983"
             r="12.946919" />
          <circle
             transform="scale(-1,1)"
             id="path3956"
             style="fill:#000080;stroke:#fe7c1a;stroke-width:12.80000019;stroke-linecap:round;stroke-linejoin:miter;stroke-miterlimit:4;stroke-dasharray:none;stroke-dashoffset:0;stroke-opacity:1"
             cx="3099.1531"
             cy="-886.00751"
             r="11.035068" />
          <circle
             style="fill:#000080;stroke:#fe7c1a;stroke-width:12.79999924;stroke-linecap:round;stroke-linejoin:miter;stroke-miterlimit:4;stroke-dasharray:none;stroke-dashoffset:0;stroke-opacity:1"
             id="path3958"
             transform="scale(-1,1)"
             cx="3076.6887"
             cy="-886.10309"
             r="10.557104" />
          <circle
             transform="scale(-1,1)"
             id="path3960"
             style="fill:#000080;stroke:#fe7c1a;stroke-width:12.80000019;stroke-linecap:round;stroke-linejoin:miter;stroke-miterlimit:4;stroke-dasharray:none;stroke-dashoffset:0;stroke-opacity:1"
             cx="3052.9817"
             cy="-883.04413"
             r="10.174733" />
          <circle
             transform="scale(-1,1)"
             id="path3962"
             style="fill:#000080;stroke:#fe7c1a;stroke-width:12.80000019;stroke-linecap:round;stroke-linejoin:miter;stroke-miterlimit:4;stroke-dasharray:none;stroke-dashoffset:0;stroke-opacity:1"
             cx="3217.0146"
             cy="-875.46204"
             r="19.433632" />
          <circle
             id="path4006"
             style="fill:#000080;stroke:#fe7c1a;stroke-width:12.80000019;stroke-linecap:round;stroke-linejoin:miter;stroke-miterlimit:4;stroke-dasharray:none;stroke-dashoffset:0;stroke-opacity:1"
             cx="-3032.2249"
             cy="-765.24371"
             r="20.676336" />
          <circle
             style="fill:#000080;stroke:#fe7c1a;stroke-width:12.79999924;stroke-linecap:round;stroke-linejoin:miter;stroke-miterlimit:4;stroke-dasharray:none;stroke-dashoffset:0;stroke-opacity:1"
             id="path4008"
             cx="-3032.2249"
             cy="-804.87964"
             r="17.999743" />
          <circle
             id="path4010"
             style="fill:#000080;stroke:#fe7c1a;stroke-width:12.79999828;stroke-linecap:round;stroke-linejoin:miter;stroke-miterlimit:4;stroke-dasharray:none;stroke-dashoffset:0;stroke-opacity:1"
             cx="-3032.2249"
             cy="-837.63965"
             r="14.653999" />
          <circle
             style="fill:#000080;stroke:#fe7c1a;stroke-width:12.79999924;stroke-linecap:round;stroke-linejoin:miter;stroke-miterlimit:4;stroke-dasharray:none;stroke-dashoffset:0;stroke-opacity:1"
             id="path4012"
             cx="-3032.2249"
             cy="-865.37299"
             r="12.168591" />
          <circle
             id="path3894"
             style="fill:#000080;stroke:#fe7c1a;stroke-width:10.66666698;stroke-linecap:round;stroke-linejoin:miter;stroke-miterlimit:4;stroke-dasharray:none;stroke-dashoffset:0;stroke-opacity:1"
             cx="-3032.186"
             cy="-885.36865"
             r="8.4540663" />
        </g>
        <path
           sodipodi:nodetypes="ccccccccccccccccccc"
           inkscape:connector-curvature="0"
           id="path3814"
           d="m -1730.3516,-513.77017 15.5706,-27.36629 -19.9537,-17.29568 22.2282,-15.03076 -8.6627,-28.69921 55.1336,24.85688 -1.9126,-61.16558 27.4854,21.76411 16.5987,-15.97471 5.1076,22.46385 33.6993,-3.96567 -33.9478,50.93779 59.7299,9.48147 -24.6198,19.73473 13.1333,23.6315 -27.0303,4.72779 -2.8198,29.20755 -54.4394,-55.19258 z"
           style="fill:#fdd22c;fill-opacity:1;stroke:none;stroke-width:1.06666672" />
        <path
           style="fill:#d40000;stroke:#fdd22c;stroke-width:21.33333397;stroke-linecap:round;stroke-linejoin:round;stroke-miterlimit:4;stroke-dasharray:none;stroke-opacity:1"
           d="m -2241.342,-308.53181 c 0,0 201.088,63.07665 364.8117,63.07665 163.7236,0 363.3395,-63.07665 363.3395,-63.07665 0,0 -216.3082,-64.06222 -363.3395,-64.06222 -147.0314,0 -364.8117,64.06222 -364.8117,64.06222 z"
           id="path3133"
           inkscape:connector-curvature="0"
           sodipodi:nodetypes="czczc" />
        <path
           style="fill:none;stroke:#fe7c1a;stroke-width:21.33333397;stroke-linecap:round;stroke-linejoin:miter;stroke-miterlimit:4;stroke-dasharray:none;stroke-opacity:1"
           d="m -2254.9902,-323.3154 c 270.5093,-88.84381 518.921,-81.93093 750.0208,0"
           id="path3903"
           inkscape:connector-curvature="0"
           sodipodi:nodetypes="cc" />
        <path
           sodipodi:nodetypes="cc"
           inkscape:connector-curvature="0"
           id="path3905"
           d="m -2282.7235,-410.78207 c 270.5093,-88.84381 574.3876,-81.93092 805.4874,0"
           style="fill:none;stroke:#fe7c1a;stroke-width:21.33333397;stroke-linecap:round;stroke-linejoin:miter;stroke-miterlimit:4;stroke-dasharray:none;stroke-opacity:1" />
        <path
           style="fill:#fdd22c;fill-opacity:1;stroke:none;stroke-width:1.06666672"
           d="m -1527.4259,-503.65029 31.428,-1.90704 3.5872,-26.16149 24.7324,10.40798 19.3068,-22.93331 9.2968,59.75904 50.1884,-35.01439 -10.2956,29.24712 31.8878,12.72883 -104.0174,27.17623 z"
           id="path3816"
           inkscape:connector-curvature="0"
           sodipodi:nodetypes="ccccccccccc" />
        <path
           style="fill:none;stroke:#fdd22c;stroke-width:12.80000019;stroke-linecap:butt;stroke-linejoin:miter;stroke-miterlimit:4;stroke-dasharray:none;stroke-opacity:1"
           d="m -2309.1967,-450.45427 c 0,0 39.214,22.7371 73.918,13.28439 34.704,-9.4527 38.5865,-29.63306 38.5865,-29.63306 0,0 17.1644,17.87269 50.0074,7.18002 32.843,-10.69266 42.1229,-54.82768 42.1229,-54.82768 0,0 23.8803,39.25646 65.0894,33.80795 41.2091,-5.4485 48.6158,-39.78728 48.6158,-39.78728 0,0 20.886,31.49228 57.5275,29.41794 36.6416,-2.07434 51.8711,-35.33137 51.8711,-35.33137 0,0 17.3472,34.41552 53.8421,35.99424 36.4949,1.57872 55.5564,-31.06638 55.5564,-31.06638 0,0 16.7652,34.89946 51.2498,39.78729 34.4846,4.88784 61.1055,-28.94599 61.1055,-28.94599 0,0 14.1041,43.98155 47.606,50.73615 33.5018,6.7546 48.9801,-7.37095 48.9801,-7.37095 0,0 7.5413,24.19715 33.4677,30.25426 25.9264,6.05711 63.1184,-3.6438 63.1184,-3.6438"
           id="path3907"
           inkscape:connector-curvature="0"
           sodipodi:nodetypes="czczczczczczczczc" />
        <path
           style="fill:#fdd22c;fill-opacity:1;stroke:none;stroke-width:1.06666672"
           d="m -2031.6755,-513.77017 -15.5706,-27.36629 19.9537,-17.29568 -22.2282,-15.03076 8.6627,-28.69921 -55.1336,24.85688 1.9126,-61.16558 -27.4854,21.76411 -16.5987,-15.97471 -5.1076,22.46385 -33.6993,-3.96567 33.9478,50.93779 -59.7299,9.48147 24.6198,19.73473 -13.1333,23.6315 27.0303,4.72779 2.8198,29.20755 54.4394,-55.19258 z"
           id="path3818"
           inkscape:connector-curvature="0"
           sodipodi:nodetypes="ccccccccccccccccccc" />
        <circle
           style="fill:#000080;stroke:#fe7c1a;stroke-width:12.80000019;stroke-linecap:round;stroke-linejoin:miter;stroke-miterlimit:4;stroke-dasharray:none;stroke-dashoffset:0;stroke-opacity:1"
           id="path3909"
           cx="-1995.8936"
           cy="-552.21704"
           r="22.984148" />
        <path
           sodipodi:nodetypes="ccccccccccc"
           inkscape:connector-curvature="0"
           id="path3820"
           d="m -2234.6012,-503.65029 -31.428,-1.90704 -3.5872,-26.16149 -24.7324,10.40798 -19.3068,-22.93331 -9.2968,59.75904 -50.1884,-35.01439 10.2956,29.24712 -31.8878,12.72883 104.0174,27.17623 z"
           style="fill:#fdd22c;fill-opacity:1;stroke:none;stroke-width:1.06666672" />
        <path
           style="fill:#fdd22c;fill-opacity:1;stroke:none;stroke-width:1.06666672"
           d="m -1948.8586,-513.87961 7.0799,-30.67954 -24.0715,-10.85583 16.9916,-20.76769 -16.5197,-25.01562 59.9431,8.02388 -19.3517,-58.05513 32.5675,12.97981 11.3278,-20.0597 11.3279,20.0597 31.1514,-13.4518 -17.9356,58.52712 59.9431,-8.02388 -17.9358,25.95961 19.3517,18.87971 -24.5436,12.27182 5.6639,28.79157 -67.9669,-37.28744 z"
           id="path3812"
           inkscape:connector-curvature="0"
           sodipodi:nodetypes="ccccccccccccccccccc" />
        <path
           style="fill:#808000;fill-opacity:1;fill-rule:nonzero;stroke:none;stroke-width:0.64575863"
           inkscape:transform-center-x="0.30366244"
           inkscape:transform-center-y="-0.16343738"
           d="m -1888.4944,-564.39364 -43.792,0.97032 43.8013,-15.93607 7.0477,-43.3406 7.821,44.05571 42.7734,14.85229 -42.7826,-0.90509 z"
           id="path4070"
           inkscape:connector-curvature="0"
           sodipodi:nodetypes="cccccccc" />
        <circle
           id="path3911"
           style="fill:#000080;stroke:#fe7c1a;stroke-width:12.80000019;stroke-linecap:round;stroke-linejoin:miter;stroke-miterlimit:4;stroke-dasharray:none;stroke-dashoffset:0;stroke-opacity:1"
           cx="-1881.594"
           cy="-572.09521"
           r="22.984148" />
        <circle
           style="fill:#000080;stroke:#fe7c1a;stroke-width:12.80000019;stroke-linecap:round;stroke-linejoin:miter;stroke-miterlimit:4;stroke-dasharray:none;stroke-dashoffset:0;stroke-opacity:1"
           id="path3913"
           cx="-1767.2944"
           cy="-552.21704"
           r="22.984148" />
        <path
           style="fill:#808000;fill-opacity:1;fill-rule:nonzero;stroke:none;stroke-width:1.06666672"
           inkscape:transform-center-x="8.8675909"
           inkscape:transform-center-y="7.847416"
           d="m -1641.3697,-540.48375 41.2942,14.61076 -36.6249,-28.82945 6.8536,-43.37174 -21.2006,39.40315 -45.2727,0.73733 40.9216,12.51382 z"
           id="path4077"
           inkscape:connector-curvature="0"
           sodipodi:nodetypes="cccccccc" />
        <circle
           id="path3915"
           style="fill:#000080;stroke:#fe7c1a;stroke-width:12.80000019;stroke-linecap:round;stroke-linejoin:miter;stroke-miterlimit:4;stroke-dasharray:none;stroke-dashoffset:0;stroke-opacity:1"
           cx="-1647.4042"
           cy="-551.59589"
           r="22.984148" />
        <circle
           style="fill:#000080;stroke:#fe7c1a;stroke-width:12.80000019;stroke-linecap:round;stroke-linejoin:miter;stroke-miterlimit:4;stroke-dasharray:none;stroke-dashoffset:0;stroke-opacity:1"
           id="path3917"
           cx="-1555.4675"
           cy="-490.09775"
           r="22.984148" />
        <path
           sodipodi:nodetypes="cccccccc"
           inkscape:connector-curvature="0"
           id="path4073"
           d="m -2117.5462,-540.48375 -41.2942,14.61076 36.6248,-28.82945 -6.8535,-43.37174 21.2005,39.40315 45.2728,0.73733 -40.9216,12.51382 z"
           inkscape:transform-center-y="7.847416"
           inkscape:transform-center-x="-8.8675909"
           style="fill:#808000;fill-opacity:1;fill-rule:nonzero;stroke:none;stroke-width:1.06666672" />
        <circle
           id="path3919"
           style="fill:#000080;stroke:#fe7c1a;stroke-width:12.80000019;stroke-linecap:round;stroke-linejoin:miter;stroke-miterlimit:4;stroke-dasharray:none;stroke-dashoffset:0;stroke-opacity:1"
           cx="-2112.6777"
           cy="-551.59589"
           r="22.984148" />
        <circle
           style="fill:#000080;stroke:#fe7c1a;stroke-width:12.80000019;stroke-linecap:round;stroke-linejoin:miter;stroke-miterlimit:4;stroke-dasharray:none;stroke-dashoffset:0;stroke-opacity:1"
           id="path3921"
           cx="-2205.8567"
           cy="-491.34012"
           r="22.984148" />
        <path
           style="fill:#808000;fill-opacity:1;fill-rule:nonzero;stroke:none;stroke-width:1.06666672"
           inkscape:transform-center-x="10.524988"
           inkscape:transform-center-y="2.8567593"
           d="m -2304.0746,-444.54572 -14.2875,-4.45411 -39.2913,-19.60282 44.3905,5.61765 26.8868,-36.43159 -13.5717,40.58298 z"
           id="path4075"
           inkscape:connector-curvature="0"
           sodipodi:nodetypes="ccccccc" />
        <circle
           id="path3923"
           style="fill:#000080;stroke:#fe7c1a;stroke-width:12.80000019;stroke-linecap:round;stroke-linejoin:miter;stroke-miterlimit:4;stroke-dasharray:none;stroke-dashoffset:0;stroke-opacity:1"
           cx="-2310.2173"
           cy="-454.68973"
           r="22.984148" />
        <path
           sodipodi:nodetypes="ccccccc"
           inkscape:connector-curvature="0"
           id="path4079"
           d="m -1454.8414,-444.54572 14.2876,-4.45411 39.2913,-19.60282 -44.3905,5.61765 -26.8868,-36.43159 13.5717,40.58298 z"
           inkscape:transform-center-y="2.8567593"
           inkscape:transform-center-x="-10.524988"
           style="fill:#808000;fill-opacity:1;fill-rule:nonzero;stroke:none;stroke-width:1.06666672" />
        <circle
           id="path3925"
           style="fill:#000080;stroke:#fe7c1a;stroke-width:12.80000019;stroke-linecap:round;stroke-linejoin:miter;stroke-miterlimit:4;stroke-dasharray:none;stroke-dashoffset:0;stroke-opacity:1"
           cx="-1450.8374"
           cy="-454.9595"
           r="22.984148" />
        <path
           style="fill:#fe7c1a;fill-opacity:1;stroke:#fe7c1a;stroke-width:1.06666672px;stroke-linecap:round;stroke-linejoin:round;stroke-opacity:1"
           d="m -1963.9477,-445.81274 c -2.3649,9.41942 -2.3182,18.83883 0,28.25824 0,0 36.2466,1.78377 55.4683,4.54901 8.8793,1.27736 17.3868,13.89355 27.739,13.96842 10.1886,0.0737 17.3074,-12.0912 27.4963,-13.35123 19.9718,-2.46988 54.921,-5.95115 54.921,-5.95115 2.286,-8.89611 2.0339,-17.79222 0,-26.68834 0,0 -34.3767,-5.68087 -55.1911,-6.30521 -10.1744,-0.30519 -17.6228,-13.91141 -28.0367,-13.78919 -9.9793,0.11712 -17.8958,12.89324 -26.5488,13.8404 -19.9471,2.18342 -55.848,5.46905 -55.848,5.46905 z"
           id="path3034"
           inkscape:connector-curvature="0"
           sodipodi:nodetypes="ccsasccsasc" />
        <circle
           style="fill:#d40000;fill-opacity:1;fill-rule:nonzero;stroke:none;stroke-width:1.29939401"
           id="path3927"
           cx="-1881.0822"
           cy="-431.98166"
           r="20.809971" />
        <path
           sodipodi:nodetypes="ccsasccsasc"
           inkscape:connector-curvature="0"
           id="path3804"
           d="m -2151.4783,-412.69158 c -0.4046,9.70331 1.5522,18.91735 5.7332,27.67052 0,0 35.8548,-5.60729 55.2377,-6.79941 8.9538,-0.55069 19.8439,10.07705 29.996,8.05003 9.9917,-1.99497 14.4944,-15.35118 24.2158,-18.65221 19.0552,-6.47051 52.5712,-16.97013 52.5712,-16.97013 0.4336,-9.17489 -1.6181,-17.83484 -5.4147,-26.13329 0,0 -34.8143,1.41188 -55.3224,5.02351 -10.0248,1.76541 -20.0788,-10.04666 -30.2512,-7.81412 -9.7481,2.13935 -14.9078,16.2559 -23.1887,18.93895 -19.0892,6.18502 -53.5769,16.68615 -53.5769,16.68615 z"
           style="fill:#fe7c1a;fill-opacity:1;stroke:#fe7c1a;stroke-width:1.06666672;stroke-opacity:1" />
        <ellipse
           transform="matrix(0.98984426,-0.14215607,0.1128209,0.99361534,0,0)"
           id="path3929"
           style="fill:#000080;fill-opacity:1;fill-rule:nonzero;stroke:none;stroke-width:1.38831115"
           cx="-2008.9825"
           cy="-704.30371"
           rx="24.585089"
           ry="20.107729" />
        <path
           style="fill:#fe7c1a;fill-opacity:1;stroke:#fe7c1a;stroke-width:1.06666672;stroke-opacity:1"
           d="m -2299.7507,-362.25236 c -0.5574,5.3769 1.7694,11.42084 4.5749,12.79493 0,0 7.0084,1.92933 10.2593,3.50866 7.3091,3.55088 12.353,13.8316 20.4586,13.25639 10.7788,-0.76491 15.3858,-15.40089 24.4436,-21.29347 15.9862,-10.39984 33.8573,-13.40626 51.84,-24.20873 0.4058,-9.12892 -3.7383,-17.51355 -8.4997,-25.29869 -31.6687,3.77169 -39.653,10.08618 -59.9461,10.8828 -9.3268,0.36613 -19.9627,-7.80397 -27.8589,-2.82662 -5.2461,3.30686 -3.6887,11.87889 -6.2885,17.50896 -2.5247,5.46767 -8.9832,15.67577 -8.9832,15.67577 z"
           id="path3810"
           inkscape:connector-curvature="0"
           sodipodi:nodetypes="ccaaaccaaac" />
        <ellipse
           style="fill:#d40000;fill-opacity:1;fill-rule:nonzero;stroke:none;stroke-width:1.20820642"
           id="path3931"
           transform="rotate(-15.000001)"
           cx="-2098.8999"
           cy="-940.36243"
           rx="17.991692"
           ry="20.809971" />
        <path
           sodipodi:nodetypes="ccaaaccaaac"
           inkscape:connector-curvature="0"
           id="path3808"
           d="m -1462.8965,-362.25236 c 0.5573,5.3769 -1.7694,11.42084 -4.575,12.79493 0,0 -7.0084,1.92933 -10.2593,3.50866 -7.3091,3.55088 -12.3529,13.8316 -20.4585,13.25639 -10.7788,-0.76491 -15.3858,-15.40089 -24.4437,-21.29347 -15.9862,-10.39984 -33.8572,-13.40626 -51.84,-24.20873 -0.4057,-9.12892 3.7384,-17.51355 8.4998,-25.29869 31.6687,3.77169 39.653,10.08618 59.946,10.8828 9.3268,0.36613 19.9628,-7.80397 27.859,-2.82662 5.2461,3.30686 3.6886,11.87889 6.2884,17.50896 2.5247,5.46767 8.9833,15.67577 8.9833,15.67577 z"
           style="fill:#fe7c1a;fill-opacity:1;stroke:#fe7c1a;stroke-width:1.06666672;stroke-opacity:1" />
        <ellipse
           transform="matrix(-0.96592582,-0.25881905,-0.25881904,0.96592583,0,0)"
           id="path3933"
           style="fill:#d40000;fill-opacity:1;fill-rule:nonzero;stroke:none;stroke-width:1.20820642"
           cx="1535.3748"
           cy="33.438568"
           rx="17.991692"
           ry="20.809971" />
        <path
           style="fill:#fe7c1a;fill-opacity:1;stroke:#fe7c1a;stroke-width:1.06666672;stroke-opacity:1"
           d="m -1610.3859,-412.69158 c 0.4046,9.70331 -1.5522,18.91735 -5.7332,27.67052 0,0 -35.8548,-5.60729 -55.2377,-6.79941 -8.9538,-0.55069 -19.8439,10.07705 -29.9961,8.05003 -9.9916,-1.99497 -14.4944,-15.35118 -24.2157,-18.65221 -19.0552,-6.47051 -52.5712,-16.97013 -52.5712,-16.97013 -0.4336,-9.17489 1.6181,-17.83484 5.4147,-26.13329 0,0 34.8143,1.41188 55.3224,5.02351 10.0248,1.76541 20.0788,-10.04666 30.2512,-7.81412 9.7481,2.13935 14.9078,16.2559 23.1887,18.93895 19.0892,6.18502 53.5769,16.68615 53.5769,16.68615 z"
           id="path3806"
           inkscape:connector-curvature="0"
           sodipodi:nodetypes="ccsasccsasc" />
        <ellipse
           style="fill:#000080;fill-opacity:1;fill-rule:nonzero;stroke:none;stroke-width:1.38831115"
           id="path3935"
           transform="matrix(-0.98984426,-0.14215607,-0.1128209,0.99361534,0,0)"
           cx="1730.7775"
           cy="-169.28067"
           rx="24.585089"
           ry="20.107729" />
      </g>
    </g>
  </g>
</svg>
