<?xml version="1.0" encoding="UTF-8" standalone="no"?>
<!-- Created with Inkscape (http://www.inkscape.org/) -->

<svg
   xmlns:dc="http://purl.org/dc/elements/1.1/"
   xmlns:cc="http://creativecommons.org/ns#"
   xmlns:rdf="http://www.w3.org/1999/02/22-rdf-syntax-ns#"
   xmlns:svg="http://www.w3.org/2000/svg"
   xmlns="http://www.w3.org/2000/svg"
   xmlns:sodipodi="http://sodipodi.sourceforge.net/DTD/sodipodi-0.dtd"
   xmlns:inkscape="http://www.inkscape.org/namespaces/inkscape"
   width="300"
   height="300"
   viewBox="0 0 281.25 281.25"
   id="svg4480"
   version="1.1"
   inkscape:version="0.92.0 r15299"
   sodipodi:docname="logo-cev.svg">
  <defs
     id="defs4482" />
  <sodipodi:namedview
     id="base"
     pagecolor="#ffffff"
     bordercolor="#666666"
     borderopacity="1.0"
     inkscape:pageopacity="0.0"
     inkscape:pageshadow="2"
     inkscape:zoom="0.90063"
     inkscape:cx="32.911462"
     inkscape:cy="168.58269"
     inkscape:document-units="px"
     inkscape:current-layer="g4528"
     showgrid="false"
     fit-margin-top="0"
     fit-margin-left="0"
     fit-margin-right="0"
     fit-margin-bottom="0"
     inkscape:window-width="1920"
     inkscape:window-height="1016"
     inkscape:window-x="0"
     inkscape:window-y="27"
     inkscape:window-maximized="1"
     units="px" />
  <metadata
     id="metadata4485">
    <rdf:RDF>
      <cc:Work
         rdf:about="">
        <dc:format>image/svg+xml</dc:format>
        <dc:type
           rdf:resource="http://purl.org/dc/dcmitype/StillImage" />
        <dc:title></dc:title>
      </cc:Work>
    </rdf:RDF>
  </metadata>
  <g
     inkscape:label="Capa 1"
     inkscape:groupmode="layer"
     id="layer1"
     transform="translate(-203.04724,-456.43109)">
    <rect
       style="opacity:1;fill:#27409b;fill-opacity:1;fill-rule:nonzero;stroke:none;stroke-width:0.66489363;stroke-linecap:butt;stroke-linejoin:miter;stroke-miterlimit:4;stroke-dasharray:none;stroke-dashoffset:0;stroke-opacity:1"
       id="rect4526"
       width="224.73404"
       height="281.25"
       x="231.30522"
       y="456.43109" />
    <g
       id="g4528"
       transform="translate(47.938729,112.91108)">
      <path
         sodipodi:nodetypes="cccccac"
         inkscape:connector-curvature="0"
         id="path4503"
         d="m 261.10368,519.08203 c 48.43181,-9.34345 72.99812,-46.20998 59.0654,-89.23665 15.74586,31.59282 2.94905,69.224 -27.45743,88.43847 62.27521,1.42755 88.97176,-59.5975 68.48394,-104.08282 h 4.46982 c 14.88593,31.52926 8.53797,67.12084 -12.13236,88.5981 -21.69379,22.54068 -60.88516,33.45343 -92.42937,16.2829 z"
         style="opacity:1;fill:#fab20b;fill-opacity:1;fill-rule:nonzero;stroke:none;stroke-width:0.66489363;stroke-linecap:butt;stroke-linejoin:miter;stroke-miterlimit:4;stroke-dasharray:none;stroke-dashoffset:0;stroke-opacity:1" />
      <path
         sodipodi:nodetypes="ccccc"
         inkscape:connector-curvature="0"
         id="path4505"
         d="m 239.56575,394.84913 2.70912,3.61217 c -41.47841,51.10303 -3.17747,104.2446 27.1476,115.08101 l -16.48045,0.90303 C 220.24176,493.28018 199.75468,440.84556 239.56575,394.84913 Z"
         style="opacity:1;fill:#ffff00;fill-opacity:1;fill-rule:nonzero;stroke:none;stroke-width:0.66489363;stroke-linecap:butt;stroke-linejoin:miter;stroke-miterlimit:4;stroke-dasharray:none;stroke-dashoffset:0;stroke-opacity:1" />
      <path
         sodipodi:nodetypes="ccccc"
         inkscape:connector-curvature="0"
         id="path4507"
         d="m 251.58746,389.7131 c 21.68539,-15.91718 45.91075,-18.65611 71.34007,-13.31982 -28.85237,-12.44055 -61.65244,-2.23931 -79.69318,15.35166 24.698,37.07761 50.87327,36.83636 75.85526,36.79884 -26.67178,-2.1074 -51.1696,-9.69568 -67.50215,-38.83068 z"
         style="opacity:1;fill:#ffffff;fill-opacity:1;fill-rule:nonzero;stroke:none;stroke-width:0.66489363;stroke-linecap:butt;stroke-linejoin:miter;stroke-miterlimit:4;stroke-dasharray:none;stroke-dashoffset:0;stroke-opacity:1" />
      <path
         sodipodi:nodetypes="cccc"
         inkscape:connector-curvature="0"
         id="path4509"
         d="m 275.29223,412.51483 4.28943,-12.52966 c 17.48345,-18.58447 49.99478,-18.02068 68.06656,-10.61071 -27.43739,-4.63029 -47.70301,-2.33019 -72.35599,23.14037 z"
         style="opacity:1;fill:#ffffff;fill-opacity:1;fill-rule:nonzero;stroke:none;stroke-width:0.66489363;stroke-linecap:butt;stroke-linejoin:miter;stroke-miterlimit:4;stroke-dasharray:none;stroke-dashoffset:0;stroke-opacity:1" />
      <path
         sodipodi:nodetypes="cccc"
         inkscape:connector-curvature="0"
         id="path4511"
         d="m 317.84793,422.10962 1.58032,5.86975 c 10.88912,-9.89995 22.28894,-16.94074 44.02315,-19.07669 -19.18139,-0.63914 -31.12536,2.2575 -45.60347,13.20694 z"
         style="opacity:1;fill:#ffffff;fill-opacity:1;fill-rule:nonzero;stroke:none;stroke-width:0.66489363;stroke-linecap:butt;stroke-linejoin:miter;stroke-miterlimit:4;stroke-dasharray:none;stroke-dashoffset:0;stroke-opacity:1" />
      <path
         sodipodi:nodetypes="cccccccc"
         inkscape:connector-curvature="0"
         id="path4513"
         d="m 316.33783,548.22651 18.36055,47.819 h 10.38182 l 18.36054,-47.819 H 351.6009 l -11.71161,31.1102 -11.71161,-31.1102 z"
         style="opacity:1;fill:#ffffff;fill-opacity:1;fill-rule:nonzero;stroke:none;stroke-width:0.66489363;stroke-linecap:butt;stroke-linejoin:miter;stroke-miterlimit:4;stroke-dasharray:none;stroke-dashoffset:0;stroke-opacity:1" />
      <path
         sodipodi:nodetypes="ccccccccccccc"
         inkscape:connector-curvature="0"
         id="path4515"
         d="m 279.15231,548.046 h 32.44123 v 9.63601 h -21.60071 v 9.636 h 20.45444 v 8.99361 h -20.45444 v 9.7966 h 22.93049 v 10.11781 h -33.77101 z"
         style="opacity:1;fill:#ffffff;fill-opacity:1;fill-rule:nonzero;stroke:none;stroke-width:0.66489363;stroke-linecap:butt;stroke-linejoin:miter;stroke-miterlimit:4;stroke-dasharray:none;stroke-dashoffset:0;stroke-opacity:1" />
      <path
         inkscape:connector-curvature="0"
         id="path4517"
         d="m 255.4605,546.87808 a 25.425104,25.258049 0 0 0 -25.42491,25.25793 25.425104,25.258049 0 0 0 25.42491,25.25793 25.425104,25.258049 0 0 0 17.90533,-7.35261 l -8.1771,-8.17708 a 13.224633,14.979469 0 0 1 -10.05046,5.25093 13.224633,14.979469 0 0 1 -13.22451,-14.97917 13.224633,14.979469 0 0 1 13.22451,-14.97916 13.224633,14.979469 0 0 1 10.04264,5.25875 l 8.19013,-8.19013 a 25.425104,25.258049 0 0 0 -17.91054,-7.34739 z"
         style="opacity:1;fill:#ffffff;fill-opacity:1;fill-rule:nonzero;stroke:none;stroke-width:0.66489363;stroke-linecap:butt;stroke-linejoin:miter;stroke-miterlimit:4;stroke-dasharray:none;stroke-dashoffset:0;stroke-opacity:1" />
    </g>
  </g>
</svg>
