<?xml version="1.0" encoding="UTF-8" standalone="no"?>
<!-- Created with Inkscape (http://www.inkscape.org/) -->

<svg
   xmlns:dc="http://purl.org/dc/elements/1.1/"
   xmlns:cc="http://creativecommons.org/ns#"
   xmlns:rdf="http://www.w3.org/1999/02/22-rdf-syntax-ns#"
   xmlns:svg="http://www.w3.org/2000/svg"
   xmlns="http://www.w3.org/2000/svg"
   xmlns:xlink="http://www.w3.org/1999/xlink"
   xmlns:sodipodi="http://sodipodi.sourceforge.net/DTD/sodipodi-0.dtd"
   xmlns:inkscape="http://www.inkscape.org/namespaces/inkscape"
   width="300"
   height="300"
   id="svg2"
   version="1.1"
   inkscape:version="0.92.0 r15299"
   sodipodi:docname="logo-fivb.svg"
   inkscape:export-filename="/home/nacho/webadv/static/img/logo-fivb.png"
   inkscape:export-xdpi="96"
   inkscape:export-ydpi="96">
  <defs
     id="defs4">
    <linearGradient
       id="linearGradient3814">
      <stop
         id="stop3816"
         offset="0"
         style="stop-color:#ffffff;stop-opacity:0.5714286" />
      <stop
         id="stop3818"
         offset="1"
         style="stop-color:#ffffff;stop-opacity:0.286" />
    </linearGradient>
    <linearGradient
       id="linearGradient3818">
      <stop
         style="stop-color:#ffffff;stop-opacity:0.76862746;"
         offset="0"
         id="stop3820" />
      <stop
         style="stop-color:#ffffff;stop-opacity:0.1254902"
         offset="1"
         id="stop3822" />
    </linearGradient>
    <linearGradient
       inkscape:collect="always"
       id="linearGradient3793">
      <stop
         style="stop-color:#0069b6;stop-opacity:1"
         offset="0"
         id="stop3795" />
      <stop
         style="stop-color:#448bc9;stop-opacity:1"
         offset="1"
         id="stop3797" />
    </linearGradient>
    <linearGradient
       inkscape:collect="always"
       xlink:href="#linearGradient3793"
       id="linearGradient3021"
       gradientUnits="userSpaceOnUse"
       gradientTransform="matrix(1.0666667,0,0,1.0666667,-93.315008,144.98507)"
       x1="650.62451"
       y1="529.0907"
       x2="650.62451"
       y2="581.13696" />
    <linearGradient
       inkscape:collect="always"
       xlink:href="#linearGradient3818"
       id="linearGradient3023"
       gradientUnits="userSpaceOnUse"
       gradientTransform="matrix(1.0666667,0,0,1.0666667,39.545601,85.112393)"
       x1="459.55429"
       y1="512.61346"
       x2="459.55429"
       y2="576.17188" />
    <linearGradient
       inkscape:collect="always"
       xlink:href="#linearGradient3814"
       id="linearGradient3806"
       x1="518.18036"
       y1="399.99091"
       x2="518.18036"
       y2="438.74173"
       gradientUnits="userSpaceOnUse"
       gradientTransform="matrix(0.38051909,0,0,0.38051909,128.63995,528.19539)" />
  </defs>
  <sodipodi:namedview
     id="base"
     pagecolor="#ffffff"
     bordercolor="#666666"
     borderopacity="1.0"
     inkscape:pageopacity="0.0"
     inkscape:pageshadow="2"
     inkscape:zoom="2.6266667"
     inkscape:cx="150"
     inkscape:cy="150"
     inkscape:document-units="px"
     inkscape:current-layer="layer1"
     showgrid="false"
     showborder="true"
     showguides="true"
     inkscape:guide-bbox="true"
     fit-margin-top="1"
     fit-margin-left="1"
     fit-margin-right="1"
     fit-margin-bottom="1"
     inkscape:window-width="1920"
     inkscape:window-height="1016"
     inkscape:window-x="0"
     inkscape:window-y="27"
     inkscape:window-maximized="1"
     units="cm"
     borderlayer="false" />
  <metadata
     id="metadata7">
    <rdf:RDF>
      <cc:Work
         rdf:about="">
        <dc:format>image/svg+xml</dc:format>
        <dc:type
           rdf:resource="http://purl.org/dc/dcmitype/StillImage" />
        <dc:title></dc:title>
      </cc:Work>
    </rdf:RDF>
  </metadata>
  <g
     inkscape:label="Capa 1"
     inkscape:groupmode="layer"
     id="layer1"
     transform="translate(-178.6197,-503.476)">
    <path
       sodipodi:nodetypes="czczc"
       inkscape:connector-curvature="0"
       id="path3820"
       d="m 178.88094,707.07638 c 53.83785,-19.6764 99.012,-26.15583 149.667,-26.23201 50.65499,-0.0762 113.79887,10.74238 149.77816,25.78741 -58.50046,-12.96544 -99.53706,-17.19325 -149.77816,-17.11751 -50.24111,0.0757 -99.46601,5.00425 -149.667,17.56211 z"
       style="fill:#407cc0;fill-opacity:1;stroke:#006ab8;stroke-width:1.52207649;stroke-linecap:square;stroke-linejoin:miter;stroke-miterlimit:4;stroke-dasharray:none;stroke-opacity:1" />
    <g
       id="g3017"
       transform="matrix(0.5005887,0,0,0.49226847,28.629188,290.10964)">
      <path
         inkscape:connector-curvature="0"
         style="fill:url(#linearGradient3021);fill-opacity:1;fill-rule:nonzero;stroke:#0069b6;stroke-width:3.77952743;stroke-miterlimit:4;stroke-dasharray:none;stroke-opacity:1"
         d="m 401.32673,629.65227 v 29.44987 h 98.082 v -29.44987 z m 110.34225,0 v 132.33487 h 34.37927 V 629.65227 Z m 46.51311,0 v 29.44987 h 12.38665 l 34.25286,102.885 h 34.25286 l 34.37927,-102.885 h 78.61728 c 10.55119,0 12.13385,6.87587 12.13385,10.99631 0,4.11541 -1.58266,10.99631 -12.13385,10.99631 h -59.02636 v 29.44988 h 60.4169 c 10.55079,0 12.13385,6.88092 12.13385,10.99631 0,4.12551 -1.58306,10.99631 -12.13385,10.99631 h -60.4169 v 29.44988 h 65.47267 c 25.39495,0 41.70972,-15.49089 41.70972,-39.56143 0,-17.21997 -9.14569,-24.57611 -14.91412,-28.31233 4.94939,-3.81711 13.14501,-12.09341 13.14501,-25.53166 0,-24.3486 -15.97665,-38.92945 -42.72168,-38.92945 H 647.2901 l -25.15247,83.92583 h -0.37898 L 596.60618,629.65227 H 558.1823 Z m -156.85536,49.041 v 83.29387 h 34.37925 v -53.84398 h 53.84398 v -29.44989 z"
         id="path3006" />
      <path
         inkscape:connector-curvature="0"
         id="path3008"
         d="m 403.47894,631.77906 v 25.16667 h 93.8 v -25.16667 z m 110.36667,0 v 53.93333 c 9.84627,-0.63634 19.86816,-1.1916 30.06667,-1.6 v -52.33333 z m 46.5,0 v 25.16667 h 10.23333 1.56667 l 0.46667,1.46666 8.26666,24.8 c 4.66952,-0.0512 9.34263,-0.0999 14.06667,-0.0999 5.19883,0 10.36378,0.0393 15.5,0.0999 l -15.43333,-51.43333 z m 88.53333,0 -15.53333,51.9 c 9.89536,0.29073 19.64363,0.6931 29.23333,1.2 l 8.83334,-26.46667 0.5,-1.46666 h 1.56666 78.6 c 5.7426,0 9.59741,2.01695 11.73334,4.8 2.13592,2.78305 2.56666,5.99785 2.56666,8.33333 0,2.33329 -0.43098,5.58317 -2.56666,8.36667 -2.13568,2.7835 -5.9904,4.8 -11.73334,4.8 h -56.86666 v 3.83333 c 34.15866,2.77335 65.67847,6.91325 93.46666,12.16667 -1.56678,-1.36729 -3.14384,-2.43336 -4.53333,-3.33334 l -2.53333,-1.66666 2.4,-1.83334 c 4.66821,-3.60025 12.3,-11.26917 12.3,-23.83333 0,-11.70408 -3.77626,-20.74898 -10.63334,-27 -6.85707,-6.25102 -16.95149,-9.8 -29.93333,-9.8 z m -245.4,49.06667 v 17.96666 c 25.22668,-4.68233 53.48973,-8.42549 83.93334,-11.1 v -6.86666 z"
         style="fill:url(#linearGradient3023);fill-opacity:1;fill-rule:nonzero;stroke:none;stroke-width:1.06666672" />
    </g>
    <path
       style="fill:url(#linearGradient3806);fill-opacity:1;stroke:#006ab8;stroke-width:1.52207649;stroke-linecap:square;stroke-linejoin:miter;stroke-miterlimit:4;stroke-dasharray:none;stroke-opacity:1"
       d="m 178.88094,707.07638 c 53.83785,-19.6764 99.012,-26.15583 149.667,-26.23201 50.65499,-0.0762 113.79887,10.74238 149.77816,25.78741 -58.50046,-12.96544 -99.53706,-17.19325 -149.77816,-17.11751 -50.24111,0.0757 -99.46601,5.00425 -149.667,17.56211 z"
       id="path3793"
       inkscape:connector-curvature="0"
       sodipodi:nodetypes="czczc" />
  </g>
</svg>
