<?xml version="1.0" encoding="UTF-8" standalone="no"?>
<!-- Created with Inkscape (http://www.inkscape.org/) -->

<svg
   xmlns:dc="http://purl.org/dc/elements/1.1/"
   xmlns:cc="http://creativecommons.org/ns#"
   xmlns:rdf="http://www.w3.org/1999/02/22-rdf-syntax-ns#"
   xmlns:svg="http://www.w3.org/2000/svg"
   xmlns="http://www.w3.org/2000/svg"
   xmlns:sodipodi="http://sodipodi.sourceforge.net/DTD/sodipodi-0.dtd"
   xmlns:inkscape="http://www.inkscape.org/namespaces/inkscape"
   width="300"
   height="300"
   id="svg2"
   version="1.1"
   inkscape:version="0.92.0 r15299"
   sodipodi:docname="logo-ayto.svg"
   inkscape:export-filename="/home/nacho/webadv/static/img/logo-ayto.png"
   inkscape:export-xdpi="96"
   inkscape:export-ydpi="96">
  <defs
     id="defs4" />
  <sodipodi:namedview
     id="base"
     pagecolor="#ffffff"
     bordercolor="#666666"
     borderopacity="1.0"
     inkscape:pageopacity="0"
     inkscape:pageshadow="2"
     inkscape:zoom="1.3016629"
     inkscape:cx="121.63849"
     inkscape:cy="185.60134"
     inkscape:document-units="px"
     inkscape:current-layer="layer2"
     showgrid="false"
     fit-margin-top="0"
     fit-margin-left="0"
     fit-margin-right="0"
     fit-margin-bottom="0"
     inkscape:window-width="1920"
     inkscape:window-height="1016"
     inkscape:window-x="0"
     inkscape:window-y="27"
     inkscape:window-maximized="1"
     inkscape:pagecheckerboard="true" />
  <metadata
     id="metadata7">
    <rdf:RDF>
      <cc:Work
         rdf:about="">
        <dc:format>image/svg+xml</dc:format>
        <dc:type
           rdf:resource="http://purl.org/dc/dcmitype/StillImage" />
        <dc:title></dc:title>
      </cc:Work>
    </rdf:RDF>
  </metadata>
  <g
     inkscape:groupmode="layer"
     id="layer2"
     inkscape:label="buena"
     transform="translate(-552.65262,-389.02846)">
    <g
       style="font-style:normal;font-variant:normal;font-weight:bold;font-stretch:normal;font-size:300px;line-height:100%;font-family:'Arial Black';-inkscape-font-specification:'Arial Black, Bold';text-align:center;letter-spacing:0px;word-spacing:0px;writing-mode:lr-tb;text-anchor:middle;fill:#729fcf;fill-opacity:1;stroke:none"
       id="text3201" />
    <g
       transform="matrix(0.68590525,0,0,0.68590525,468.05902,200.36474)"
       inkscape:label="buena"
       id="layer2-5">
      <g
         id="text3201-5"
         style="font-style:normal;font-variant:normal;font-weight:bold;font-stretch:normal;font-size:300px;line-height:100%;font-family:'Arial Black';-inkscape-font-specification:'Arial Black, Bold';text-align:center;letter-spacing:0px;word-spacing:0px;writing-mode:lr-tb;text-anchor:middle;fill:#729fcf;fill-opacity:1;stroke:none" />
      <g
         id="g41597">
        <rect
           style="fill:#013e5a;fill-opacity:1;fill-rule:nonzero;stroke:none;stroke-width:1.06666672"
           id="rect3142-8"
           width="334.32135"
           height="254.87173"
           x="201.92438"
           y="340.40179" />
        <path
           id="path8257-8"
           style="fill:#a40000;fill-opacity:1;fill-rule:evenodd;stroke:none;stroke-width:1.06666672"
           d="m 259.60097,275.11573 c -0.007,0.009 0.0255,0.062 0.0192,0.0718 -0.0129,0.0221 -0.0407,0.0642 -0.0526,0.0912 -0.006,0.015 -0.047,0.0754 -0.0526,0.0912 -0.0117,0.0338 -0.023,0.12453 -0.0334,0.16283 -0.57312,2.29115 -0.28663,11.56931 -2.03988,16.24305 -1.98604,5.29412 -10.32157,12.09651 -10.39044,17.55723 10e-4,0.12855 0.0228,0.31791 0.0435,0.45 0.992,5.48348 17.79278,14.08365 15.96617,30.26947 -0.032,0.0145 -0.11095,0.0268 -0.1437,0.0386 -0.0328,0.0117 -0.11037,0.0287 -0.14371,0.0386 -0.0505,0.0129 -0.16404,0.0485 -0.21558,0.0578 -0.0343,0.006 -0.10859,0.035 -0.14371,0.0386 -0.0351,0.002 -0.10824,0.0364 -0.14371,0.0386 -4.29837,0.083 -12.02675,-11.13534 -20.35471,-9.85773 -8.92038,1.36851 -32.81455,10.08157 -28.226,31.18477 5.4157,24.90754 41.30835,24.8799 53.03159,32.64878 6.35397,5.71147 3.18624,6.81939 1.53712,8.89827 -0.59056,0.76844 -0.94557,1.73412 -0.56243,3.07456 1.68537,5.89624 12.46454,3.24909 10.71777,-1.10211 -1.83668,-4.57511 -2.16766,-8.80476 -4.44523,-13.42816 -6.83113,-13.86702 -37.04891,-15.22504 -35.48703,-30.11716 1.01478,-9.67566 24.17307,-7.31604 31.8001,8.02205 4.02144,8.08712 10.29196,32.47262 15.38309,51.66208 -19.18189,5.19036 -43.43891,12.03029 -52.46077,12.5949 -17.11084,1.07087 -30.75492,-17.85537 -22.87398,-23.57109 12.12978,-8.79724 28.41599,16.66523 43.85359,15.64131 5.14704,-0.34135 8.97945,-2.16986 13.86415,-2.8685 4.6457,-0.66445 1.47919,-11.29384 -4.47524,-9.80376 -2.5083,0.62774 -2.437,2.77968 -3.06722,4.36124 -0.11401,0.27294 -0.29727,0.59377 -0.47358,0.8194 -0.86821,1.04103 -2.70956,1.42006 -7.25455,-0.0568 -12.59688,-6.25733 -30.51923,-37.32191 -54.82067,-29.55331 -20.58969,6.58205 -16.24901,31.70051 -12.97526,40.10178 3.10758,7.97464 17.1194,8.88537 18.83385,12.80438 0.0129,0.0324 0.0267,0.11071 0.0384,0.14355 0.0107,0.0333 0.0295,0.11002 0.0384,0.1436 0.0129,0.0506 0.0498,0.16363 0.0578,0.21536 0.004,0.0344 0.0351,0.10871 0.0384,0.14357 -13.22482,9.75117 -29.26896,-0.80974 -34.38817,1.28911 -0.10059,0.0441 -0.24825,0.11354 -0.34,0.16811 -4.69975,2.78994 -6.35747,13.38297 -9.9542,17.74814 -3.2596,3.95597 -11.80409,8.46391 -13.18643,9.99654 -0.0117,0.0129 -0.0429,0.0787 -0.0526,0.0912 -0.0347,0.0475 -0.0891,0.14216 -0.10517,0.18209 -0.004,0.0183 -0.0544,0.075 -0.0526,0.0912 0.004,0.015 0.0816,0.0381 0.0912,0.0526 0.006,0.007 0.0117,0.0652 0.0192,0.0718 0.009,0.007 0.0801,0.0462 0.0912,0.0526 0.0367,0.0183 0.11566,0.0163 0.16298,0.0334 0.017,0.006 0.0731,0.0471 0.0912,0.0526 2.18709,0.59233 11.62819,0.31811 16.34623,2.08328 5.29743,1.982 12.01031,10.25517 17.47541,10.32145 0.10656,0.001 0.26936,-0.0129 0.3785,-0.0243 5.48279,-0.74192 14.11623,-17.83824 30.44483,-16.00589 0.0218,0.048 0.0401,0.16625 0.0578,0.21536 0.0107,0.0331 0.0296,0.11001 0.0384,0.14359 0.009,0.0336 0.0322,0.1093 0.0385,0.14357 0.009,0.0518 0.0525,0.16268 0.0578,0.21538 0.001,0.0355 -0.0341,0.12696 -0.0334,0.16282 -0.0129,4.30502 -11.1637,11.9853 -9.89425,20.2712 1.36552,8.91258 10.14634,32.76435 31.26855,28.16976 24.92997,-5.42289 24.9189,-41.28683 32.69943,-53.00428 7.87127,-8.74188 6.87914,0.55529 11.93027,-0.88838 5.90168,-1.68684 3.31005,-12.54713 -1.04544,-10.79974 -4.57958,1.83734 -8.79355,2.24184 -13.42172,4.51965 -13.88133,6.8321 -15.27361,36.95454 -30.17691,35.40081 -9.68294,-1.00952 -7.31077,-24.15038 8.04314,-31.77838 8.09549,-4.02196 32.50339,-10.29873 51.71058,-15.39468 5.18562,19.16418 11.96723,43.48966 12.52813,52.50403 1.06384,17.09671 -17.81203,30.7193 -23.52868,22.84731 -8.7987,-12.11601 16.69165,-28.40097 15.6741,-43.82569 -0.3393,-5.14282 -2.16747,-8.97124 -2.8644,-13.85176 -0.66283,-4.64161 -11.32141,-1.54459 -9.83293,4.40442 1.27394,5.09156 8.7662,-0.39611 5.12309,10.78433 -6.26818,12.58971 -37.36595,30.51208 -29.60232,54.79049 6.57781,20.57013 31.64651,16.24058 40.05605,12.96556 7.85106,-3.05749 8.93483,-16.63709 12.69884,-18.71436 0.032,-0.0159 0.0925,-0.0954 0.12453,-0.11037 0.0322,-0.0146 0.11094,-0.0268 0.14372,-0.0386 0.0493,-0.0176 0.16526,-0.0443 0.21557,-0.0578 0.0337,-0.009 0.10954,-0.0322 0.14369,-0.0386 0.0342,-0.006 0.10872,-0.0351 0.14371,-0.0386 9.79189,13.26253 -0.84342,29.36553 1.36534,34.41259 0.0368,0.0789 0.10517,0.19454 0.14879,0.26791 2.78999,4.69466 13.39074,6.34615 17.75775,9.93801 3.88933,3.19898 8.3003,11.52289 9.90736,13.11875 0.0547,0.0518 0.15398,0.14229 0.2014,0.17686 0.0229,0.015 0.0702,0.0421 0.0912,0.0526 0.0198,0.009 0.073,0.0492 0.0912,0.0526 0.009,5.4e-4 0.0639,-0.0185 0.0718,-0.0192 0.009,-0.002 0.0646,-0.0144 0.0718,-0.0192 0.0143,-0.0129 0.0394,-0.0741 0.0526,-0.0912 0.0129,-0.0195 0.0403,-0.0666 0.0526,-0.0912 0.0239,-0.0537 0.0645,-0.18167 0.086,-0.25387 0.59385,-2.18559 0.25191,-11.59978 2.02067,-16.31484 1.98603,-5.29416 10.34076,-12.02475 10.40965,-17.48544 10e-4,-0.0853 0.002,-0.21952 -0.006,-0.30643 -0.61073,-5.47528 -17.87258,-14.10321 -16.02389,-30.48483 0.032,-0.0145 0.11095,-0.0268 0.14373,-0.0386 0.0328,-0.0117 0.11036,-0.0287 0.14368,-0.0386 0.0505,-0.0129 0.16406,-0.0484 0.21557,-0.0577 0.0343,-0.006 0.1086,-0.035 0.14371,-0.0386 0.0351,-0.002 0.12726,0.0347 0.16298,0.0333 4.29836,-0.083 12.02673,11.13533 20.3547,9.85772 8.92037,-1.36851 32.7953,-10.15337 28.20678,-31.25655 -5.41572,-24.90755 -41.30839,-24.87986 -53.03161,-32.64878 -6.28563,-5.6501 -3.25198,-6.77209 -1.58975,-8.80724 0.62064,-0.78239 1.02873,-1.71393 0.63429,-3.09382 -1.68536,-5.89625 -12.46459,-3.24904 -10.71776,1.10213 1.83669,4.57512 2.16767,8.80471 4.44524,13.42817 6.83107,13.86698 37.04889,15.225 35.48702,30.11714 -1.01477,9.67566 -24.17304,7.31606 -31.80009,-8.02203 -4.02143,-8.08713 -10.31118,-32.54441 -15.40234,-51.73389 19.18188,-5.19036 43.45814,-11.95848 52.47998,-12.52311 17.1109,-1.07091 30.7357,17.78356 22.85478,23.4993 -12.12977,8.79722 -28.39682,-16.59341 -43.83437,-15.56953 -5.14707,0.3414 -8.99862,2.09809 -13.88337,2.79671 -4.64568,0.66448 -1.45996,11.36563 4.49448,9.87557 5.09622,-1.27533 -0.41159,-8.83082 10.77611,-5.19576 12.59688,6.25735 30.51923,37.32197 54.82068,29.55333 20.58966,-6.58205 16.26826,-31.62874 12.99449,-40.02999 -3.04356,-7.81055 -16.54035,-8.8866 -18.70429,-12.60827 -0.0173,-0.0316 -0.0946,-0.0925 -0.11036,-0.12438 -0.0218,-0.0482 -0.0387,-0.16646 -0.0578,-0.21538 -0.0117,-0.0328 -0.0287,-0.11024 -0.0384,-0.14355 -0.009,-0.0335 -0.0308,-0.10966 -0.0384,-0.1436 -0.0107,-0.0513 -0.0526,-0.16291 -0.0578,-0.21536 13.22477,-9.75115 29.24973,0.73797 34.36893,-1.3609 0.10058,-0.0441 0.24823,-0.11354 0.34,-0.16811 4.69973,-2.78992 6.37661,-13.31116 9.97342,-17.67633 3.20334,-3.88771 11.51669,-8.3708 13.11461,-9.9773 0.0129,-0.0143 0.0407,-0.0778 0.0526,-0.0912 0.0323,-0.0381 0.10187,-0.0762 0.12439,-0.11036 0.006,-0.0107 0.0475,-0.0807 0.0526,-0.0912 0.002,-0.0107 -0.0212,-0.0627 -0.0192,-0.0718 10e-4,-0.0172 0.0566,-0.0758 0.0526,-0.0912 -0.009,-0.0144 -0.0793,-0.0386 -0.0912,-0.0526 -0.0342,-0.0265 -0.12854,-0.0813 -0.18216,-0.10507 -0.015,-0.006 -0.0754,-0.0468 -0.0912,-0.0526 -1.96348,-0.63611 -11.61728,-0.26785 -16.41807,-2.06403 -5.29746,-1.98196 -12.02956,-10.32695 -17.49465,-10.39324 -0.10671,-0.001 -0.26934,0.0129 -0.37852,0.0243 -5.48277,0.74195 -14.09697,17.91002 -30.42556,16.07769 -0.0145,-0.032 -0.0253,-0.11118 -0.0386,-0.14358 -0.0191,-0.0487 -0.043,-0.16541 -0.0578,-0.21535 -0.009,-0.0335 -0.0308,-0.10966 -0.0384,-0.14359 -0.006,-0.0343 -0.0335,-0.10871 -0.0384,-0.14358 -0.47475,-4.2512 11.20459,-12.04584 9.90839,-20.50583 -1.36548,-8.91258 -10.16556,-32.83616 -31.28776,-28.24153 -24.93001,5.42292 -24.91888,41.28679 -32.69945,53.00424 -3.19772,3.55141 -4.9819,4.14383 -6.2543,3.67639 -0.26548,-0.10719 -0.58464,-0.29346 -0.81983,-0.47282 -1.33658,-1.05457 -2.35081,-2.9539 -4.83691,-2.24336 -5.90171,1.68684 -3.32924,12.47533 1.02621,10.72794 4.5796,-1.83733 8.81273,-2.16996 13.44096,-4.44789 13.88127,-6.83203 15.25436,-37.02632 30.15765,-35.47258 9.68296,1.00951 7.32997,24.22216 -8.0239,31.85018 -8.09546,4.02193 -32.52259,10.22691 -51.7298,15.32288 -5.18561,-19.16419 -11.94797,-43.41788 -12.50889,-52.43225 -1.06381,-17.09669 17.81202,-30.71932 23.52867,-22.8473 8.79869,12.11598 -16.6917,28.40096 -15.6741,43.8257 0.3393,5.14278 2.16747,8.97126 2.8644,13.85176 0.66281,4.64163 11.32144,1.54455 9.83293,-4.40444 -1.27395,-5.09157 -8.78544,0.3243 -5.14233,-10.85613 6.26816,-12.58966 37.36596,-30.51203 29.60233,-54.79045 -6.57781,-20.57017 -31.6273,-16.16881 -40.03681,-12.89381 -7.85106,3.05754 -8.93482,16.63712 -12.69883,18.71439 -0.032,0.0159 -0.11154,0.0239 -0.14371,0.0386 -0.0322,0.0146 -0.11096,0.0268 -0.14374,0.0386 -0.0493,0.0176 -0.16524,0.0443 -0.21557,0.0578 -0.0337,0.009 -0.10942,0.0322 -0.14369,0.0386 -0.0342,0.006 -0.10872,0.0351 -0.1437,0.0386 -9.67481,-13.10403 0.57495,-28.95237 -1.30764,-34.19722 -0.0483,-0.12481 -0.12452,-0.29928 -0.18724,-0.4115 -2.79003,-4.69468 -13.40995,-6.41795 -17.777,-10.00977 -3.85518,-3.17097 -8.24619,-11.34933 -9.88811,-13.04697 -0.0283,-0.0282 -0.0837,-0.10048 -0.11037,-0.12438 -0.0129,-0.0117 -0.0788,-0.0428 -0.0912,-0.0526 -0.0238,-0.0172 -0.0692,-0.0397 -0.0912,-0.0526 -0.0209,-0.0107 -0.0721,-0.0467 -0.0912,-0.0526 -0.009,-5.5e-4 -0.0639,0.0184 -0.0718,0.0192 -0.009,0.002 -0.0645,0.0144 -0.0718,0.0192 -0.007,0.007 -0.0653,0.0107 -0.0718,0.0192 z"
           inkscape:connector-curvature="0" />
        <g
           style="font-style:normal;font-variant:normal;font-weight:bold;font-stretch:normal;font-size:300px;line-height:100%;font-family:'Arial Black';-inkscape-font-specification:'Arial Black, Bold';text-align:center;letter-spacing:0px;word-spacing:0px;writing-mode:lr-tb;text-anchor:middle;fill:#ffffff;fill-opacity:1;stroke:none"
           id="text3197-0">
          <path
             style="fill:#ffffff;stroke-width:1.06666672"
             d="M 496.23333,393.38562 H 464.2613 l -12.25875,27.89647 C 451.7011,421.27889 431.90372,419.8 431.6,419.8 c -12.08357,1.7e-4 -22.23772,1.97517 -30.46667,5.93333 -8.22936,3.85433 -17.36687,11.20016 -27.36666,22.03334 -4.89602,-9.27068 -11.19184,-16.24568 -18.9,-20.93334 -7.70849,-4.68734 -18.17099,-7.03316 -31.4,-7.03333 -12.29179,1.7e-4 -22.81679,2.12933 -31.56667,6.4 -8.64593,4.271 -17.22509,11.46266 -25.76667,21.56667 v -24.2 h -59.4 V 589.5 H 270.5 v -84.7 c -9e-5,-12.60406 2.34575,-21.67906 7.03333,-27.2 4.68741,-5.52071 10.67489,-8.26655 17.96667,-8.26667 4.47905,1.2e-4 8.39988,1.29595 11.73333,3.9 3.33322,2.50011 5.64571,5.83344 7,10 0.83321,2.60427 1.26654,7.54177 1.26667,14.83334 V 589.5 h 68 v -85.63333 c -1.9e-4,-11.97908 2.31648,-20.68322 6.9,-26.1 4.58314,-5.41655 11.48978,-8.37057 18.1,-8.13334 6.04126,0.21682 12.23171,3.84669 15.96667,8.6 3.5616,4.53269 4.36643,9.23343 4.36666,16.73334 v 49.93128 c 0,21.48121 3.56186,44.39484 24.9,44.39484 h 66.01103 c 6.27419,-0.77389 8.66505,-4.53496 11.18101,-8.19979 l -13.94979,-29.30095 c -4.42566,0.81385 -8.01338,2.18016 -11.67609,0.83482 -3.08136,-1.13181 -4.94959,-3.35182 -7.03282,-6.89354 -1.35426,-2.29161 -2.03343,-6.94994 -2.03334,-14.03333 v -58.93333 h 35 v -48.53334 h -35 z"
             id="path3217-2"
             inkscape:connector-curvature="0"
             sodipodi:nodetypes="ccccccccccccccssccccccccaaccccccaccccccc" />
        </g>
        <text
           xml:space="preserve"
           style="font-style:normal;font-variant:normal;font-weight:bold;font-stretch:normal;font-size:46.58064651px;line-height:100%;font-family:Arial;-inkscape-font-specification:'Arial Bold';text-align:center;letter-spacing:0px;word-spacing:0px;writing-mode:lr-tb;text-anchor:middle;fill:#013e5a;fill-opacity:1;stroke:none;stroke-width:1.06666672"
           x="367.98068"
           y="639.94196"
           id="text3205-9"><tspan
             sodipodi:role="line"
             id="tspan3207-3"
             x="367.98068"
             y="639.94196"
             style="stroke-width:1.06666672">MIGUELTURRA</tspan></text>
        <text
           xml:space="preserve"
           style="font-style:normal;font-variant:normal;font-weight:bold;font-stretch:normal;font-size:34.56880188px;line-height:100%;font-family:Arial;-inkscape-font-specification:'Arial Bold';text-align:center;letter-spacing:0px;word-spacing:0px;writing-mode:lr-tb;text-anchor:middle;fill:#013e5a;fill-opacity:1;stroke:none;stroke-width:1.06666672"
           x="426.48074"
           y="670.10028"
           id="text3209-1"><tspan
             sodipodi:role="line"
             id="tspan3211-6"
             x="426.48074"
             y="670.10028"
             style="stroke-width:1.06666672">ayuntamiento</tspan></text>
        <text
           id="text41593"
           y="706.04205"
           x="458.26865"
           style="font-style:normal;font-variant:normal;font-weight:normal;font-stretch:normal;font-size:32.41380692px;line-height:100%;font-family:'Arial Black';-inkscape-font-specification:'Arial Black,';text-align:center;letter-spacing:0px;word-spacing:0px;writing-mode:lr-tb;text-anchor:middle;fill:#a40000;fill-opacity:1;stroke:none;stroke-width:1.06666672"
           xml:space="preserve"><tspan
             style="font-style:normal;font-variant:normal;font-weight:normal;font-stretch:normal;font-size:32.41380692px;line-height:100%;font-family:'Arial Black';-inkscape-font-specification:'Arial Black,';text-align:center;writing-mode:lr-tb;text-anchor:middle;fill:#a40000;stroke-width:1.06666672"
             y="706.04205"
             x="458.26865"
             id="tspan41595"
             sodipodi:role="line">Deportes</tspan></text>
      </g>
    </g>
    <flowRoot
       xml:space="preserve"
       id="flowRoot3820"
       style="font-style:normal;font-variant:normal;font-weight:bold;font-stretch:normal;font-size:20.09365654px;line-height:100%;font-family:Impact;-inkscape-font-specification:'Impact Bold';text-align:center;letter-spacing:0px;word-spacing:0px;writing-mode:lr-tb;text-anchor:middle;fill:#000000;fill-opacity:1;stroke:none;stroke-width:0.35881528"><flowRegion
         id="flowRegion3822"
         style="stroke-width:0.35881528"><rect
           id="rect3824"
           width="126.9109"
           height="27.660069"
           x="1091.7416"
           y="948.80273"
           style="stroke-width:0.12874842" /></flowRegion><flowPara
         id="flowPara3826"
         style="stroke-width:0.35881528" /></flowRoot>  </g>
</svg>
