<?xml version="1.0" encoding="UTF-8" standalone="no"?>
<svg
   xmlns:dc="http://purl.org/dc/elements/1.1/"
   xmlns:cc="http://creativecommons.org/ns#"
   xmlns:rdf="http://www.w3.org/1999/02/22-rdf-syntax-ns#"
   xmlns:svg="http://www.w3.org/2000/svg"
   xmlns="http://www.w3.org/2000/svg"
   xmlns:sodipodi="http://sodipodi.sourceforge.net/DTD/sodipodi-0.dtd"
   xmlns:inkscape="http://www.inkscape.org/namespaces/inkscape"
   width="120mm"
   height="120mm"
   viewBox="0 0 120 120"
   version="1.1"
   id="svg8"
   inkscape:version="1.0.2 (e86c870879, 2021-01-15)"
   sodipodi:docname="logo-uclm.svg">
  <defs
     id="defs2">
    <inkscape:perspective
       sodipodi:type="inkscape:persp3d"
       inkscape:vp_x="0 : 349.18108 : 1"
       inkscape:vp_y="0 : 999.99998 : 0"
       inkscape:vp_z="744.0945 : 349.18108 : 1"
       inkscape:persp3d-origin="372.04725 : 173.78738 : 1"
       id="perspective2648" />
    <inkscape:perspective
       id="perspective3224"
       inkscape:persp3d-origin="245.17501 : -129.9625 : 1"
       inkscape:vp_z="490.35002 : -106.44375 : 1"
       inkscape:vp_y="0 : 999.99998 : 0"
       inkscape:vp_x="0 : -106.44375 : 1"
       sodipodi:type="inkscape:persp3d" />
  </defs>
  <sodipodi:namedview
     id="base"
     pagecolor="#ffffff"
     bordercolor="#666666"
     borderopacity="1.0"
     inkscape:pageopacity="0.0"
     inkscape:pageshadow="2"
     inkscape:zoom="0.54697167"
     inkscape:cx="355.71853"
     inkscape:cy="153.51763"
     inkscape:document-units="mm"
     inkscape:current-layer="layer1"
     inkscape:document-rotation="0"
     showgrid="false"
     fit-margin-top="0"
     fit-margin-left="0"
     fit-margin-right="0"
     fit-margin-bottom="0"
     inkscape:window-width="1920"
     inkscape:window-height="1011"
     inkscape:window-x="0"
     inkscape:window-y="32"
     inkscape:window-maximized="1" />
  <metadata
     id="metadata5">
    <rdf:RDF>
      <cc:Work
         rdf:about="">
        <dc:format>image/svg+xml</dc:format>
        <dc:type
           rdf:resource="http://purl.org/dc/dcmitype/StillImage" />
        <dc:title></dc:title>
      </cc:Work>
    </rdf:RDF>
  </metadata>
  <g
     inkscape:label="Layer 1"
     inkscape:groupmode="layer"
     id="layer1"
     transform="translate(171.55829,-124.73431)">
    <polygon
       transform="matrix(1.4111167,0,0,-1.1288274,-172.32448,215.79258)"
       points="0.54297,0.9375 85.582,0.9375 85.582,54.09 0.54297,54.09 "
       id="polygon9"
       style="font-style:normal;font-variant:normal;font-weight:normal;font-stretch:normal;letter-spacing:normal;word-spacing:normal;text-anchor:start;fill:#b80040;fill-opacity:1;fill-rule:nonzero;stroke:#b80040;stroke-width:0;stroke-linecap:butt;stroke-linejoin:miter;stroke-miterlimit:10.433;stroke-dasharray:none;stroke-dashoffset:0;stroke-opacity:1" />
    <g
       id="g1511"
       transform="translate(-10.538288,16.083995)">
      <path
         id="polygon67"
         d="m -119.35277,175.89403 -1.12439,2.85422 h 0.64869 l 0.25948,-0.69193 h 0.90816 l 0.21623,0.69193 h 0.90816 l -1.08115,-2.85422 z m 0.25948,0.82167 0.30272,0.86492 h -0.60544 z"
         style="font-style:normal;font-variant:normal;font-weight:normal;font-stretch:normal;letter-spacing:normal;word-spacing:normal;text-anchor:start;fill:#ffffff;fill-opacity:1;stroke:#ffffff;stroke-width:0;stroke-linecap:butt;stroke-linejoin:miter;stroke-miterlimit:10.433;stroke-dasharray:none;stroke-dashoffset:0;stroke-opacity:1" />
      <path
         id="polygon13"
         d="m -60.821541,175.88688 -1.157063,2.84963 h 0.677678 l 0.253469,-0.70527 h 0.903538 l 0.225889,0.70527 h 0.902542 l -1.099771,-2.84963 z m 0.254506,0.81765 0.282087,0.90355 h -0.62148 z"
         style="font-style:normal;font-variant:normal;font-weight:normal;font-stretch:normal;letter-spacing:normal;word-spacing:normal;text-anchor:start;fill:#ffffff;fill-opacity:1;stroke:#ffffff;stroke-width:0;stroke-linecap:butt;stroke-linejoin:miter;stroke-miterlimit:10.433;stroke-dasharray:none;stroke-dashoffset:0;stroke-opacity:1" />
      <polygon
         transform="matrix(1.1288274,0,0,-1.1288274,-149.63226,185.79259)"
         points="75.688,7.8906 76.492,7.8906 76.492,8.7773 77.246,8.7773 77.246,6.2578 76.492,6.2578 76.492,7.4102 75.688,7.4102 75.688,6.2578 74.934,6.2578 74.934,8.7773 75.688,8.7773 "
         id="polygon15"
         style="font-style:normal;font-variant:normal;font-weight:normal;font-stretch:normal;letter-spacing:normal;word-spacing:normal;text-anchor:start;fill:#ffffff;fill-opacity:1;stroke:#ffffff;stroke-width:0;stroke-linecap:butt;stroke-linejoin:miter;stroke-miterlimit:10.433;stroke-dasharray:none;stroke-dashoffset:0;stroke-opacity:1" />
      <path
         d="m -65.503804,178.65274 -0.04456,0.0148 -0.04248,0.0138 -0.04456,0.0125 -0.04345,0.0111 -0.04456,0.0111 -0.04345,0.0111 -0.04456,0.01 -0.04456,0.008 -0.04456,0.007 -0.04567,0.007 -0.04345,0.006 -0.04567,0.004 -0.04567,0.003 -0.04553,0.003 -0.04664,0.001 -0.04456,0.001 c -0.49422,0 -0.89936,-0.13686 -1.218576,-0.40193 -0.311784,-0.27255 -0.466638,-0.62995 -0.466638,-1.07115 0,-0.42313 0.154854,-0.77207 0.459221,-1.04886 0.308643,-0.27786 0.701038,-0.41892 1.177212,-0.41892 0.255585,0 0.506909,0.0477 0.762522,0.14106 l -0.211066,0.51121 c -0.154841,-0.0393 -0.287401,-0.0573 -0.40193,-0.0573 -0.273631,0 -0.49314,0.0796 -0.657515,0.23752 -0.158037,0.15908 -0.24183,0.37545 -0.24183,0.63951 0,0.25134 0.07528,0.45924 0.224864,0.61299 0.16223,0.17605 0.39238,0.25983 0.687226,0.25983 0.141016,0 0.28736,-0.0212 0.442214,-0.0614 z"
         id="path17"
         style="font-style:normal;font-variant:normal;font-weight:normal;font-stretch:normal;letter-spacing:normal;word-spacing:normal;text-anchor:start;fill:#ffffff;fill-opacity:1;stroke:#ffffff;stroke-width:0;stroke-linecap:butt;stroke-linejoin:miter;stroke-miterlimit:10.433;stroke-dasharray:none;stroke-dashoffset:0;stroke-opacity:1" />
      <polygon
         transform="matrix(1.1288274,0,0,-1.1288274,-149.63226,185.79259)"
         points="71.992,6.2578 71.516,6.2578 70.375,7.6836 70.375,6.2578 69.781,6.2578 69.781,8.7773 70.309,8.7773 71.402,7.3789 71.402,8.7773 71.992,8.7773 "
         id="polygon19"
         style="font-style:normal;font-variant:normal;font-weight:normal;font-stretch:normal;letter-spacing:normal;word-spacing:normal;text-anchor:start;fill:#ffffff;fill-opacity:1;stroke:#ffffff;stroke-width:0;stroke-linecap:butt;stroke-linejoin:miter;stroke-miterlimit:10.433;stroke-dasharray:none;stroke-dashoffset:0;stroke-opacity:1" />
      <path
         id="polygon23"
         d="m -73.123059,175.89403 -1.167635,2.85422 h 0.691932 l 0.259475,-0.69193 h 0.90816 l 0.216229,0.69193 h 0.908161 l -1.081144,-2.85422 z m 0.259475,0.82167 0.30272,0.86492 h -0.605441 z"
         style="font-style:normal;font-variant:normal;font-weight:normal;font-stretch:normal;letter-spacing:normal;word-spacing:normal;text-anchor:start;fill:#ffffff;fill-opacity:1;stroke:#ffffff;stroke-width:0;stroke-linecap:butt;stroke-linejoin:miter;stroke-miterlimit:10.433;stroke-dasharray:none;stroke-dashoffset:0;stroke-opacity:1" />
      <path
         d="m -74.729375,178.72802 h -0.810266 v -1.43277 c 0,-0.10601 0.0042,-0.29591 0.01246,-0.5642 -0.0393,0.16756 -0.100745,0.35208 -0.171793,0.5642 l -0.497388,1.43277 h -0.358463 l -0.511171,-1.43277 c -0.053,-0.15484 -0.109187,-0.34363 -0.171821,-0.56952 0.0097,0.19832 0.01702,0.38816 0.01702,0.56952 v 1.43277 h -0.669182 v -2.84434 h 1.00964 l 0.596016,1.74245 0.576919,-1.74245 h 0.977811 z"
         id="path25"
         style="font-style:normal;font-variant:normal;font-weight:normal;font-stretch:normal;letter-spacing:normal;word-spacing:normal;text-anchor:start;fill:#ffffff;fill-opacity:1;stroke:#ffffff;stroke-width:0;stroke-linecap:butt;stroke-linejoin:miter;stroke-miterlimit:10.433;stroke-dasharray:none;stroke-dashoffset:0;stroke-opacity:1" />
      <path
         id="polygon29"
         d="m -80.820802,175.89403 -1.12439,2.85422 h 0.648686 l 0.259475,-0.69193 h 0.908161 l 0.216228,0.69193 h 0.908161 l -1.081144,-2.85422 z m 0.259474,0.82167 0.30272,0.86492 h -0.60544 z"
         style="font-style:normal;font-variant:normal;font-weight:normal;font-stretch:normal;letter-spacing:normal;word-spacing:normal;text-anchor:start;fill:#ffffff;fill-opacity:1;stroke:#ffffff;stroke-width:0;stroke-linecap:butt;stroke-linejoin:miter;stroke-miterlimit:10.433;stroke-dasharray:none;stroke-dashoffset:0;stroke-opacity:1" />
      <polygon
         transform="matrix(1.1288274,0,0,-1.1288274,-149.63226,185.79259)"
         points="58.047,8.7773 58.805,8.7773 58.805,6.7383 59.727,6.7383 59.727,6.2578 58.047,6.2578 "
         id="polygon31"
         style="font-style:normal;font-variant:normal;font-weight:normal;font-stretch:normal;letter-spacing:normal;word-spacing:normal;text-anchor:start;fill:#ffffff;fill-opacity:1;stroke:#ffffff;stroke-width:0;stroke-linecap:butt;stroke-linejoin:miter;stroke-miterlimit:10.433;stroke-dasharray:none;stroke-dashoffset:0;stroke-opacity:1" />
      <path
         d="m -84.689888,176.98665 -0.0028,0.0201 -0.0028,0.0202 -0.0028,0.0202 -0.0055,0.0202 -0.0042,0.0202 -0.0042,0.0191 -0.0055,0.0191 -0.0055,0.0191 -0.0055,0.018 -0.0055,0.0191 -0.0069,0.0181 -0.0055,0.018 -0.0083,0.0169 -0.0069,0.018 -0.0069,0.017 -0.0083,0.0159 c -0.101853,0.22589 -0.251366,0.33511 -0.453922,0.33511 -0.08372,0 -0.207842,-0.0393 -0.3701,-0.12302 -0.119843,-0.0614 -0.207884,-0.088 -0.265162,-0.088 -0.123026,0 -0.211026,0.07 -0.264069,0.21105 h -0.233334 c 0.02975,-0.14106 0.06158,-0.24607 0.09646,-0.31287 0.0923,-0.20255 0.238633,-0.30436 0.427392,-0.30436 0.07528,0 0.181356,0.0361 0.318164,0.11029 0.135757,0.0668 0.237582,0.10185 0.30755,0.10185 0.145306,0 0.242868,-0.0753 0.295884,-0.22904 z"
         id="path33"
         style="font-style:normal;font-variant:normal;font-weight:normal;font-stretch:normal;letter-spacing:normal;word-spacing:normal;text-anchor:start;fill:#ffffff;fill-opacity:1;stroke:#ffffff;stroke-width:0;stroke-linecap:butt;stroke-linejoin:miter;stroke-miterlimit:10.433;stroke-dasharray:none;stroke-dashoffset:0;stroke-opacity:1" />
      <path
         id="polygon37"
         d="m -88.388809,175.89403 -1.167635,2.85422 h 0.648686 l 0.302721,-0.69193 h 0.864915 l 0.216228,0.69193 h 0.908161 l -1.081144,-2.85422 z m 0.216229,0.82167 0.30272,0.86492 h -0.60544 z"
         style="font-style:normal;font-variant:normal;font-weight:normal;font-stretch:normal;letter-spacing:normal;word-spacing:normal;text-anchor:start;fill:#ffffff;fill-opacity:1;stroke:#ffffff;stroke-width:0;stroke-linecap:butt;stroke-linejoin:miter;stroke-miterlimit:10.433;stroke-dasharray:none;stroke-dashoffset:0;stroke-opacity:1" />
      <polygon
         transform="matrix(1.1288274,0,0,-1.1288274,-149.63226,185.79259)"
         points="51.32,8.7773 52.074,8.7773 52.074,6.7383 53,6.7383 53,6.2578 51.32,6.2578 "
         id="polygon39"
         style="font-style:normal;font-variant:normal;font-weight:normal;font-stretch:normal;letter-spacing:normal;word-spacing:normal;text-anchor:start;fill:#ffffff;fill-opacity:1;stroke:#ffffff;stroke-width:0;stroke-linecap:butt;stroke-linejoin:miter;stroke-miterlimit:10.433;stroke-dasharray:none;stroke-dashoffset:0;stroke-opacity:1" />
      <polygon
         transform="matrix(1.1288274,0,0,-1.1288274,-149.63226,185.79259)"
         points="49.336,8.7773 50.09,8.7773 50.09,6.7383 51.016,6.7383 51.016,6.2578 49.336,6.2578 "
         id="polygon41"
         style="font-style:normal;font-variant:normal;font-weight:normal;font-stretch:normal;letter-spacing:normal;word-spacing:normal;text-anchor:start;fill:#ffffff;fill-opacity:1;stroke:#ffffff;stroke-width:0;stroke-linecap:butt;stroke-linejoin:miter;stroke-miterlimit:10.433;stroke-dasharray:none;stroke-dashoffset:0;stroke-opacity:1" />
      <polygon
         transform="matrix(1.1288274,0,0,-1.1288274,-149.63226,185.79259)"
         points="48.004,6.2578 48.758,6.2578 48.758,8.7773 48.004,8.7773 "
         id="polygon43"
         style="font-style:normal;font-variant:normal;font-weight:normal;font-stretch:normal;letter-spacing:normal;word-spacing:normal;text-anchor:start;fill:#ffffff;fill-opacity:1;stroke:#ffffff;stroke-width:0;stroke-linecap:butt;stroke-linejoin:miter;stroke-miterlimit:10.433;stroke-dasharray:none;stroke-dashoffset:0;stroke-opacity:1" />
      <polygon
         transform="matrix(1.1288274,0,0,-1.1288274,-149.63226,185.79259)"
         points="46.215,8.2969 45.492,8.2969 45.492,8.7773 47.703,8.7773 47.703,8.2969 46.969,8.2969 46.969,6.2578 46.215,6.2578 "
         id="polygon45"
         style="font-style:normal;font-variant:normal;font-weight:normal;font-stretch:normal;letter-spacing:normal;word-spacing:normal;text-anchor:start;fill:#ffffff;fill-opacity:1;stroke:#ffffff;stroke-width:0;stroke-linecap:butt;stroke-linejoin:miter;stroke-miterlimit:10.433;stroke-dasharray:none;stroke-dashoffset:0;stroke-opacity:1" />
      <path
         d="m -98.583924,177.93473 -0.001,0.0234 v 0.0234 l -0.0028,0.0223 -0.0028,0.0223 -0.0028,0.0223 -0.0028,0.0223 -0.0028,0.0223 -0.0055,0.0212 -0.0055,0.0212 -0.0055,0.0202 -0.0069,0.0212 -0.0069,0.0202 -0.0069,0.0201 -0.0083,0.0191 -0.0083,0.0201 -0.0097,0.0191 -0.0083,0.0191 -0.01107,0.0181 -0.01107,0.018 -0.01107,0.018 -0.01107,0.018 -0.01384,0.018 -0.01384,0.017 -0.01245,0.0169 -0.01481,0.0159 -0.01481,0.017 -0.01591,0.0159 -0.01702,0.0159 -0.01702,0.0148 -0.01702,0.0159 -0.01799,0.0148 -0.0191,0.0138 c -0.202542,0.15482 -0.467677,0.23435 -0.793258,0.23435 -0.335128,0 -0.634188,-0.088 -0.895108,-0.26513 l 0.25561,-0.47191 c 0.16332,0.13686 0.334079,0.20362 0.516486,0.20362 0.100745,0 0.184511,-0.0266 0.254507,-0.0753 0.07099,-0.053 0.106004,-0.11874 0.106004,-0.19831 0,-0.0796 -0.02975,-0.15906 -0.100746,-0.24285 -0.04456,-0.053 -0.150592,-0.15375 -0.31285,-0.30014 -0.09756,-0.088 -0.224821,-0.20254 -0.383901,-0.34361 -0.14107,-0.15376 -0.21212,-0.32133 -0.21212,-0.50269 0,-0.22482 0.0923,-0.40511 0.27787,-0.54191 0.181356,-0.13257 0.42421,-0.20259 0.727512,-0.20259 0.260886,0 0.511158,0.0657 0.749805,0.18876 l -0.229085,0.44967 c -0.145278,-0.0699 -0.277824,-0.10504 -0.383884,-0.10504 -0.180317,0 -0.268345,0.0573 -0.268345,0.17606 0,0.0487 0.01702,0.0923 0.053,0.14106 0.0393,0.0446 0.117767,0.11873 0.242882,0.22482 0.144227,0.12302 0.289518,0.2598 0.426313,0.40619 0.18137,0.19409 0.273604,0.39664 0.273604,0.61722 z"
         id="path47"
         style="font-style:normal;font-variant:normal;font-weight:normal;font-stretch:normal;letter-spacing:normal;word-spacing:normal;text-anchor:start;fill:#ffffff;fill-opacity:1;stroke:#ffffff;stroke-width:0;stroke-linecap:butt;stroke-linejoin:miter;stroke-miterlimit:10.433;stroke-dasharray:none;stroke-dashoffset:0;stroke-opacity:1" />
      <path
         id="polygon51"
         d="m -102.53017,175.89403 -1.12439,2.85422 h 0.64869 l 0.30272,-0.69193 h 0.86491 l 0.21623,0.69193 h 0.90816 l -1.08114,-2.85422 z m 0.25948,0.82167 0.30272,0.86492 h -0.60544 z"
         style="font-style:normal;font-variant:normal;font-weight:normal;font-stretch:normal;letter-spacing:normal;word-spacing:normal;text-anchor:start;fill:#ffffff;fill-opacity:1;stroke:#ffffff;stroke-width:0;stroke-linecap:butt;stroke-linejoin:miter;stroke-miterlimit:10.433;stroke-dasharray:none;stroke-dashoffset:0;stroke-opacity:1" />
      <path
         d="m -103.95444,178.65274 -0.0434,0.0148 -0.0446,0.0138 -0.0434,0.0125 -0.0446,0.0111 -0.0435,0.0111 -0.0436,0.0111 -0.0446,0.01 -0.0446,0.008 -0.0446,0.007 -0.0434,0.007 -0.0457,0.006 -0.0435,0.004 -0.0457,0.003 -0.0446,0.003 -0.0457,0.001 -0.0446,0.001 c -0.49846,0 -0.90462,-0.13686 -1.22173,-0.40193 -0.31288,-0.27255 -0.46768,-0.62995 -0.46768,-1.07115 0,-0.42313 0.1548,-0.77207 0.46344,-1.04886 0.30437,-0.27786 0.6957,-0.41892 1.17295,-0.41892 0.2556,0 0.50587,0.0477 0.76251,0.14106 l -0.21208,0.51121 c -0.1538,-0.0393 -0.28639,-0.0573 -0.4009,-0.0573 -0.27257,0 -0.49422,0.0796 -0.65649,0.23752 -0.15906,0.15908 -0.24284,0.37545 -0.24284,0.63951 0,0.25134 0.0743,0.45924 0.22485,0.61299 0.16331,0.17605 0.39239,0.25983 0.68824,0.25983 0.14108,0 0.28639,-0.0212 0.44013,-0.0614 z"
         id="path53"
         style="font-style:normal;font-variant:normal;font-weight:normal;font-stretch:normal;letter-spacing:normal;word-spacing:normal;text-anchor:start;fill:#ffffff;fill-opacity:1;stroke:#ffffff;stroke-width:0;stroke-linecap:butt;stroke-linejoin:miter;stroke-miterlimit:10.433;stroke-dasharray:none;stroke-dashoffset:0;stroke-opacity:1" />
      <polygon
         transform="matrix(1.1288274,0,0,-1.1288274,-149.63226,185.79259)"
         points="36.883,7.3359 36.121,7.3359 36.121,6.7383 37.051,6.7383 37.051,6.2578 35.367,6.2578 35.367,8.7773 36.898,8.7773 36.898,8.2969 36.121,8.2969 36.121,7.8164 36.883,7.8164 "
         id="polygon55"
         style="font-style:normal;font-variant:normal;font-weight:normal;font-stretch:normal;letter-spacing:normal;word-spacing:normal;text-anchor:start;fill:#ffffff;fill-opacity:1;stroke:#ffffff;stroke-width:0;stroke-linecap:butt;stroke-linejoin:miter;stroke-miterlimit:10.433;stroke-dasharray:none;stroke-dashoffset:0;stroke-opacity:1" />
      <path
         id="path59"
         d="m -112.90915,175.89403 v 2.85422 h 0.95141 c 0.47617,0 0.85074,-0.12561 1.12439,-0.30272 l 0.0432,-0.0432 0.0433,-0.0433 h 0.0432 l 0.0433,-0.0433 v -0.0432 h 0.0433 l 0.0432,-0.0433 v -0.0432 l 0.0433,-0.0433 h 0.0432 v -0.0432 l 0.0433,-0.0433 v -0.0433 l 0.0432,-0.0432 v -0.0433 h 0.0432 v -0.0432 -0.0433 l 0.0433,-0.0432 v -0.0433 -0.0433 l 0.0432,-0.0432 v -0.0433 -0.0432 -0.0433 -0.0433 l 0.0433,-0.0432 v -0.0865 -0.0432 -0.0432 -0.0433 c 0,-0.34891 -0.10547,-0.63581 -0.30272,-0.86491 -0.19939,-0.23435 -0.46324,-0.37097 -0.82167,-0.43246 -0.13154,-0.0265 -0.33902,-0.0433 -0.64869,-0.0433 z m 0.86492,0.51895 h 0.12973 c 0.20789,0 0.36114,0.0544 0.47571,0.12974 h 0.0432 v 0.0432 h 0.0433 v 0.0433 h 0.0432 v 0.0433 h 0.0433 v 0.0432 l 0.0433,0.0433 v 0.0432 l 0.0432,0.0433 v 0.0432 0.0433 0.0433 h 0.0433 v 0.0432 0.0433 0.0432 0.0433 0.0432 0.0433 c 0,0.33512 -0.0572,0.61507 -0.21623,0.77842 -0.11874,0.12299 -0.30553,0.17299 -0.5622,0.17299 h -0.12973 z"
         style="font-style:normal;font-variant:normal;font-weight:normal;font-stretch:normal;letter-spacing:normal;word-spacing:normal;text-anchor:start;fill:#ffffff;fill-opacity:1;stroke:#ffffff;stroke-width:0;stroke-linecap:butt;stroke-linejoin:miter;stroke-miterlimit:10.433;stroke-dasharray:none;stroke-dashoffset:0;stroke-opacity:1" />
      <path
         id="path63"
         d="m -117.19048,175.89403 v 2.85422 h 0.95141 c 0.47616,0 0.81179,-0.12561 1.08114,-0.30272 h 0.0432 l 0.0432,-0.0432 0.0433,-0.0433 h 0.0433 l 0.0432,-0.0433 v -0.0432 h 0.0433 l 0.0432,-0.0433 v -0.0432 l 0.0433,-0.0433 h 0.0432 v -0.0432 l 0.0433,-0.0433 v -0.0433 l 0.0433,-0.0432 v -0.0433 h 0.0432 v -0.0432 -0.0433 l 0.0433,-0.0432 v -0.0433 -0.0433 l 0.0432,-0.0432 v -0.0433 -0.0432 -0.0433 -0.0433 -0.0432 l 0.0433,-0.0865 v -0.0432 -0.0432 -0.0433 c 0,-0.34891 -0.10336,-0.63581 -0.30272,-0.86491 -0.19834,-0.23435 -0.46423,-0.37097 -0.82167,-0.43246 -0.13256,-0.0265 -0.38647,-0.0433 -0.69193,-0.0433 z m 0.82167,0.51895 h 0.17298 c 0.20787,0 0.36115,0.0544 0.47571,0.12974 h 0.0432 v 0.0432 h 0.0433 v 0.0433 h 0.0432 v 0.0433 h 0.0433 v 0.0432 l 0.0433,0.0433 v 0.0432 0.0433 h 0.0432 v 0.0432 0.0433 0.0433 l 0.0433,0.0432 v 0.0433 0.0432 0.0433 0.0432 0.0433 c 0,0.33512 -0.0582,0.61507 -0.21623,0.77842 -0.11984,0.12299 -0.34564,0.17299 -0.60544,0.17299 h -0.12974 z"
         style="font-style:normal;font-variant:normal;font-weight:normal;font-stretch:normal;letter-spacing:normal;word-spacing:normal;text-anchor:start;fill:#ffffff;fill-opacity:1;stroke:#ffffff;stroke-width:0;stroke-linecap:butt;stroke-linejoin:miter;stroke-miterlimit:10.433;stroke-dasharray:none;stroke-dashoffset:0;stroke-opacity:1" />
      <path
         id="path71"
         d="m -123.28813,175.89403 v 2.85422 h 0.95141 c 0.47195,0 0.85606,-0.12561 1.12439,-0.30272 h 0.0432 l 0.0433,-0.0432 v -0.0433 h 0.0432 l 0.0433,-0.0433 0.0433,-0.0432 0.0432,-0.0433 0.0433,-0.0432 v -0.0433 h 0.0432 v -0.0432 l 0.0433,-0.0433 0.0432,-0.0433 v -0.0432 -0.0433 h 0.0433 v -0.0432 l 0.0433,-0.0433 v -0.0432 -0.0433 l 0.0432,-0.0433 v -0.0432 -0.0433 -0.0432 l 0.0432,-0.0433 v -0.0433 -0.0432 -0.0865 -0.0432 -0.0432 -0.0433 c 0,-0.34891 -0.10335,-0.63581 -0.30272,-0.86491 -0.19832,-0.23435 -0.46533,-0.37097 -0.82167,-0.43246 -0.1315,-0.0265 -0.34539,-0.0433 -0.64869,-0.0433 z m 0.86492,0.51895 h 0.12973 c 0.20677,0 0.36119,0.0544 0.47571,0.12974 h 0.0432 l 0.0433,0.0432 v 0.0433 h 0.0432 v 0.0433 h 0.0433 v 0.0432 h 0.0433 v 0.0433 0.0432 h 0.0432 v 0.0433 0.0432 0.0433 h 0.0433 v 0.0433 0.0432 0.0433 0.0432 0.0433 0.0432 0.0433 c 0,0.33512 -0.0582,0.61507 -0.21623,0.77842 -0.11983,0.12299 -0.30235,0.17299 -0.5622,0.17299 h -0.12973 z"
         style="font-style:normal;font-variant:normal;font-weight:normal;font-stretch:normal;letter-spacing:normal;word-spacing:normal;text-anchor:start;fill:#ffffff;fill-opacity:1;stroke:#ffffff;stroke-width:0;stroke-linecap:butt;stroke-linejoin:miter;stroke-miterlimit:10.433;stroke-dasharray:none;stroke-dashoffset:0;stroke-opacity:1" />
      <polygon
         transform="matrix(1.1288274,0,0,-1.1288274,-149.63226,185.79259)"
         points="22.012,6.2578 22.766,6.2578 22.766,8.7773 22.012,8.7773 "
         id="polygon73"
         style="font-style:normal;font-variant:normal;font-weight:normal;font-stretch:normal;letter-spacing:normal;word-spacing:normal;text-anchor:start;fill:#ffffff;fill-opacity:1;stroke:#ffffff;stroke-width:0;stroke-linecap:butt;stroke-linejoin:miter;stroke-miterlimit:10.433;stroke-dasharray:none;stroke-dashoffset:0;stroke-opacity:1" />
      <path
         d="m -125.32732,177.93473 v 0.0234 l -0.001,0.0234 -10e-4,0.0223 -0.003,0.0223 -0.003,0.0223 -0.003,0.0223 -0.004,0.0223 -0.004,0.0212 -0.006,0.0212 -0.006,0.0202 -0.007,0.0212 -0.007,0.0202 -0.007,0.0201 -0.008,0.0191 -0.008,0.0201 -0.01,0.0191 -0.01,0.0191 -0.0111,0.0181 -0.0111,0.018 -0.0111,0.018 -0.0125,0.018 -0.0111,0.018 -0.0138,0.017 -0.0138,0.0169 -0.0148,0.0159 -0.0159,0.017 -0.0159,0.0159 -0.0148,0.0159 -0.017,0.0148 -0.018,0.0159 -0.0191,0.0148 -0.018,0.0138 c -0.1983,0.15482 -0.46237,0.23435 -0.79009,0.23435 -0.33408,0 -0.6342,-0.088 -0.89827,-0.26513 l 0.25984,-0.47191 c 0.16332,0.13686 0.33514,0.20362 0.51539,0.20362 0.10185,0 0.18563,-0.0266 0.25668,-0.0753 0.07,-0.053 0.10503,-0.11874 0.10503,-0.19831 0,-0.0796 -0.0307,-0.15906 -0.10074,-0.24285 -0.0435,-0.053 -0.14954,-0.15375 -0.31392,-0.30014 -0.0965,-0.088 -0.22908,-0.20254 -0.38391,-0.34361 -0.14104,-0.15376 -0.21105,-0.32133 -0.21105,-0.50269 0,-0.22482 0.0933,-0.40511 0.27786,-0.54191 0.18134,-0.13257 0.42317,-0.20259 0.72436,-0.20259 0.26404,0 0.51539,0.0657 0.75404,0.18876 l -0.2312,0.44967 c -0.14851,-0.0699 -0.27679,-0.10504 -0.38181,-0.10504 -0.18241,0 -0.27042,0.0573 -0.27042,0.17606 0,0.0487 0.018,0.0923 0.053,0.14106 0.035,0.0446 0.11984,0.11873 0.24287,0.22482 0.14529,0.12302 0.28632,0.2598 0.42739,0.40619 0.18134,0.19409 0.26937,0.39664 0.26937,0.61722 z"
         id="path75"
         style="font-style:normal;font-variant:normal;font-weight:normal;font-stretch:normal;letter-spacing:normal;word-spacing:normal;text-anchor:start;fill:#ffffff;fill-opacity:1;stroke:#ffffff;stroke-width:0;stroke-linecap:butt;stroke-linejoin:miter;stroke-miterlimit:10.433;stroke-dasharray:none;stroke-dashoffset:0;stroke-opacity:1" />
      <path
         id="path79"
         d="m -129.99122,175.89403 v 2.85422 h 0.86492 v -1.12439 h 0.21622 l 0.47571,1.16764 0.90816,-0.0865 -0.69193,-1.21089 c 0.34784,-0.17605 0.51894,-0.43373 0.51894,-0.77842 0,-0.28632 -0.0906,-0.50338 -0.30272,-0.64868 -0.11029,-0.0753 -0.26066,-0.15072 -0.43245,-0.17299 -0.0923,-0.0138 -0.22672,0 -0.43246,0 z m 0.86492,0.47571 h 0.17298 c 0.16335,0 0.28022,0.0472 0.34596,0.0865 h 0.0433 v 0.0432 l 0.0433,0.0433 v 0.0432 0.0433 h 0.0432 v 0.0433 0.0432 0.0433 c 0,0.13257 -0.0555,0.23271 -0.12974,0.30272 -0.071,0.0711 -0.16993,0.0865 -0.34596,0.0865 h -0.17298 z"
         style="font-style:normal;font-variant:normal;font-weight:normal;font-stretch:normal;letter-spacing:normal;word-spacing:normal;text-anchor:start;fill:#ffffff;fill-opacity:1;stroke:#ffffff;stroke-width:0;stroke-linecap:butt;stroke-linejoin:miter;stroke-miterlimit:10.433;stroke-dasharray:none;stroke-dashoffset:0;stroke-opacity:1" />
      <polygon
         transform="matrix(1.1288274,0,0,-1.1288274,-149.63226,185.79259)"
         points="16.805,7.3359 16.047,7.3359 16.047,6.7383 16.973,6.7383 16.973,6.2578 15.289,6.2578 15.289,8.7773 16.82,8.7773 16.82,8.2969 16.047,8.2969 16.047,7.8164 16.805,7.8164 "
         id="polygon81"
         style="font-style:normal;font-variant:normal;font-weight:normal;font-stretch:normal;letter-spacing:normal;word-spacing:normal;text-anchor:start;fill:#ffffff;fill-opacity:1;stroke:#ffffff;stroke-width:0;stroke-linecap:butt;stroke-linejoin:miter;stroke-miterlimit:10.433;stroke-dasharray:none;stroke-dashoffset:0;stroke-opacity:1" />
      <polygon
         transform="matrix(1.1288274,0,0,-1.1288274,-149.63226,185.79259)"
         points="14.348,8.8125 14.996,8.7422 14.023,6.2578 13.312,6.2578 12.418,8.7227 13.207,8.8125 13.758,7.0234 "
         id="polygon83"
         style="font-style:normal;font-variant:normal;font-weight:normal;font-stretch:normal;letter-spacing:normal;word-spacing:normal;text-anchor:start;fill:#ffffff;fill-opacity:1;stroke:#ffffff;stroke-width:0;stroke-linecap:butt;stroke-linejoin:miter;stroke-miterlimit:10.433;stroke-dasharray:none;stroke-dashoffset:0;stroke-opacity:1" />
      <polygon
         transform="matrix(1.1288274,0,0,-1.1288274,-149.63226,185.79259)"
         points="11.367,6.2578 12.121,6.2578 12.121,8.7773 11.367,8.7773 "
         id="polygon85"
         style="font-style:normal;font-variant:normal;font-weight:normal;font-stretch:normal;letter-spacing:normal;word-spacing:normal;text-anchor:start;fill:#ffffff;fill-opacity:1;stroke:#ffffff;stroke-width:0;stroke-linecap:butt;stroke-linejoin:miter;stroke-miterlimit:10.433;stroke-dasharray:none;stroke-dashoffset:0;stroke-opacity:1" />
      <polygon
         transform="matrix(1.1288274,0,0,-1.1288274,-149.63226,185.79259)"
         points="10.793,6.2578 10.312,6.2578 9.1719,7.6836 9.1719,6.2578 8.5781,6.2578 8.5781,8.7773 9.1055,8.7773 10.199,7.3789 10.199,8.7773 10.793,8.7773 "
         id="polygon87"
         style="font-style:normal;font-variant:normal;font-weight:normal;font-stretch:normal;letter-spacing:normal;word-spacing:normal;text-anchor:start;fill:#ffffff;fill-opacity:1;stroke:#ffffff;stroke-width:0;stroke-linecap:butt;stroke-linejoin:miter;stroke-miterlimit:10.433;stroke-dasharray:none;stroke-dashoffset:0;stroke-opacity:1" />
      <path
         d="m -140.54485,177.44901 v 0.0562 l -0.001,0.0541 -0.001,0.053 -0.003,0.0498 -0.003,0.0489 -0.003,0.0466 -0.004,0.0446 -0.003,0.0223 -0.003,0.0213 -0.003,0.0212 -0.003,0.0202 -0.003,0.0191 -0.003,0.0191 -0.003,0.0191 -0.003,0.018 -0.004,0.018 -0.003,0.018 -0.004,0.017 -0.004,0.0159 -0.004,0.0159 -0.006,0.0159 -0.004,0.0148 -0.006,0.0138 -0.006,0.0148 -0.006,0.0125 c -0.17181,0.43692 -0.55997,0.65753 -1.16339,0.65753 -0.49423,0 -0.84739,-0.15057 -1.0542,-0.44968 -0.0839,-0.11984 -0.13672,-0.26937 -0.15907,-0.44117 -0.008,-0.0837 -0.017,-0.24287 -0.017,-0.47196 v -1.53031 h 0.85052 v 1.38928 c 0,0.34787 0.0223,0.57272 0.0668,0.67872 0.0616,0.15485 0.18031,0.2291 0.35211,0.2291 0.22481,0 0.36588,-0.10919 0.42843,-0.3351 0.0307,-0.10504 0.0435,-0.30333 0.0435,-0.595 v -1.367 h 0.73602 z"
         id="path89"
         style="font-style:normal;font-variant:normal;font-weight:normal;font-stretch:normal;letter-spacing:normal;word-spacing:normal;text-anchor:start;fill:#ffffff;fill-opacity:1;stroke:#ffffff;stroke-width:0;stroke-linecap:butt;stroke-linejoin:miter;stroke-miterlimit:10.433;stroke-dasharray:none;stroke-dashoffset:0;stroke-opacity:1" />
      <path
         id="path97"
         d="m -126.61805,158.72547 v 6.48686 2.81098 c 0,0.48572 0.0768,1.1168 0.30272,1.72983 0.19299,0.5377 0.47414,1.04 0.95141,1.42711 1.3617,1.11247 3.43502,1.34062 5.83817,1.34061 2.22182,0 4.29228,-0.22244 5.5787,-1.21088 0.52918,-0.40514 0.87012,-0.96506 1.08115,-1.55684 0.21636,-0.59922 0.30272,-1.24915 0.30272,-1.77308 v -2.76773 -6.48686 h -4.49756 v 6.48686 1.29737 c 0,0.44649 -0.11229,1.4157 -0.60544,1.77308 -0.55995,0.40511 -1.18249,0.43246 -1.94606,0.43246 -0.8463,0 -1.53967,-0.0245 -1.9893,-0.5622 -0.41044,-0.48463 -0.51895,-1.03189 -0.51895,-1.55684 v -1.38387 -6.48686 z m 0.86491,0.86491 h 2.72449 v 5.62195 1.21088 c 0,0.90786 0.30813,1.68195 0.4757,1.94606 0.62148,0.98416 1.70496,1.21088 2.98396,1.21088 1.05734,0 1.92871,-0.10923 2.59474,-0.77842 0.63421,-0.64055 0.77842,-1.74317 0.77842,-2.20553 v -1.38387 -5.62195 h 2.76773 v 5.62195 2.85422 c 0,0.54725 -0.0957,1.16689 -0.34596,1.68659 -0.16759,0.34041 -0.41808,0.63265 -0.73518,0.86491 -1.28324,0.94388 -3.04875,1.0379 -5.103,1.0379 -2.01502,0 -3.55873,-0.0831 -4.93002,-0.90816 l -0.0432,-0.0433 h -0.0433 l -0.0432,-0.0432 -0.0433,-0.0433 -0.0432,-0.0433 -0.0865,-0.0432 -0.0432,-0.0433 -0.0433,-0.0865 -0.0865,-0.0432 -0.0432,-0.0433 -0.0433,-0.0865 -0.0433,-0.0433 -0.0432,-0.0865 -0.0433,-0.0865 -0.0432,-0.0433 -0.0433,-0.0865 -0.0432,-0.0432 -0.0433,-0.0865 c -0.26411,-0.57374 -0.34597,-1.23692 -0.34597,-1.68659 v -2.85422 z"
         style="font-style:normal;font-variant:normal;font-weight:normal;font-stretch:normal;letter-spacing:normal;word-spacing:normal;text-anchor:start;fill:#ffffff;fill-opacity:1;stroke:#ffffff;stroke-width:0;stroke-linecap:butt;stroke-linejoin:miter;stroke-miterlimit:10.433;stroke-dasharray:none;stroke-dashoffset:0;stroke-opacity:1" />
      <path
         id="path99"
         d="m -102.48692,158.50924 -0.25948,0.0433 h -0.30272 l -0.25947,0.0432 -0.34597,0.0433 -0.30272,0.0432 -0.34596,0.0865 -0.30272,0.0865 -0.34597,0.0865 -0.34597,0.0865 -0.34596,0.12974 -0.34597,0.12973 -0.34596,0.17299 -0.30273,0.17298 -0.34596,0.17298 -0.30272,0.21623 -0.30272,0.25948 -0.30272,0.25947 -0.30272,0.25948 -0.12974,0.17298 -0.12974,0.17298 -0.12973,0.12974 -0.0865,0.17298 -0.12973,0.17298 -0.12974,0.21623 -0.0865,0.17299 -0.0865,0.21623 -0.12974,0.21622 -0.0865,0.21623 -0.0865,0.21623 -0.0433,0.21623 -0.0865,0.25947 -0.0433,0.21623 -0.0432,0.25948 -0.0865,0.25947 v 0.25948 l -0.0433,0.30272 -0.0432,0.30272 v 0.25947 h 0.43245 l -0.43245,0.0433 c 0,0.10182 0,0.1977 0,0.30272 0,1.81242 0.48311,3.17247 1.25412,4.19484 1.68094,2.22288 4.70178,2.76773 6.91932,2.76772 4.141395,0 6.054408,-0.9514 6.054407,-0.9514 l 0.04325,-1.81632 0.08649,-1.68659 c 0,0 -3.373983,1.25413 -5.362477,1.25413 -2.6004,0 -4.36782,-1.44325 -4.36782,-3.71914 v -0.0432 -0.0433 -0.0432 -0.0433 -0.0865 -0.0433 -0.0432 -0.0433 l -0.82167,0.0433 c -0.01,0.14107 0,0.24706 0,0.38921 0,1.95664 1.12132,3.44232 2.85422,4.10835 0.67026,0.25662 1.42371,0.38921 2.24878,0.38921 h 0.17298 0.17299 l 0.17298,-0.0433 h 0.17298 0.17298 l 0.172991,-0.0432 h 0.216228 l 0.172983,-0.0433 0.172984,-0.0433 h 0.172983 l 0.172982,-0.0432 0.172984,-0.0433 0.172982,-0.0432 h 0.172983 l 0.172983,-0.0433 0.172984,-0.0432 c 0.974627,-0.22903 1.72983,-0.47571 1.72983,-0.47571 l -0.04325,0.47571 -0.04325,1.21088 c 0,0 -1.42776,0.73517 -5.189487,0.73517 l -0.38921,-0.0432 h -0.38921 l -0.38921,-0.0433 -0.38922,-0.0432 -0.43245,-0.0433 -0.38921,-0.0432 -0.38922,-0.0865 -0.17298,-0.0865 -0.17298,-0.0432 -0.21623,-0.0433 -0.17298,-0.0865 -0.17299,-0.0433 -0.21623,-0.0865 -0.17298,-0.0432 -0.17298,-0.0865 -0.17298,-0.0865 -0.17299,-0.0865 -0.17298,-0.12974 -0.17298,-0.0865 -0.12974,-0.12973 -0.17298,-0.0865 -0.17299,-0.12973 -0.12973,-0.12974 -0.12974,-0.12974 -0.17298,-0.12973 c -0.91312,-0.93432 -1.47036,-2.30266 -1.47036,-4.23809 v -0.0432 -0.0433 -0.0433 -0.0432 -0.0433 -0.0432 c 0.13681,-4.31212 3.52117,-5.88142 7.35178,-5.88142 2.41698,0 4.627285,0.56219 4.627288,0.56219 l 0.129737,1.68658 c 0,0 -1.992585,-0.77842 -4.108345,-0.77842 -3.18793,0 -4.89218,1.8586 -5.05975,4.36782 h 0.82167 c 0.13152,-2.06804 1.40068,-3.5029 4.32458,-3.5029 2.644928,0 4.973252,1.12438 4.973252,1.12439 l -0.259475,-3.5894 c 0,0 -2.593748,-0.73518 -5.492207,-0.73518 h -0.17298 -0.21623 -0.21623 z"
         style="font-style:normal;font-variant:normal;font-weight:normal;font-stretch:normal;letter-spacing:normal;word-spacing:normal;text-anchor:start;fill:#ffffff;fill-opacity:1;stroke:#ffffff;stroke-width:0;stroke-linecap:butt;stroke-linejoin:miter;stroke-miterlimit:10.433;stroke-dasharray:none;stroke-dashoffset:0;stroke-opacity:1" />
      <path
         id="polygon103"
         d="m -92.670138,158.72547 v 6.48686 4.54081 2.59474 h 12.022319 v -2.59474 -1.29738 h -7.308532 v -3.24343 -6.48686 z m 0.864915,0.86491 h 2.983957 v 5.62195 4.10835 h 7.308532 v 0.43246 1.72983 h -10.292489 v -1.72983 -4.54081 z"
         style="font-style:normal;font-variant:normal;font-weight:normal;font-stretch:normal;letter-spacing:normal;word-spacing:normal;text-anchor:start;fill:#ffffff;fill-opacity:1;stroke:#ffffff;stroke-width:0;stroke-linecap:butt;stroke-linejoin:miter;stroke-miterlimit:10.433;stroke-dasharray:none;stroke-dashoffset:0;stroke-opacity:1" />
      <path
         id="polygon105"
         d="m -77.880091,158.72547 v 6.48686 4.54081 2.59474 h 4.324575 v -2.59474 -4.54081 -0.64868 l 0.345966,0.64868 2.33527,4.54081 1.383864,2.59474 h 2.075796 l 1.383864,-2.59474 2.335271,-4.54081 0.345966,-0.64868 v 0.64868 4.54081 2.59474 h 4.324575 v -2.59474 -4.54081 -6.48686 h -4.713787 l -3.892117,6.48686 -0.82167,1.38387 -0.821669,-1.38387 -3.892118,-6.48686 z m 0.864915,0.86491 h 3.373168 l 3.373169,5.62195 1.816321,2.98396 1.773076,-2.98396 3.416414,-5.62195 h 3.329923 v 5.62195 4.54081 1.72983 h -2.551499 v -1.72983 -4.54081 -2.72448 h -0.691932 l -1.470356,2.72448 -2.378516,4.54081 -0.864915,1.72983 h -1.12439 l -0.90816,-1.72983 -2.335271,-4.54081 -1.470355,-2.72448 h -0.691932 v 2.72448 4.54081 1.72983 h -2.594745 v -1.72983 -4.54081 z"
         style="font-style:normal;font-variant:normal;font-weight:normal;font-stretch:normal;letter-spacing:normal;word-spacing:normal;text-anchor:start;fill:#ffffff;fill-opacity:1;stroke:#ffffff;stroke-width:0;stroke-linecap:butt;stroke-linejoin:miter;stroke-miterlimit:10.433;stroke-dasharray:none;stroke-dashoffset:0;stroke-opacity:1" />
      <g
         style="fill:#ffffff"
         transform="matrix(1.3917126,0,0,1.3921378,-417.4681,-227.46479)"
         id="g3316">
        <path
           d="m 197.2102,282.31813 4.9103,-4.91007 4.90901,4.90901 -1.97469,1.97479 3.2e-4,-1.75204 c 2.1e-4,-1.82356 -1.25144,-3.35296 -2.94231,-3.77821 v 0.004 c -1.65517,0.42525 -2.88562,1.90882 -2.92633,3.68762 l -2.2e-4,1.84072 -1.97605,-1.97608"
           style="font-weight:400;font-stretch:normal;font-size:12px;fill:#ffffff;stroke:#f0062e;stroke-width:0;stroke-miterlimit:10.433;stroke-dashoffset:0"
           id="path3264" />
        <path
           d="m 204.67924,284.67587 -0.42323,0.42247 2.2e-4,-2.69175 c 1e-4,-1.17875 -0.95559,-2.13476 -2.13456,-2.13476 -1.14625,0 -2.08158,0.90378 -2.13285,2.03778 h -0.002 l -3.2e-4,2.79001 -0.42407,-0.42311 3.2e-4,-2.13669 c 2.1e-4,-1.60721 1.07793,-2.96289 2.55021,-3.38494 v -0.004 c 1.48112,0.41459 2.56694,1.7756 2.56684,3.3892 l -3.2e-4,2.13615"
           style="font-weight:400;font-stretch:normal;font-size:12px;fill:#ffffff;stroke:#f0062e;stroke-width:0;stroke-miterlimit:10.433;stroke-dashoffset:0"
           id="path81" />
        <path
           d="m 200.40021,282.30961 0.007,-0.0842 0.0108,-0.0831 0.0147,-0.0821 0.0185,-0.081 0.0222,-0.0789 0.0259,-0.0778 0.0294,-0.0757 0.0327,-0.0735 0.0361,-0.0725 0.0393,-0.0703 0.0425,-0.0682 0.0455,-0.0661 0.0485,-0.0639 0.0513,-0.0608 0.054,-0.0586 0.0566,-0.0565 0.0593,-0.0533 0.0617,-0.0512 0.064,-0.048 0.0663,-0.0458 0.0684,-0.0416 0.0704,-0.0384 0.0725,-0.0362 0.0743,-0.032 0.076,-0.0288 0.0778,-0.0256 0.0793,-0.0224 0.0808,-0.0171 0.0821,-0.0149 0.0834,-0.01 0.0846,-0.006 0.0857,-0.002 c 0.95207,0 1.7238,0.77163 1.7237,1.72337 l -4.3e-4,3.10272 -0.35917,0.35885 3.2e-4,-1.53601 c 0,-0.25877 -0.1313,-0.48685 -0.33103,-0.62114 0.20655,-0.23863 0.33146,-0.54973 0.33156,-0.88982 1.1e-4,-0.75138 -0.60899,-1.36101 -1.36047,-1.35995 -0.75149,0 -1.36069,0.60857 -1.3608,1.35995 0,0.33849 0.12353,0.6481 0.32795,0.88609 -0.20314,0.13376 -0.33711,0.36386 -0.33722,0.62519 l 8.5e-4,1.53676 -0.35991,-0.35949 4.2e-4,-3.20013 h 0.003"
           style="font-weight:400;font-stretch:normal;font-size:12px;fill:#ffffff;stroke:#f0062e;stroke-width:0;stroke-miterlimit:10.433;stroke-dashoffset:0"
           id="path83" />
        <path
           d="m 202.74025,283.98843 0.0176,5.4e-4 0.0174,0.001 0.0171,0.002 0.0168,0.003 0.0165,0.004 0.0162,0.005 0.0159,0.005 0.0156,0.006 0.0151,0.007 0.0147,0.008 0.0143,0.008 0.0138,0.009 0.0133,0.01 0.0129,0.0102 0.0125,0.0108 0.0118,0.0114 0.0113,0.0119 0.0108,0.0125 0.0101,0.0129 0.009,0.0134 0.009,0.014 0.008,0.0143 0.008,0.0148 0.007,0.0151 0.006,0.0156 0.005,0.016 0.005,0.0162 0.004,0.0166 0.003,0.0168 0.002,0.0171 0.001,0.0175 4.3e-4,0.0176 -1.1e-4,1.93931 -0.96059,0.95302 -0.96188,-0.95281 2.2e-4,-1.9393 c 0.001,-0.18982 0.15507,-0.34372 0.34489,-0.34372 l 1e-4,-0.4034 c -0.22168,-0.18054 -0.36332,-0.45573 -0.36332,-0.76395 1e-4,-0.54462 0.44112,-0.98479 0.9851,-0.98479 0.54398,-10e-4 0.985,0.44017 0.98489,0.98479 0,0.31131 -0.14473,0.58905 -0.37057,0.7696 v 0.39764"
           style="font-weight:400;font-stretch:normal;font-size:12px;fill:#ffffff;stroke:#f0062e;stroke-width:0;stroke-miterlimit:10.433;stroke-dashoffset:0"
           id="path85" />
      </g>
    </g>
  </g>
</svg>
