<?xml version="1.0" encoding="UTF-8" standalone="no"?>
<!-- Created with Inkscape (http://www.inkscape.org/) -->

<svg
   xmlns:dc="http://purl.org/dc/elements/1.1/"
   xmlns:cc="http://creativecommons.org/ns#"
   xmlns:rdf="http://www.w3.org/1999/02/22-rdf-syntax-ns#"
   xmlns:svg="http://www.w3.org/2000/svg"
   xmlns="http://www.w3.org/2000/svg"
   xmlns:sodipodi="http://sodipodi.sourceforge.net/DTD/sodipodi-0.dtd"
   xmlns:inkscape="http://www.inkscape.org/namespaces/inkscape"
   width="358.95908mm"
   height="232.728mm"
   viewBox="0 0 358.95908 232.728"
   version="1.1"
   id="svg8"
   inkscape:version="0.92.1 r15371"
   sodipodi:docname="jccm.svg">
  <defs
     id="defs2" />
  <sodipodi:namedview
     id="base"
     pagecolor="#ffffff"
     bordercolor="#666666"
     borderopacity="1.0"
     inkscape:pageopacity="1"
     inkscape:pageshadow="2"
     inkscape:zoom="0.54802996"
     inkscape:cx="629.93156"
     inkscape:cy="457.07131"
     inkscape:document-units="mm"
     inkscape:current-layer="layer1"
     showgrid="false"
     fit-margin-top="5"
     fit-margin-left="5"
     fit-margin-right="5"
     fit-margin-bottom="5"
     inkscape:window-width="1920"
     inkscape:window-height="1016"
     inkscape:window-x="0"
     inkscape:window-y="27"
     inkscape:window-maximized="1" />
  <metadata
     id="metadata5">
    <rdf:RDF>
      <cc:Work
         rdf:about="">
        <dc:format>image/svg+xml</dc:format>
        <dc:type
           rdf:resource="http://purl.org/dc/dcmitype/StillImage" />
        <dc:title></dc:title>
      </cc:Work>
    </rdf:RDF>
  </metadata>
  <g
     inkscape:label="Capa 1"
     inkscape:groupmode="layer"
     id="layer1"
     transform="translate(74.479479,-32.014277)">
    <path
       style="fill:#011545;fill-opacity:1;stroke-width:1.5081768"
       d="m 392.77148,139.89648 v 9.5879 h -9.58789 v 8.52734 h 9.58789 v 9.58789 h 8.52735 v -9.58789 h 9.58594 v -8.52734 h -9.58594 v -9.5879 z m 3.88086,35.32813 c -8.08233,0.2564 -14.69819,7.31392 -14.34375,15.30273 0.34243,7.71282 7.06115,14.11961 14.8418,14.1543 7.9451,0.0363 14.85891,-7.019 14.70508,-15.00781 -0.15383,-8.05065 -7.15549,-14.7041 -15.20313,-14.44922 z m -30.80664,32.84766 c -9.19846,0.11954 -18.91988,3.54971 -28.21289,11.30664 -22.36022,-11.47119 -37.91395,-10.70968 -50.93554,2.50195 -11.3792,11.54057 -13.77738,28.87928 -5.95899,43.10742 5.0901,9.26171 16.40235,20.08203 16.40234,20.08203 h 23.50977 c -1.88371,-2.41911 -3.91208,-5.07648 -5.76562,-7.42773 h -0.10157 c -4.888,-5.86379 -9.64764,-11.26511 -14.09375,-16.73828 -4.8518,-5.97239 -7.61747,-12.39214 -4.08984,-20.12305 4.53659,-9.9419 16.06171,-13.58869 25.33398,-7.88477 2.0828,1.28044 6.1836,4.9668 6.1836,4.9668 0,0 -1.05274,2.76118 -1.44336,4.9043 -2.02096,11.09264 5.17919,26.98318 9.54687,35.30078 0.59724,1.199 1.18684,2.40088 1.75391,3.60742 0.81291,1.7329 1.78711,3.79297 1.78711,3.79297 h 25.62695 c -1.06025,-2.05112 -2.11126,-4.01396 -3.15039,-5.94141 h 0.004 c -2.60463,-5.09763 -4.79387,-9.78662 -7.22657,-14.54492 -1.71327,-3.35268 -3.61991,-6.62156 -5.10546,-10.07226 -3.10986,-7.22719 -1.7294,-13.91574 3.60351,-19.48243 3.58796,-3.7463 7.89967,-5.35144 12.44531,-5.18554 v 0.0117 c 1.36792,-0.002 2.75941,0.12047 4.14844,0.39648 7.71131,1.53684 13.41,8.23637 13.56836,16.7832 0.23244,12.48469 0.0586,24.97654 0.0586,37.74024 4.37974,0 8.62252,8.8e-4 12.80468,0.004 h 0.31055 0.3125 c 4.18216,-0.003 8.42497,-0.004 12.80469,-0.004 0,-12.76521 -0.17385,-25.25555 0.0586,-37.74024 0.15836,-8.54683 5.85703,-15.24636 13.56836,-16.7832 1.39053,-0.27749 2.78007,-0.39799 4.14648,-0.39648 v -0.0117 c 4.54564,-0.1674 8.85734,1.43924 12.44532,5.18554 5.3314,5.56669 6.71725,12.25524 3.60742,19.48243 -1.48407,3.4507 -3.39368,6.71958 -5.10547,10.07226 -2.43269,4.75679 -4.62389,9.44729 -7.22852,14.54492 h 0.002 c -1.03763,1.92745 -2.08821,3.89029 -3.14844,5.94141 h 25.62695 c 0,0 0.97226,-2.05857 1.78516,-3.79297 0.56859,-1.20654 1.15862,-2.40842 1.75586,-3.60742 4.3677,-8.3191 11.56782,-24.20814 9.54687,-35.30078 -0.38914,-2.14312 -1.44336,-4.9043 -1.44336,-4.9043 0,0 4.10081,-3.68636 6.1836,-4.9668 9.26925,-5.70392 20.79542,-2.05713 25.33203,7.88477 3.52913,7.73091 0.76389,14.15066 -4.08789,20.12305 -4.44764,5.47166 -9.20528,10.87449 -14.0918,16.73828 h -0.10351 c -1.85356,2.35275 -3.87845,5.00862 -5.76368,7.42773 h 23.50977 c 0,0 11.31027,-10.82032 16.40039,-20.08203 7.81686,-14.22814 5.42019,-31.56685 -5.95898,-43.10742 -13.02312,-13.21163 -28.57725,-13.97465 -50.9375,-2.50195 -21.24118,-17.72862 -44.71407,-12.85698 -59.08399,2.49023 -0.0438,0.0348 -0.089,0.0708 -0.13281,0.10547 -0.0408,-0.0348 -0.0893,-0.0708 -0.13281,-0.10547 -8.08229,-8.6328 -19.04451,-13.95057 -30.8711,-13.79687 z m -8.76758,84.31054 c -6.10109,0.27605 -11.06153,5.15052 -11.19726,11.28125 -0.14631,6.75664 4.91035,11.98611 11.65039,12.04492 6.12018,0.0543 11.62522,-5.18925 11.80469,-11.24609 0.18247,-6.12621 -4.93342,-11.72884 -11.02344,-12.07422 -0.41579,-0.0235 -0.82763,-0.0243 -1.23438,-0.006 z m 119.4668,0.0371 c -6.75968,-0.0422 -11.91995,5.06888 -11.86719,11.76367 0.0499,6.29061 5.11474,11.39521 11.36915,11.45703 6.78076,0.0679 11.95777,-5.04232 11.88085,-11.72656 -0.0737,-6.37506 -5.10581,-11.45342 -11.38281,-11.49414 z m -158.76758,0.0195 c -6.50627,0.13274 -11.34515,4.97071 -11.44922,11.44532 -0.10706,6.68423 5.16127,11.99159 11.81836,11.91015 6.65709,-0.0815 11.66582,-5.46844 11.4004,-12.25976 -0.25338,-6.42936 -5.34169,-11.22541 -11.76954,-11.09571 z m 79.62305,0.0371 c -6.61636,-0.1508 -12.10543,5.19047 -12.03906,11.71485 0.0635,6.26949 5.17469,11.37319 11.46679,11.45312 6.66615,0.083 12.03711,-5.13207 12.03711,-11.68359 -0.003,-6.29664 -5.03397,-11.33658 -11.46484,-11.48438 z m 39.25977,0.0195 c -6.67215,-0.003 -12.02463,5.44903 -11.79688,12.01563 0.20977,6.07494 5.6171,11.14549 11.87305,11.1289 6.7008,-0.0181 11.82207,-5.2782 11.64258,-11.96093 -0.17046,-6.37205 -5.21094,-11.18209 -11.71875,-11.1836 z m -118.72071,29.29297 v 23.40821 h 158.36524 v -23.40821 z m -39.41992,30.00782 v 6.65234 c -0.003,72.59457 -0.0558,145.18861 0.0859,217.7832 0.0121,5.96481 0.66372,12.11277 2.20508,17.85742 5.64058,21.01191 21.09483,32.84521 40.00586,41.01954 20.11455,8.6961 41.45206,11.81267 63.12304,12.79296 30.58885,1.3815 60.76313,-0.86239 89.48633,-12.63672 29.18627,-11.96282 42.70073,-31.45541 42.69922,-60.92968 -0.0113,-71.08642 -0.0271,-142.17336 -0.043,-213.25977 v -9.27929 z m 117.32813,6.57617 h 111.39257 c 0,3.11136 0.0138,4.52442 0.0176,6.69922 0.0469,70.19806 -0.0659,140.39324 0.14649,210.58984 0.0813,26.11257 -14.49305,41.4879 -36.64063,51.29101 -22.11288,9.78656 -45.76475,11.95187 -69.62109,12.79493 -2.45533,0.0873 -5.35547,0.11328 -5.35547,0.11328 z m -65.64454,82.75781 h 4.44532 v 2.19141 h 2.86914 v -2.19141 h 4.44922 v 2.19141 h 2.86914 v -2.19141 h 4.44726 v 2.19141 0.83398 1.20313 h -19.08008 v -1.20313 -0.83398 z m 0.62891,7.14258 h 17.82031 v 37.58203 h -17.82031 z m -29.43359,11.28125 h 4.44922 v 2.18945 h 2.87109 v -2.18945 h 4.44531 v 2.18945 h 2.8711 v -2.18945 h 4.44531 v 2.18945 0.83398 1.20508 h -19.08203 v -1.20508 -0.83398 z m 55.94726,0 h 4.44922 v 2.18945 h 2.86914 v -2.18945 h 4.44727 v 2.18945 h 2.87109 v -2.18945 h 4.44531 v 2.18945 0.83398 1.20508 H 357.3457 v -1.20508 -0.83398 z m -55.3164,6.81054 h 17.82031 v 19.49024 H 302.0293 Z m 55.94726,0 h 17.82032 v 19.49024 h -17.82032 z m -55.94726,22.71289 73.76172,0.004 1.69336,20.17383 H 300.6543 Z m -1.97071,24.3418 H 377.75 l 1.76758,21.0625 h -28.70117 c -1.45539,-5.02824 -6.08278,-8.70703 -11.58008,-8.70703 -5.49731,0 -10.12469,3.67879 -11.58008,8.70703 h -29.03516 z m -1.45312,24.41797 h 28.77734 v 21.56641 h -30.24804 z m 52.3125,0 h 29.08984 l 1.81055,21.56641 h -30.90039 z m -53.7832,24.66992 h 84.68359 v 3.04297 h -84.68359 z m -20.91016,162.61328 c -3.91305,0 -7.38449,0.67124 -10.41211,2.01368 -2.99905,1.31386 -5.35461,3.12783 -7.06836,5.4414 -1.68518,2.31355 -2.70022,4.72675 -3.04297,7.24024 -0.34275,2.48493 -0.51367,6.22618 -0.51367,11.22461 v 20.26562 c 0,6.79786 0.55794,11.89599 1.67188,15.29492 1.11393,3.37036 3.38501,6.01211 6.8125,7.92578 3.42748,1.9137 7.78235,2.8711 13.0664,2.8711 5.08411,0 9.3545,-1.12831 12.81055,-3.38477 3.48461,-2.25643 5.72688,-4.88376 6.72656,-7.88281 1.02825,-2.99906 1.54102,-8.08279 1.54102,-15.25195 v -2.69922 H 279.7793 v 8.69726 c 0,3.79881 -0.21415,6.21198 -0.64258,7.24024 -0.39988,1.02823 -1.27085,1.54297 -2.61328,1.54297 -1.39956,0 -2.29935,-0.51474 -2.69922,-1.54297 -0.39988,-1.02826 -0.59961,-3.2273 -0.59961,-6.59766 V 745.3007 c 0,-3.51317 0.19973,-5.79866 0.59961,-6.85547 0.39987,-1.0568 1.34288,-1.58398 2.82812,-1.58398 1.31388,0 2.15604,0.44271 2.52735,1.32812 0.39987,0.85687 0.59961,3.04149 0.59961,6.55469 v 12.08203 h 18.03711 v -6.59765 c 0,-6.48368 -0.54158,-11.25437 -1.62696,-14.31055 -1.08537,-3.08475 -3.35644,-5.65445 -6.8125,-7.71094 -3.45605,-2.05649 -7.83973,-3.08594 -13.15234,-3.08594 z m -329.767579,1.45703 v 48.79883 c 0,2.62776 -0.05763,4.39851 -0.171875,5.3125 -0.11425,0.91399 -0.542534,1.68607 -1.285156,2.31446 -0.742624,0.62836 -1.755707,0.9414 -3.041016,0.9414 -0.485561,0 -1.27205,-0.0432 -2.357422,-0.1289 v 12.125 h 9.041016 c 3.99874,0 6.982318,-0.29863 8.953125,-0.89844 1.999368,-0.62836 3.570394,-1.7423 4.712891,-3.3418 1.171058,-1.59949 1.82789,-3.38464 1.970703,-5.35547 0.142813,-1.99937 0.214844,-6.46948 0.214844,-13.41015 v -46.35743 z m 224.886719,0 v 16.10938 c -1.45668,-1.54237 -3.08533,-2.69953 -4.88477,-3.4707 -1.77087,-0.77118 -3.72696,-1.15625 -5.86914,-1.15625 -2.77055,0 -5.15688,0.70005 -7.15625,2.09961 -1.99937,1.37098 -3.28422,2.97082 -3.85547,4.79882 -0.54268,1.82799 -0.81445,4.92681 -0.81445,9.29688 v 26.60547 c 0,4.19868 0.27177,7.22548 0.81445,9.08203 0.57125,1.85655 1.8417,3.4996 3.8125,4.92773 1.97081,1.39956 4.29951,2.09961 6.98438,2.09961 1.99937,0 3.91224,-0.42828 5.74023,-1.28515 1.828,-0.85687 3.5719,-2.14366 5.22852,-3.85743 v 4.11329 h 17.30859 v -69.36329 z m 336.96484,0 v 9.03907 h 17.82227 v -9.03907 z m 46.05664,0 v 16.10938 c -1.45668,-1.54237 -3.08533,-2.69953 -4.88476,-3.4707 -1.77089,-0.77118 -3.72696,-1.15625 -5.86914,-1.15625 -2.77055,0 -5.15493,0.70005 -7.1543,2.09961 -1.99937,1.37098 -3.28618,2.97082 -3.85742,4.79882 -0.54269,1.82799 -0.8125,4.92681 -0.8125,9.29688 v 26.60547 c 0,4.19868 0.26981,7.22548 0.8125,9.08203 0.57124,1.85655 1.84366,3.4996 3.81445,4.92773 1.97082,1.39956 4.29757,2.09961 6.98242,2.09961 1.99937,0 3.91419,-0.42828 5.74219,-1.28515 1.82801,-0.85687 3.56995,-2.14366 5.22656,-3.85743 v 4.11329 h 17.3086 v -69.36329 z m 89.80079,0 v 16.10938 c -1.45668,-1.54237 -3.08534,-2.69953 -4.88477,-3.4707 -1.77086,-0.77118 -3.72695,-1.15625 -5.86914,-1.15625 -2.77057,0 -5.15688,0.70005 -7.15625,2.09961 -1.99937,1.37098 -3.28423,2.97082 -3.85547,4.79882 -0.54269,1.82799 -0.81445,4.92681 -0.81445,9.29688 v 26.60547 c 0,4.19868 0.27176,7.22548 0.81445,9.08203 0.57124,1.85655 1.84168,3.4996 3.8125,4.92773 1.9708,1.39956 4.2995,2.09961 6.98438,2.09961 1.99937,0 3.91225,-0.42828 5.74023,-1.28515 1.82801,-0.85687 3.5719,-2.14366 5.22852,-3.85743 v 4.11329 h 17.30859 v -69.36329 z m 147.21093,0 v 16.10938 c -1.45668,-1.54237 -3.08533,-2.69953 -4.88476,-3.4707 -1.77089,-0.77118 -3.72698,-1.15625 -5.86914,-1.15625 -2.77057,0 -5.15688,0.70005 -7.15625,2.09961 -1.99937,1.37098 -3.28423,2.97082 -3.85547,4.79882 -0.54269,1.82799 -0.81446,4.92681 -0.81445,9.29688 v 26.60547 c -10e-6,4.19868 0.27176,7.22548 0.81445,9.08203 0.57124,1.85655 1.84168,3.4996 3.8125,4.92773 1.97079,1.39956 4.2995,2.09961 6.98437,2.09961 1.99937,0 3.91226,-0.42828 5.74024,-1.28515 1.828,-0.85687 3.5719,-2.14366 5.22851,-3.85743 v 4.11329 h 17.3086 v -69.36329 z m -727.572262,4.92774 v 8.95312 h -3.726563 v 8.99805 h 3.726563 v 28.87695 c 0,5.65539 0.158469,9.25258 0.472656,10.79493 0.314187,1.51382 1.113128,2.87069 2.398437,4.07031 1.285309,1.17105 2.769895,1.92873 4.455078,2.27148 1.685183,0.31418 4.499793,0.47071 8.441407,0.47071 h 6.982422 v -9.16797 c -2.827682,0 -4.43997,-0.21413 -4.839844,-0.64258 -0.371311,-0.42842 -0.558594,-2.51418 -0.558594,-6.25586 v -30.41797 h 4.669922 V 740.4589 H 81.15625 v -8.95312 z m -18.636719,6.55469 c -2.370681,0 -4.468879,0.52717 -6.296875,1.58398 -1.799432,1.02823 -3.327238,2.58486 -4.583985,4.66992 l 0.298829,-5.22656 H 16.976562 v 56.85352 h 17.310547 v -38.42969 c 0,-4.28437 0.156517,-6.9117 0.470703,-7.88281 0.314187,-0.99969 1.084316,-1.5 2.3125,-1.5 1.171061,0 1.885518,0.42828 2.142579,1.28515 0.25706,0.85687 0.386718,3.24125 0.386718,7.1543 v 39.37305 h 17.308594 v -39.84375 c 0,-4.96986 -0.271766,-8.51137 -0.814453,-10.625 -0.542685,-2.14216 -1.757458,-3.91294 -3.642578,-5.3125 -1.88512,-1.39956 -4.312711,-2.09961 -7.283203,-2.09961 z m 63.238281,0 c -4.88418,0 -8.853977,0.9142 -11.910156,2.74218 -3.056179,1.82801 -5.098708,3.9406 -6.126953,6.33985 -0.999685,2.37067 -1.5,5.75568 -1.5,10.1543 v 3.8125 h 16.238279 v -5.95508 c 0,-3.17042 0.14211,-5.12652 0.42774,-5.86914 0.28562,-0.77118 1.01448,-1.15625 2.18554,-1.15625 1.02825,0 1.75516,0.4571 2.1836,1.37109 0.45699,0.88544 0.68554,2.81272 0.68554,5.7832 0,2.3707 -0.19973,3.94172 -0.59961,4.71289 -0.39987,0.77118 -3.44107,2.27017 -9.125,4.49805 -5.312605,2.05649 -8.639982,3.85606 -9.982418,5.39844 -1.342432,1.54237 -2.013671,4.44147 -2.013671,8.69726 v 4.66993 c 0,5.74105 1.256039,9.46985 3.769531,11.18359 2.542057,1.68519 5.327853,2.52734 8.355468,2.52734 2.31356,0 4.29846,-0.50031 5.95508,-1.5 1.68518,-1.02826 3.05647,-2.55606 4.11328,-4.58398 v 5.05469 h 16.83789 V 767.4082 c 0,-9.39704 -0.30058,-15.59469 -0.90039,-18.59375 -0.59981,-3.02763 -2.38498,-5.57046 -5.35547,-7.62695 -2.97049,-2.08504 -7.38298,-3.12695 -13.23828,-3.12695 z m 105.0957,0 c -3.97017,0 -7.48483,0.77015 -10.54101,2.3125 -3.05618,1.51382 -5.25523,3.71287 -6.59766,6.59765 -1.34243,2.85627 -2.01367,6.77039 -2.01367,11.74024 v 16.58008 c 0,4.22722 0.30058,7.45571 0.90039,9.68359 0.59981,2.19931 1.67052,4.22743 3.21289,6.08398 1.57093,1.82801 3.75557,3.26937 6.55469,4.32618 2.79911,1.0568 6.0276,1.58593 9.68359,1.58593 3.77024,0 6.89788,-0.52913 9.38281,-1.58593 2.5135,-1.08538 4.58288,-2.69962 6.21094,-4.8418 1.62806,-2.14219 2.6575,-4.15591 3.08594,-6.04102 0.457,-1.88512 0.68555,-4.58448 0.68555,-8.09765 v -4.19727 h -16.41016 v 7.49805 c 0,2.82766 -0.22855,4.74055 -0.68555,5.74023 -0.42843,0.97114 -1.29941,1.45703 -2.61328,1.45703 -1.05681,0 -1.77127,-0.3726 -2.14258,-1.11523 -0.37131,-0.74263 -0.55664,-2.39814 -0.55664,-4.96875 V 768.5214 h 22.40821 v -7.53906 c 0,-5.51254 -0.64243,-9.78292 -1.92774,-12.81054 -1.25675,-3.05618 -3.47019,-5.4982 -6.64062,-7.32618 -3.14187,-1.85655 -7.14048,-2.78515 -11.9961,-2.78515 z m 109.1211,0 c -4.62712,0 -8.426,0.89978 -11.39649,2.69922 -2.97049,1.79943 -5.02547,4.18381 -6.16797,7.15429 -1.14249,2.97048 -1.71484,7.09876 -1.71484,12.38282 v 14.5664 c 0,4.82706 0.31499,8.45502 0.94336,10.88281 0.62837,2.39925 1.67027,4.45423 3.12695,6.16797 1.48525,1.68519 3.55659,2.95759 6.21289,3.81446 2.65631,0.82832 5.89725,1.24218 9.72461,1.24218 3.42749,0 6.45625,-0.48589 9.08399,-1.45703 2.6563,-0.99968 4.82653,-2.52749 6.51172,-4.58398 1.68518,-2.08504 2.7847,-4.3129 3.29882,-6.6836 0.51413,-2.39924 0.77149,-6.15491 0.77149,-11.26757 v -13.92579 c 0,-4.02728 -0.28618,-7.02529 -0.85742,-8.99609 -0.54269,-1.97082 -1.57018,-3.88563 -3.08399,-5.74219 -1.51381,-1.85655 -3.67158,-3.35554 -6.4707,-4.49804 -2.77056,-1.17105 -6.09794,-1.75586 -9.98242,-1.75586 z m 54.07031,0 c -2.37068,0 -4.48524,0.5416 -6.3418,1.62695 -1.85655,1.05681 -3.45639,2.65664 -4.79883,4.79883 l 0.30079,-5.39844 h -17.09571 v 56.85352 h 16.79492 v -39.41602 c 0,-2.742 0.0288,-4.52715 0.0859,-5.35547 0.0571,-0.85687 0.35771,-1.57134 0.90039,-2.14258 0.54269,-0.59981 1.19952,-0.89843 1.97071,-0.89843 1.22818,0 1.9695,0.55599 2.22656,1.66992 0.28562,1.11393 0.42969,4.4557 0.42969,10.02539 v 36.11719 h 16.79492 v -37.0586 c 0,-4.88415 0.17092,-7.89851 0.51367,-9.04101 0.37133,-1.1425 1.17027,-1.71289 2.39844,-1.71289 1.19962,0 1.95728,0.58481 2.27148,1.75586 0.34273,1.1425 0.51367,4.14243 0.51367,8.99804 v 37.0586 h 16.79492 v -40.40039 c 0,-4.65568 -0.27176,-8.01185 -0.81445,-10.06836 -0.54266,-2.08504 -1.78431,-3.8414 -3.72656,-5.26954 -1.9137,-1.4281 -4.3413,-2.14257 -7.2832,-2.14257 -2.22788,0 -4.25601,0.5416 -6.08399,1.62695 -1.828,1.05681 -3.47105,2.65664 -4.92773,4.79883 -2.6563,-4.28435 -6.29671,-6.42578 -10.92383,-6.42578 z m 113.87695,0 c -2.37069,0 -4.46889,0.52717 -6.29687,1.58398 -1.79944,1.02823 -3.3292,2.58486 -4.58594,4.66992 l 0.30078,-5.22656 h -17.60937 v 56.85352 h 17.30859 v -38.42969 c 0,-4.28437 0.15848,-6.9117 0.47266,-7.88281 0.31418,-0.99969 1.0843,-1.5 2.3125,-1.5 1.17105,0 1.88552,0.42828 2.14257,1.28515 0.25706,0.85687 0.38672,3.24125 0.38672,7.1543 v 39.37305 h 17.3086 v -39.84375 c 0,-4.96986 -0.27177,-8.51137 -0.81446,-10.625 -0.54269,-2.14216 -1.75747,-3.91294 -3.64257,-5.3125 -1.88513,-1.39956 -4.31273,-2.09961 -7.28321,-2.09961 z m 106.08203,0 c -4.88415,0 -8.85593,0.9142 -11.91211,2.74218 -3.05617,1.82801 -5.09674,3.9406 -6.125,6.33985 -0.99968,2.37067 -1.5,5.75568 -1.5,10.1543 v 3.8125 h 16.23829 v -5.95508 c 0,-3.17042 0.14212,-5.12652 0.42773,-5.86914 0.28563,-0.77118 1.0145,-1.15625 2.18555,-1.15625 1.02826,0 1.75517,0.4571 2.18359,1.37109 0.45702,0.88544 0.68555,2.81272 0.68555,5.7832 0,2.3707 -0.19974,3.94172 -0.59961,4.71289 -0.39988,0.77118 -3.44107,2.27017 -9.125,4.49805 -5.31261,2.05649 -8.63999,3.85606 -9.98242,5.39844 -1.34244,1.54237 -2.01368,4.44147 -2.01368,8.69726 v 4.66993 c 0,5.74105 1.25605,9.46985 3.76954,11.18359 2.54206,1.68519 5.32784,2.52734 8.35546,2.52734 2.31355,0 4.29847,-0.50031 5.95508,-1.5 1.68519,-1.02826 3.05648,-2.55606 4.11328,-4.58398 v 5.05469 h 16.83594 V 767.4082 c 0,-9.39704 -0.29863,-15.59469 -0.89844,-18.59375 -0.59981,-3.02763 -2.38498,-5.57046 -5.35547,-7.62695 -2.97048,-2.08504 -7.38296,-3.12695 -13.23828,-3.12695 z m 89.67188,0 c -3.97019,0 -7.48484,0.77015 -10.54102,2.3125 -3.05617,1.51382 -5.25522,3.71287 -6.59765,6.59765 -1.34244,2.85627 -2.01367,6.77039 -2.01367,11.74024 v 16.58008 c 0,4.22722 0.30057,7.45571 0.90039,9.68359 0.59981,2.19931 1.67051,4.22743 3.21289,6.08398 1.57094,1.82801 3.75557,3.26937 6.55468,4.32618 2.79912,1.0568 6.02761,1.58593 9.6836,1.58593 3.77023,0 6.89787,-0.52913 9.38281,-1.58593 2.51349,-1.08538 4.58287,-2.69962 6.21094,-4.8418 1.62804,-2.14219 2.65749,-4.15591 3.08593,-6.04102 0.457,-1.88512 0.68555,-4.58448 0.68555,-8.09765 v -4.19727 h -16.41015 v 7.49805 c 0,2.82766 -0.22856,4.74055 -0.68555,5.74023 -0.42845,0.97114 -1.29942,1.45703 -2.61328,1.45703 -1.05681,0 -1.76933,-0.3726 -2.14063,-1.11523 -0.37132,-0.74263 -0.55859,-2.39814 -0.55859,-4.96875 V 768.5214 h 22.4082 v -7.53906 c 0,-5.51254 -0.64242,-9.78292 -1.92773,-12.81054 -1.25675,-3.05618 -3.47021,-5.4982 -6.64063,-7.32618 -3.14187,-1.85655 -7.14048,-2.78515 -11.99609,-2.78515 z m 42.88476,0 c -3.7988,0 -7.14057,0.58481 -10.02539,1.75586 -2.85624,1.17105 -4.88241,2.84291 -6.08203,5.01367 -1.19962,2.14218 -1.80078,5.48398 -1.80078,10.02539 0,3.19899 0.55792,5.96842 1.67188,8.31055 1.11392,2.31357 4.21278,4.89962 9.29687,7.75586 6.05526,3.37035 9.41143,5.39847 10.06836,6.08398 0.62836,0.68548 0.94141,2.38421 0.94141,5.09766 0,1.97079 -0.24298,3.27005 -0.72852,3.89843 -0.48557,0.59981 -1.34212,0.90039 -2.57031,0.90039 -1.1425,0 -1.91263,-0.45707 -2.3125,-1.37109 -0.3713,-0.91399 -0.55664,-2.8989 -0.55664,-5.95508 v -3.59961 h -15.33789 v 2.74219 c 0,4.74134 0.58481,8.28288 1.75586,10.625 1.17105,2.34212 3.31246,4.19933 6.42578,5.57031 3.14184,1.37101 6.91193,2.05664 11.31054,2.05664 3.9702,0 7.35518,-0.62802 10.1543,-1.88476 2.82767,-1.28532 4.8414,-3.09929 6.04102,-5.44141 1.19962,-2.37067 1.79883,-5.87092 1.79883,-10.49805 0,-4.14155 -0.78455,-7.29606 -2.35547,-9.46679 -1.57095,-2.17074 -4.86951,-4.48504 -9.89649,-6.94141 -3.77023,-1.85658 -6.26985,-3.27107 -7.49804,-4.24219 -1.19963,-0.97111 -1.92849,-1.8565 -2.18555,-2.65625 -0.22854,-0.82832 -0.3418,-2.11315 -0.3418,-3.85546 0,-1.2853 0.24295,-2.24271 0.72852,-2.8711 0.48557,-0.65693 1.21248,-0.98437 2.18359,-0.98437 1.19962,0 1.94289,0.35626 2.22852,1.07031 0.31418,0.6855 0.4707,2.34297 0.4707,4.9707 v 3.08399 h 15.33789 V 753.955 c 0,-2.85627 -0.1565,-4.95642 -0.4707,-6.29883 -0.28561,-1.34244 -1.14218,-2.79819 -2.57032,-4.36914 -1.39955,-1.57092 -3.42768,-2.82697 -6.08398,-3.76953 -2.62775,-0.97111 -5.82743,-1.45703 -9.59766,-1.45703 z m 104.32422,0 c -3.97016,0 -7.48288,0.77015 -10.53906,2.3125 -3.0562,1.51382 -5.25524,3.71287 -6.59766,6.59765 -1.34243,2.85627 -2.01367,6.77039 -2.01367,11.74024 v 16.58008 c 0,4.22722 0.30058,7.45571 0.90039,9.68359 0.59981,2.19931 1.67052,4.22743 3.21289,6.08398 1.57093,1.82801 3.75557,3.26937 6.55469,4.32618 2.79912,1.0568 6.02761,1.58593 9.6836,1.58593 3.77022,0 6.89787,-0.52913 9.38281,-1.58593 2.51348,-1.08538 4.58287,-2.69962 6.21093,-4.8418 1.62805,-2.14219 2.6575,-4.15591 3.08594,-6.04102 0.457,-1.88512 0.68555,-4.58448 0.68555,-8.09765 v -4.19727 h -16.41016 v 7.49805 c 0,2.82766 -0.22855,4.74055 -0.68554,5.74023 -0.42843,0.97114 -1.2994,1.45703 -2.61329,1.45703 -1.0568,0 -1.77127,-0.3726 -2.14257,-1.11523 -0.37133,-0.74263 -0.55664,-2.39814 -0.55664,-4.96875 V 768.5214 h 22.4082 v -7.53906 c 0,-5.51254 -0.64242,-9.78292 -1.92773,-12.81054 -1.25675,-3.05618 -3.47021,-5.4982 -6.64063,-7.32618 -3.14187,-1.85655 -7.14244,-2.78515 -11.99805,-2.78515 z m -862.742184,1.02734 v 38.3457 c 0,4.88419 0.100844,8.15393 0.300781,9.81055 0.199937,1.62807 0.700252,3.19909 1.5,4.71289 0.82831,1.5138 2.098754,2.72856 3.8125,3.64258 1.713745,0.91399 3.86957,1.37109 6.46875,1.37109 2.284994,0 4.298708,-0.4715 6.041015,-1.41406 1.7708707,-0.97111 3.2574102,-2.41442 4.4570318,-4.32812 l -0.3007813,4.71289 H 10.679688 V 739.08789 H -6.6289062 v 38.25977 c 0,4.65567 -0.129657,7.41263 -0.3867188,8.26953 -0.2284994,0.85687 -0.9842223,1.28515 -2.2695312,1.28515 -1.1996218,0 -1.9428918,-0.41386 -2.2285158,-1.24218 -0.257062,-0.8283 -0.384766,-3.45758 -0.384766,-7.88477 v -38.6875 z m 445.404294,0 v 38.3457 c 0,4.88419 0.099,8.15393 0.29883,9.81055 0.19994,1.62807 0.70025,3.19909 1.5,4.71289 0.8283,1.5138 2.09874,2.72856 3.8125,3.64258 1.71374,0.91399 3.87152,1.37109 6.4707,1.37109 2.28501,0 4.29678,-0.4715 6.03907,-1.41406 1.77088,-0.97111 3.25741,-2.41442 4.45703,-4.32812 l -0.30078,4.71289 h 17.60937 v -56.85352 h -17.30859 v 38.25977 c 0,4.65567 -0.12771,7.41263 -0.38477,8.26953 -0.22851,0.85687 -0.98617,1.28515 -2.27148,1.28515 -1.19962,0 -1.94291,-0.41386 -2.22852,-1.24218 -0.25708,-0.8283 -0.38476,-3.45758 -0.38476,-7.88477 v -38.6875 z m 92.11328,0 v 56.85352 h 17.82227 v -56.85352 z m -339.62109,9.04102 c 1.05681,0 1.75491,0.35626 2.09766,1.07031 0.37131,0.71405 0.55859,2.11415 0.55859,4.19922 V 779.705 c 0,3.17042 -0.18728,5.16972 -0.55859,5.99804 -0.37131,0.79975 -1.11263,1.19922 -2.22657,1.19922 -0.97112,0 -1.62795,-0.35818 -1.9707,-1.07226 -0.34275,-0.7426 -0.51562,-2.27041 -0.51562,-4.58399 v -27.84765 c 0,-2.22786 0.17287,-3.65677 0.51562,-4.28516 0.37131,-0.65693 1.07136,-0.98437 2.09961,-0.98437 z m 45.62695,0 c 0.97113,0 1.61355,0.42828 1.92774,1.28515 0.31418,0.85687 0.47265,2.75533 0.47265,5.69727 v 4.15625 h -5.05664 v -4.15625 c 0,-3.19899 0.14407,-5.15509 0.42969,-5.86914 0.28562,-0.74263 1.02694,-1.11328 2.22656,-1.11328 z m 108.90821,0 c 1.02824,0 1.69948,0.38507 2.01367,1.15625 0.31419,0.74262 0.47265,2.57101 0.47265,5.48437 v 26.2207 c 0,2.45637 -0.17092,4.05425 -0.51367,4.79688 -0.31418,0.74263 -0.98542,1.11523 -2.01367,1.11523 -0.99968,0 -1.67092,-0.39947 -2.01367,-1.19922 -0.34275,-0.82832 -0.51563,-2.5866 -0.51563,-5.27148 v -25.66211 c 0,-2.91336 0.17288,-4.74175 0.51563,-5.48437 0.34275,-0.77118 1.02644,-1.15625 2.05469,-1.15625 z m 228.48632,0 c 1.05681,0 1.75686,0.35626 2.09961,1.07031 0.37133,0.71405 0.55664,2.11415 0.55664,4.19922 V 779.705 c 0,3.17042 -0.18531,5.16972 -0.55664,5.99804 -0.3713,0.79975 -1.11458,1.19922 -2.22851,1.19922 -0.97114,0 -1.62795,-0.35818 -1.9707,-1.07226 -0.34276,-0.7426 -0.51368,-2.27041 -0.51368,-4.58399 v -27.84765 c 0,-2.22786 0.17092,-3.65677 0.51368,-4.28516 0.37132,-0.65693 1.07137,-0.98437 2.0996,-0.98437 z m 89.80079,0 c 1.0568,0 1.7549,0.35626 2.09765,1.07031 0.3713,0.71405 0.5586,2.11415 0.5586,4.19922 V 779.705 c 0,3.17042 -0.1873,5.16972 -0.5586,5.99804 -0.37132,0.79975 -1.11263,1.19922 -2.22656,1.19922 -0.97111,0 -1.62795,-0.35818 -1.9707,-1.07226 -0.34276,-0.7426 -0.51563,-2.27041 -0.51563,-4.58399 v -27.84765 c 0,-2.22786 0.17287,-3.65677 0.51563,-4.28516 0.3713,-0.65693 1.07135,-0.98437 2.09961,-0.98437 z m 45.62695,0 c 0.97111,0 1.61355,0.42828 1.92773,1.28515 0.31421,0.85687 0.47266,2.75533 0.47266,5.69727 v 4.15625 h -5.05664 v -4.15625 c 0,-3.19899 0.14405,-5.15509 0.42969,-5.86914 0.28563,-0.74263 1.02694,-1.11328 2.22656,-1.11328 z m 101.58203,0 c 1.05681,0 1.75688,0.35626 2.09961,1.07031 0.37133,0.71405 0.55859,2.11415 0.55859,4.19922 V 779.705 c 0,3.17042 -0.18726,5.16972 -0.55859,5.99804 -0.3713,0.79975 -1.11264,1.19922 -2.22656,1.19922 -0.97114,0 -1.62798,-0.35818 -1.97071,-1.07226 -0.34275,-0.7426 -0.51562,-2.27041 -0.51562,-4.58399 v -27.84765 c 0,-2.22786 0.17287,-3.65677 0.51562,-4.28516 0.3713,-0.65693 1.0694,-0.98437 2.09766,-0.98437 z m 45.62891,0 c 0.97111,0 1.61353,0.42828 1.92773,1.28515 0.31418,0.85687 0.47266,2.75533 0.47266,5.69727 v 4.15625 h -5.05664 v -4.15625 c 0,-3.19899 0.14405,-5.15509 0.42968,-5.86914 0.28564,-0.74263 1.02694,-1.11328 2.22657,-1.11328 z M 110.58984,768.9082 v 11.69532 c 0,2.85623 -0.17092,4.62699 -0.51367,5.3125 -0.31419,0.65693 -1.01424,0.98632 -2.09961,0.98632 -1.1425,0 -1.91262,-0.42828 -2.3125,-1.28515 -0.37131,-0.8569 -0.55664,-2.75731 -0.55664,-5.69922 0,-2.57063 0.21414,-4.54112 0.64258,-5.91211 0.457,-1.37101 2.06929,-3.06974 4.83984,-5.09766 z m 488.2461,0 v 11.69532 c 0,2.85623 -0.17092,4.62699 -0.51367,5.3125 -0.31421,0.65693 -1.01426,0.98632 -2.09961,0.98632 -1.1425,0 -1.91263,-0.42828 -2.3125,-1.28515 -0.3713,-0.8569 -0.55664,-2.75731 -0.55664,-5.69922 0,-2.57063 0.21415,-4.54112 0.64257,-5.91211 0.457,-1.37101 2.06928,-3.06974 4.83985,-5.09766 z m -820.43164,71.91016 c -7.6274,0 -14.39148,1.30906 -20.29297,3.92578 -5.84582,2.56101 -10.43883,6.09584 -13.7793,10.60547 -3.28479,4.50963 -5.26159,9.21393 -5.92969,14.11328 -0.66809,4.84369 -1.00195,12.13784 -1.00195,21.88086 v 39.5 c 0,13.25052 1.08651,23.18919 3.25781,29.81445 2.17131,6.5696 6.59641,11.71905 13.27735,15.44922 6.68093,3.73019 15.17093,5.5957 25.4707,5.5957 9.91005,0 18.2341,-2.19936 24.9707,-6.59765 6.79229,-4.39826 11.16273,-9.52137 13.11133,-15.36719 2.00428,-5.84582 3.00586,-15.75617 3.00586,-29.73047 v -5.25976 h -35.1582 v 16.95312 c 0,7.4047 -0.41684,12.109 -1.25196,14.11328 -0.77944,2.00426 -2.47705,3.00586 -5.09375,3.00586 -2.72804,0 -4.48227,-1.0016 -5.26171,-3.00586 -0.77945,-2.00428 -1.16993,-6.29172 -1.16993,-12.86133 v -62.80078 c 0,-6.84795 0.39048,-11.30138 1.16993,-13.36132 0.77944,-2.05997 2.61664,-3.08985 5.51171,-3.08985 2.56103,0 4.20397,0.86198 4.92774,2.58789 0.77944,1.67025 1.16797,5.9294 1.16797,12.77735 v 23.55078 h 35.1582 v -12.86133 c 0,-12.63809 -1.0582,-21.93539 -3.17383,-27.89258 -2.11563,-6.01282 -6.54073,-11.02268 -13.27734,-15.03125 -6.73661,-4.00857 -15.28323,-6.01367 -25.63867,-6.01367 z m 272.666012,2.83984 v 17.6211 h 34.740235 v -17.6211 z m 46.765626,0 V 978.86328 H 132.57812 V 843.6582 Z m 46.767582,0 v 135.20508 h 34.74023 V 843.6582 Z m 184.39453,0 v 135.20508 h 56.53711 V 951.80469 H 364.15625 V 843.6582 Z m 181.38672,0 v 135.20508 h 30.73242 v -89.1914 l 12.94336,89.1914 h 21.79687 l 12.27735,-91.2793 v 91.2793 h 30.73046 V 843.6582 h -45.84765 l -8.01563,63.13477 -4.84375,-34.4082 c -1.50322,-11.02355 -2.92357,-20.59809 -4.25976,-28.72657 z m 381.81445,0 v 135.20508 h 33.74023 v -79.08594 c 0,-5.62313 0.36021,-9.3805 1.08399,-11.27343 0.72375,-1.89292 2.11581,-2.83985 4.17578,-2.83985 2.22697,0 3.64735,0.91861 4.25976,2.75586 0.6681,1.83726 1.00196,5.98513 1.00196,12.44336 v 78 h 33.73828 v -76.41406 c 0,-10.41111 -0.47348,-17.56372 -1.41992,-21.46094 -0.89081,-3.95288 -3.42404,-7.43304 -7.59961,-10.43945 -4.11991,-3.00644 -9.12977,-4.50977 -15.03125,-4.50977 -3.84154,0 -7.46127,0.66772 -10.85742,2.00391 -3.34048,1.33619 -6.4565,3.34129 -9.35157,6.01367 V 843.6582 Z M 0.71289062,853.26172 v 17.45312 H -6.5527344 v 17.53711 h 7.26562502 v 56.28711 c 0,11.02355 0.30554988,18.03851 0.91796878,21.04492 0.6124189,2.95076 2.1723843,5.59528 4.6777344,7.9336 2.50535,2.28266 5.4007542,3.75964 8.6855472,4.42773 3.284792,0.61241 8.768098,0.91797 16.451171,0.91797 h 13.611329 v -17.87109 c -5.511771,0 -8.656105,-0.41881 -9.435547,-1.25391 -0.723768,-0.83512 -1.085938,-4.89805 -1.085938,-12.1914 v -59.29493 h 9.103516 V 870.71484 H 34.535156 V 853.26172 Z M -131.15234,866.03906 c -9.52033,0 -17.25963,1.78057 -23.2168,5.34375 -5.95717,3.56316 -9.93713,7.68469 -11.94141,12.36133 -1.9486,4.62098 -2.92382,11.21713 -2.92383,19.79102 v 7.43359 h 31.65235 v -11.60937 c 0,-6.17989 0.27724,-9.99388 0.83398,-11.44141 0.55675,-1.50319 1.97712,-2.25391 4.25977,-2.25391 2.00428,0 3.42465,0.89031 4.25976,2.67188 0.8908,1.72591 1.33594,5.48525 1.33594,11.27539 0,4.621 -0.39048,7.68235 -1.16992,9.18555 -0.77944,1.50321 -6.7079,4.42692 -17.78711,8.76953 -10.35545,4.00856 -16.84228,7.51507 -19.45898,10.52148 -2.6167,3.00641 -3.92578,8.65762 -3.92579,16.95313 v 9.10351 c 0,11.19055 2.45026,18.45445 7.34961,21.79492 4.95503,3.28479 10.38367,4.92774 16.28516,4.92774 4.50963,0 8.3783,-0.97328 11.60742,-2.92188 3.28479,-2.00428 5.95763,-4.98462 8.01758,-8.9375 v 9.85547 h 32.820313 v -55.61914 c 0,-18.31687 -0.584742,-30.39832 -1.753906,-36.24414 -1.169164,-5.90148 -4.649313,-10.85667 -10.439457,-14.86523 -5.79014,-4.06426 -14.39142,-6.09571 -25.80468,-6.09571 z m 82.007809,0 c -7.404702,0 -13.917898,1.14117 -19.541016,3.42383 -5.567446,2.28266 -9.521049,5.54023 -11.859375,9.77149 -2.338328,4.17559 -3.505859,10.68878 -3.505859,19.54101 0,6.23554 1.084556,11.63588 3.255859,16.20117 2.171303,4.50963 8.212995,9.54779 18.123047,15.11524 11.802983,6.56957 18.344489,10.52318 19.625,11.85937 1.224839,1.33619 1.835937,4.64843 1.835937,9.9375 10e-7,3.84154 -0.471501,6.37477 -1.417968,7.59961 -0.946465,1.16916 -2.617716,1.75391 -5.011719,1.75391 -2.226976,0 -3.730321,-0.89031 -4.509766,-2.67188 -0.723767,-1.78159 -1.085937,-5.65221 -1.085937,-11.60937 v -7.01367 h -29.896484 v 5.34375 c 0,9.24197 1.141174,16.14564 3.423828,20.71093 2.28265,4.56532 6.458828,8.18505 12.527343,10.85743 6.124191,2.67235 13.473012,4.00781 22.046875,4.00781 7.738749,0 14.33492,-1.22417 19.791016,-3.67383 5.51177,-2.50535 9.437064,-6.04211 11.775391,-10.60742 2.338326,-4.62098 3.507812,-11.43972 3.507812,-20.45899 0,-8.07279 -1.531656,-14.22577 -4.59375,-18.45703 -3.062094,-4.23125 -9.492313,-8.74129 -19.291015,-13.5293 -7.349027,-3.61882 -12.219281,-6.37463 -14.613282,-8.26757 -2.338328,-1.89294 -3.758696,-3.61886 -4.259765,-5.17774 -0.445395,-1.61456 -0.667969,-4.11949 -0.667969,-7.51562 0,-2.50535 0.473457,-4.37086 1.419922,-5.59571 0.946467,-1.2805 2.366834,-1.91992 4.259765,-1.91992 2.338326,0 3.785053,0.69604 4.341797,2.08789 0.61242,1.33619 0.917969,4.56546 0.917969,9.6875 v 6.01172 h 29.898437 v -6.42969 c 0,-5.56742 -0.307502,-9.65867 -0.919921,-12.27539 -0.556745,-2.61669 -2.226044,-5.45743 -5.009766,-8.51953 -2.728048,-3.0621 -6.681652,-5.5104 -11.859375,-7.34765 -5.122049,-1.89294 -11.358004,-2.83985 -18.707031,-2.83985 z m 277.091801,0 c -9.52033,0 -17.25768,1.78057 -23.21485,5.34375 -5.95716,3.56316 -9.93908,7.68469 -11.94336,12.36133 -1.9486,4.62098 -2.92187,11.21713 -2.92187,19.79102 v 7.43359 h 31.65039 v -11.60937 c 0,-6.17989 0.27919,-9.99388 0.83594,-11.44141 0.55674,-1.50319 1.97515,-2.25391 4.25781,-2.25391 2.00428,0 3.42465,0.89031 4.25976,2.67188 0.8908,1.72591 1.33594,5.48525 1.33594,11.27539 0,4.621 -0.39048,7.68235 -1.16992,9.18555 -0.77944,1.50321 -6.70789,4.42692 -17.78711,8.76953 -10.35545,4.00856 -16.84229,7.51507 -19.45898,10.52148 -2.6167,3.00641 -3.92383,8.65762 -3.92383,16.95313 v 9.10351 c 0,11.19055 2.4483,18.45445 7.34765,21.79492 4.95503,3.28479 10.38367,4.92774 16.28516,4.92774 4.50963,0 8.38026,-0.97328 11.60938,-2.92188 3.28479,-2.00428 5.95566,-4.98462 8.01562,-8.9375 v 9.85547 h 32.82031 v -55.61914 c 0,-18.31687 -0.58474,-30.39832 -1.7539,-36.24414 -1.16917,-5.90148 -4.64736,-10.85667 -10.4375,-14.86523 -5.79014,-4.06426 -14.39338,-6.09571 -25.80664,-6.09571 z m 201.76562,0 c -9.52035,0 -17.25963,1.78057 -23.2168,5.34375 -5.95716,3.56316 -9.93714,7.68469 -11.9414,12.36133 -1.94863,4.62098 -2.92383,11.21713 -2.92383,19.79102 v 7.43359 h 31.65039 v -11.60937 c 0,-6.17989 0.27919,-9.99388 0.83594,-11.44141 0.55675,-1.50319 1.97713,-2.25391 4.25976,-2.25391 2.00429,0 3.42269,0.89031 4.25782,2.67188 0.89078,1.72591 1.33593,5.48525 1.33593,11.27539 0,4.621 -0.38853,7.68235 -1.16797,9.18555 -0.77943,1.50321 -6.70985,4.42692 -17.78906,8.76953 -10.35545,4.00856 -16.84034,7.51507 -19.45703,10.52148 -2.61672,3.00641 -3.92578,8.65762 -3.92578,16.95313 v 9.10351 c 0,11.19055 2.45026,18.45445 7.34961,21.79492 4.95503,3.28479 10.38367,4.92774 16.28515,4.92774 4.50964,0 8.3783,-0.97328 11.60743,-2.92188 3.28478,-2.00428 5.95763,-4.98462 8.01757,-8.9375 v 9.85547 h 32.82032 v -55.61914 c 0,-18.31687 -0.58475,-30.39832 -1.75391,-36.24414 -1.16916,-5.90148 -4.64932,-10.85667 -10.43945,-14.86523 -5.79016,-4.06426 -14.39145,-6.09571 -25.80469,-6.09571 z m 238.8418,0 c -9.52036,0 -17.25768,1.78057 -23.21485,5.34375 -5.95716,3.56316 -9.9391,7.68469 -11.94336,12.36133 -1.94862,4.62098 -2.92187,11.21713 -2.92187,19.79102 v 7.43359 H 662.125 v -11.60937 c 0,-6.17989 0.27919,-9.99388 0.83594,-11.44141 0.55672,-1.50319 1.97515,-2.25391 4.25781,-2.25391 2.00428,0 3.42464,0.89031 4.25977,2.67188 0.89078,1.72591 1.33593,5.48525 1.33593,11.27539 0,4.621 -0.38853,7.68235 -1.16797,9.18555 -0.77943,1.50321 -6.70985,4.42692 -17.78906,8.76953 -10.35545,4.00856 -16.84226,7.51507 -19.45898,10.52148 -2.6167,3.00641 -3.92383,8.65762 -3.92383,16.95313 v 9.10351 c 0,11.19055 2.45026,18.45445 7.34961,21.79492 4.95503,3.28479 10.38172,4.92774 16.2832,4.92774 4.50963,0 8.38025,-0.97328 11.60938,-2.92188 3.28478,-2.00428 5.95568,-4.98462 8.01562,-8.9375 v 9.85547 h 32.82031 v -55.61914 c 0,-18.31687 -0.58474,-30.39832 -1.7539,-36.24414 -1.16916,-5.90148 -4.64737,-10.85667 -10.4375,-14.86523 -5.79016,-4.06426 -14.3934,-6.09571 -25.80664,-6.09571 z m 104.55664,0 c -4.62098,0 -8.71221,1.02988 -12.27539,3.08985 -3.50748,2.00428 -6.48586,5.03929 -8.93555,9.10351 l 0.58399,-10.18945 h -34.32227 v 110.82031 h 33.73828 v -74.91016 c 0,-8.35116 0.30553,-13.47229 0.91797,-15.36523 0.61241,-1.9486 2.11576,-2.92383 4.50976,-2.92383 2.28266,0 3.67472,0.83564 4.17579,2.50586 0.50106,1.67023 0.75195,6.3179 0.75195,13.94531 v 76.74805 h 33.73828 v -77.66601 c 0,-9.68734 -0.52812,-16.59103 -1.58594,-20.71094 -1.05781,-4.1756 -3.4251,-7.62743 -7.09961,-10.35547 -3.6745,-2.72806 -8.40713,-4.0918 -14.19726,-4.0918 z m 71.06836,0 c -8.85224,0 -16.36702,1.89186 -22.54688,5.67774 -6.17988,3.73019 -10.21646,7.98933 -12.10937,12.77734 -1.89294,4.78798 -2.83985,11.88789 -2.83985,21.29688 v 31.48242 c 0,10.80083 1.14117,19.15318 3.42383,25.05468 2.33832,5.84583 6.29193,10.41053 11.85938,13.69532 5.56744,3.2291 13.11053,4.84375 22.63086,4.84375 7.46038,0 13.72463,-1.1695 18.79101,-3.50781 5.06636,-2.39401 9.15761,-5.90051 12.27539,-10.52149 3.17345,-4.67666 5.03896,-9.21502 5.59571,-13.61328 0.61241,-4.45397 0.94626,-11.10675 1.00195,-19.95899 h -30.06445 v 13.19532 c 0,5.73445 -0.41683,9.63144 -1.25196,11.6914 -0.77944,2.05995 -2.31109,3.08985 -4.59375,3.08985 -1.9486,0 -3.42365,-0.97523 -4.42578,-2.92383 -1.00215,-2.00428 -1.5039,-4.98267 -1.5039,-8.93555 v -52.27734 c -10e-6,-4.84367 0.33385,-7.96164 1.00195,-9.35352 0.66809,-1.39185 1.97718,-2.08789 3.92578,-2.08789 1.94862,0 3.28406,0.80734 4.00781,2.42188 0.72378,1.5589 1.08594,4.56558 1.08594,9.01953 v 12.77734 h 31.81836 c 0,-10.41113 -1.02988,-18.45597 -3.08984,-24.13476 -2.05995,-5.67879 -6.20782,-10.38309 -12.44336,-14.11328 -6.23554,-3.7302 -13.75226,-5.59571 -22.54883,-5.59571 z m 174.12301,0 c -9.5203,0 -17.2596,1.78057 -23.21676,5.34375 -5.95719,3.56316 -9.93715,7.68469 -11.94141,12.36133 -1.94862,4.62098 -2.92383,11.21713 -2.92383,19.79102 v 7.43359 h 31.6523 v -11.60937 c 0,-6.17989 0.2773,-9.99388 0.834,-11.44141 0.5568,-1.50319 1.9772,-2.25391 4.2598,-2.25391 2.0043,0 3.4227,0.89031 4.2578,2.67188 0.8908,1.72591 1.3379,5.48525 1.3379,11.27539 0,4.621 -0.3905,7.68235 -1.1699,9.18555 -0.7795,1.50321 -6.7099,4.42692 -17.7891,8.76953 -10.35544,4.00856 -16.84032,7.51507 -19.45702,10.52148 -2.61671,3.00641 -3.92578,8.65762 -3.92578,16.95313 v 9.10351 c 0,11.19055 2.45026,18.45445 7.34961,21.79492 4.95504,3.28479 10.38368,4.92774 16.28519,4.92774 4.5096,0 8.3783,-0.97328 11.6074,-2.92188 3.2848,-2.00428 5.9576,-4.98462 8.0176,-8.9375 v 9.85547 h 32.8203 v -55.61914 c 0,-18.31687 -0.5848,-30.39832 -1.7539,-36.24414 -1.1692,-5.90148 -4.6493,-10.85667 -10.4395,-14.86523 -5.7901,-4.06426 -14.3914,-6.09571 -25.8047,-6.09571 z M 51.070312,868.04297 V 978.86328 H 85.810547 V 868.04297 Z m 223.476568,43.75976 v 23.30079 h 44.3457 v -23.30079 z m -401.43946,14.36524 v 22.79883 c 0,5.56744 -0.33386,9.01928 -1.00195,10.35547 -0.61242,1.2805 -1.97617,1.91992 -4.0918,1.91992 -2.22698,0 -3.73032,-0.83564 -4.50976,-2.50586 -0.72377,-1.67025 -1.08594,-5.37297 -1.08594,-11.10742 0,-5.0107 0.41684,-8.85106 1.25195,-11.52344 0.89079,-2.67238 4.03708,-5.98462 9.4375,-9.9375 z m 359.09961,0 v 22.79883 c 0,5.56744 -0.33386,9.01928 -1.00195,10.35547 -0.61242,1.2805 -1.97617,1.91992 -4.0918,1.91992 -2.22698,0 -3.73032,-0.83564 -4.50976,-2.50586 -0.72377,-1.67025 -1.08594,-5.37297 -1.08594,-11.10742 0,-5.0107 0.41683,-8.85106 1.25195,-11.52344 0.89079,-2.67238 4.03708,-5.98462 9.4375,-9.9375 z m 201.76367,0 v 22.79883 c 0,5.56744 -0.33386,9.01928 -1.00195,10.35547 -0.61241,1.2805 -1.97617,1.91992 -4.0918,1.91992 -2.22697,0 -3.7303,-0.83564 -4.50976,-2.50586 -0.72376,-1.67025 -1.08594,-5.37297 -1.08594,-11.10742 0,-5.0107 0.41878,-8.85106 1.25391,-11.52344 0.89078,-2.67238 4.03513,-5.98462 9.43554,-9.9375 z m 238.84375,0 v 22.79883 c 0,5.56744 -0.33386,9.01928 -1.00195,10.35547 -0.61241,1.2805 -1.97617,1.91992 -4.0918,1.91992 -2.22697,0 -3.7303,-0.83564 -4.50976,-2.50586 -0.72376,-1.67025 -1.08594,-5.37297 -1.08594,-11.10742 0,-5.0107 0.41683,-8.85106 1.25195,-11.52344 0.89079,-2.67238 4.03709,-5.98462 9.4375,-9.9375 z m 349.74805,0 v 22.79883 c 0,5.56744 -0.3358,9.01928 -1.0039,10.35547 -0.6124,1.2805 -1.9762,1.91992 -4.0918,1.91992 -2.227,0 -3.7303,-0.83564 -4.5098,-2.50586 -0.7237,-1.67025 -1.084,-5.37297 -1.084,-11.10742 0,-5.0107 0.4169,-8.85106 1.252,-11.52344 0.8908,-2.67238 4.0371,-5.98462 9.4375,-9.9375 z"
       transform="scale(0.26458333)"
       id="path4727"
       inkscape:connector-curvature="0" />
  </g>
</svg>
