<?xml version="1.0" encoding="UTF-8" standalone="no"?>
<!-- Created with Inkscape (http://www.inkscape.org/) -->

<svg
   xmlns:dc="http://purl.org/dc/elements/1.1/"
   xmlns:cc="http://creativecommons.org/ns#"
   xmlns:rdf="http://www.w3.org/1999/02/22-rdf-syntax-ns#"
   xmlns:svg="http://www.w3.org/2000/svg"
   xmlns="http://www.w3.org/2000/svg"
   xmlns:sodipodi="http://sodipodi.sourceforge.net/DTD/sodipodi-0.dtd"
   xmlns:inkscape="http://www.inkscape.org/namespaces/inkscape"
   width="300"
   height="300"
   id="svg5986"
   version="1.1"
   inkscape:version="0.92.1 r15371"
   sodipodi:docname="logo-fvcm.svg"
   inkscape:export-filename="/home/nacho/webadv/static/img/logo-fvcm.png"
   inkscape:export-xdpi="96"
   inkscape:export-ydpi="96">
  <defs
     id="defs5988">
    <filter
       id="filter6339"
       inkscape:label="Comics"
       x="-0.25"
       y="-0.25"
       width="1.5"
       height="1.5"
       inkscape:menu="Non realistic 3D shaders"
       inkscape:menu-tooltip="Imitation of black and white cartoon shading"
       style="color-interpolation-filters:sRGB">
      <feColorMatrix
         id="feColorMatrix6341"
         type="saturate"
         values="0"
         result="fbSourceGraphic" />
      <feColorMatrix
         result="fbSourceGraphicAlpha"
         in="fbSourceGraphic"
         values="0 0 0 -1 0 0 0 0 -1 0 0 0 0 -1 0 0 0 0 1 0"
         id="feColorMatrix6353" />
      <feGaussianBlur
         id="feGaussianBlur6355"
         result="result8"
         stdDeviation="7"
         in="fbSourceGraphic" />
      <feComposite
         id="feComposite6357"
         in2="result8"
         in="result8"
         operator="xor"
         result="result6" />
      <feDisplacementMap
         id="feDisplacementMap6359"
         in2="result6"
         result="result4"
         scale="100"
         yChannelSelector="A"
         xChannelSelector="A"
         in="fbSourceGraphic" />
      <feComposite
         id="feComposite6361"
         in2="result4"
         k1="1"
         in="fbSourceGraphic"
         operator="arithmetic"
         result="result2"
         k2="0"
         k3="0"
         k4="0" />
      <feComposite
         id="feComposite6363"
         in2="result2"
         operator="in"
         in="fbSourceGraphic"
         result="fbSourceGraphic" />
    </filter>
  </defs>
  <sodipodi:namedview
     id="base"
     pagecolor="#ffffff"
     bordercolor="#666666"
     borderopacity="1.0"
     inkscape:pageopacity="0.0"
     inkscape:pageshadow="2"
     inkscape:zoom="1.8326193"
     inkscape:cx="15.340149"
     inkscape:cy="176.00935"
     inkscape:document-units="px"
     inkscape:current-layer="layer8"
     showgrid="false"
     inkscape:window-width="1920"
     inkscape:window-height="1016"
     inkscape:window-x="0"
     inkscape:window-y="27"
     inkscape:window-maximized="1"
     units="cm"
     fit-margin-top="1"
     fit-margin-left="1"
     fit-margin-right="1"
     fit-margin-bottom="1" />
  <metadata
     id="metadata5991">
    <rdf:RDF>
      <cc:Work
         rdf:about="">
        <dc:format>image/svg+xml</dc:format>
        <dc:type
           rdf:resource="http://purl.org/dc/dcmitype/StillImage" />
        <dc:title />
      </cc:Work>
    </rdf:RDF>
  </metadata>
  <g
     inkscape:groupmode="layer"
     id="layer7"
     inkscape:label="Capa"
     style="display:inline"
     transform="translate(-150.1474,-439.45185)" />
  <g
     inkscape:groupmode="layer"
     id="layer9"
     inkscape:label="RED"
     style="display:inline"
     transform="translate(-150.1474,-439.45185)">
    <path
       style="fill:#000080;fill-opacity:1;fill-rule:nonzero;stroke:none;stroke-width:0.65124923"
       d="m 445.7942,504.64785 -13.85939,3.31731 v 11.80389 l 13.85939,-3.17484 z m -15.16189,3.62258 -12.17022,2.93063 v 11.64107 l 12.17022,-2.78816 z m -13.47272,3.2359 -12.17021,2.91026 v 11.49862 l 12.17021,-2.78816 z m -13.47272,3.23589 -12.17021,2.91027 v 11.33581 l 12.17021,-2.78817 z m 42.10733,3.19519 -13.85939,3.15449 v 15.1619 l 13.85939,-3.09344 z m -55.58004,0.0204 -12.17022,2.91027 v 11.19335 l 12.17022,-2.78816 z m -13.47272,3.2359 -12.17022,2.91026 v 11.01019 l 12.17022,-2.76781 z m 53.89087,0.18317 -12.17022,2.78815 v 15.10084 l 12.17022,-2.70676 z m -67.36359,3.03237 -12.17019,2.93062 v 10.84737 l 12.17019,-2.76781 z m 53.89087,0.0407 -12.17021,2.78816 v 15.01944 l 12.17021,-2.70676 z m -13.47272,3.07308 -12.17021,2.78816 v 14.95838 l 12.17021,-2.70675 z m -53.89083,0.12211 -12.17028,2.91028 v 10.7049 l 12.17028,-2.76781 z m 40.41812,2.95098 -12.17022,2.78815 v 14.89733 l 12.17022,-2.7271 z m -53.8909,0.28491 -12.17016,2.91027 v 10.54211 l 12.17016,-2.76782 z m 40.41818,2.78817 -12.17022,2.78816 v 14.81591 l 12.17022,-2.70675 z m -53.89083,0.42738 -12.17028,2.91027 v 10.39963 l 12.17028,-2.7678 z m 122.94359,0.42738 c -2.74702,0.61501 -10.27686,2.29146 -13.85939,3.09344 v 13.37096 l 13.85939,-2.95098 z m -82.52548,2.21832 -12.17019,2.78816 v 14.75486 l 12.17019,-2.7271 z m -53.8909,0.59019 -12.17015,2.91027 v 10.23683 l 12.17015,-2.76781 z m 121.25449,0.5902 c -3.21028,0.71862 -8.38981,1.8606 -12.17022,2.70675 v 13.24885 l 12.17022,-2.605 z m -80.83627,1.8927 -12.17028,2.78815 v 14.67346 l 12.17028,-2.70676 z m -53.89087,0.73265 -12.17028,2.93062 v 10.07401 l 12.17028,-2.76781 z m 121.25442,0.38668 c -3.83784,0.85899 -7.83181,1.73584 -12.17021,2.70675 v 13.10639 l 12.17021,-2.605 z m -80.83633,1.95374 -12.17016,2.78817 v 14.6124 l 12.17016,-2.70676 z m -53.89087,0.89547 -12.17016,2.91027 v 9.93155 l 12.17016,-2.76781 z m 121.25448,0.16281 c -4.38994,0.98243 -7.34896,1.64832 -12.17021,2.72711 v 12.94357 l 12.17021,-2.58464 z m -80.83626,2.01481 -12.17028,2.76781 v 14.55134 l 12.17028,-2.70675 z m 67.36355,0.99722 c -4.86364,1.08826 -6.94489,1.55811 -12.17022,2.7271 v 12.80112 l 12.17022,-2.58464 z m -121.25442,0.0408 -12.17028,2.93063 v 9.76873 l 12.17028,-2.7678 z m 40.41808,2.03516 -12.17015,2.76781 v 14.49029 l 12.17015,-2.70675 z m 136.41638,0.32563 -13.85939,2.95097 v 16.01666 l 13.85939,-2.6864 z m -69.05276,0.61054 c -5.26027,1.1768 -6.61786,1.48521 -12.17022,2.72711 V 565.377 l 12.17022,-2.605 z m -121.25448,0.26457 -12.14984,2.91027 v 9.62628 l 12.14984,-2.76781 z m 40.41821,1.87235 -12.17028,2.7678 v 14.42925 l 12.17028,-2.72712 z m 134.72714,0.48843 -12.17022,2.605 v 15.75209 l 12.17022,-2.36078 z m -67.36359,0.38668 c -5.57987,1.24803 -6.36788,1.42958 -12.17019,2.7271 v 12.53655 l 12.17019,-2.60499 z m -121.2341,0.46808 -12.17022,2.93063 v 9.46346 l 12.17022,-2.78816 z m 40.39777,1.72988 -12.17016,2.76781 v 14.34784 l 12.17016,-2.70676 z m 134.7272,0.28493 -12.17021,2.605 v 15.48751 l 12.17021,-2.36077 z m -67.36355,0.52914 c -5.82243,1.30198 -6.19501,1.39126 -12.17028,2.7271 v 12.39409 l 12.17028,-2.605 z m -121.23414,0.69195 -12.17021,2.91027 v 9.321 L 228.5619,566.13 Z m 40.39784,1.56707 -12.17028,2.76781 v 14.28677 l 12.17028,-2.70674 z m 134.72713,0.10175 -12.17021,2.58465 v 15.22295 l 12.17021,-2.36078 z m -67.36361,0.65125 c -5.98785,1.33864 -6.09901,1.37022 -12.17016,2.72711 v 12.25162 l 12.17016,-2.58464 z m -121.23408,0.91582 -12.17021,2.91027 v 9.1582 l 12.17021,-2.78817 z m 175.12498,1.3025 -12.17022,2.58465 v 14.97873 l 12.17022,-2.36078 z m -134.7272,0.10176 -12.14984,2.76781 v 14.20537 l 12.14984,-2.70675 z m 67.36365,0.69195 c -4.16637,0.93113 -4.16676,0.93894 -8.3442,1.87234 -1.30172,0.29086 -2.52457,0.56395 -3.82608,0.85476 v 12.10917 l 12.17028,-2.58464 z m -121.23414,1.11934 -12.17022,2.91026 v 9.01573 l 12.17022,-2.78816 z m 175.12497,0.95652 -12.17022,2.605 v 14.69381 l 12.17022,-2.36079 z m -134.70682,0.30527 -12.17022,2.76781 v 14.14431 l 12.17022,-2.7271 z m 67.3432,0.6309 c -4.13973,0.92502 -8.04787,1.80596 -12.17015,2.7271 v 11.98706 l 12.17015,-2.605 z m -121.23407,1.3432 -12.17021,2.91027 v 8.85292 l 12.17021,-2.78816 z m 175.12497,0.59019 -12.17019,2.605 v 14.42924 l 12.17019,-2.36078 z m 82.52548,0 c -2.45816,0.47787 -10.53644,2.06084 -13.85939,2.70676 v 14.89733 l 13.85939,-2.54395 z m -217.2323,0.5088 -12.17021,2.7678 v 14.06291 l 12.17021,-2.70675 z m 67.34327,0.56984 c -4.11928,0.92045 -8.09021,1.81549 -12.17028,2.72711 v 11.84459 l 12.17028,-2.605 z m -121.23414,1.54671 -12.17021,2.93062 v 8.69011 l 12.17021,-2.78816 z m 175.12501,0.24422 -12.17028,2.605 V 586.624 l 12.17028,-2.36078 z m 80.83627,0.0814 c -2.98431,0.58009 -8.59302,1.66549 -12.17022,2.36077 v 14.77522 l 12.17022,-2.23866 z m -215.54313,0.63089 -12.17021,2.76781 v 14.00186 l 12.17021,-2.70676 z m 67.34321,0.50879 c -4.07461,0.91041 -8.15657,1.83051 -12.17016,2.72711 v 11.70213 l 12.17016,-2.58465 z m 134.7272,1.48567 c -3.63705,0.7069 -8.00955,1.55217 -12.17021,2.36077 v 14.61241 l 12.17021,-2.23868 z m -80.83633,0.18316 -12.17016,2.58464 v 13.92046 l 12.17016,-2.36079 z m -175.12494,0.10175 -11.05092,2.64571 v 8.54764 l 11.05092,-2.52359 z m 40.41815,0.79372 -12.17022,2.76781 v 13.9408 l 12.17022,-2.72711 z m 67.34327,0.44773 c -4.00597,0.89486 -8.24716,1.85102 -12.17028,2.7271 v 11.55968 l 12.17028,-2.58465 z m 134.72713,1.07863 c -4.21294,0.81876 -7.50291,1.45382 -12.17021,2.36078 v 14.49029 l 12.17021,-2.23866 z m -80.83626,0.44774 -12.17028,2.58464 v 13.65588 l 12.17028,-2.36077 z m -134.70686,1.07863 -12.17021,2.78816 v 13.85939 l 12.17021,-2.70675 z m 67.34321,0.40703 c -4.32163,0.96505 -7.95709,1.77091 -12.14984,2.70675 v 11.43757 l 12.14984,-2.58465 z m 134.7272,0.69195 c -4.71231,0.91569 -7.07282,1.37036 -12.17022,2.36078 v 14.34783 l 12.17022,-2.23867 z m -80.83634,0.69196 -12.17015,2.60498 v 13.39133 l 12.17015,-2.36079 z m -134.70679,1.28214 -12.17021,2.78816 v 13.79834 l 12.17021,-2.7271 z m 67.36359,0.34597 c -4.32488,0.96528 -8.01563,1.78012 -12.17022,2.70676 v 11.31546 l 12.17022,-2.605 z m 134.70682,0.28493 c -5.13646,0.99799 -6.71773,1.32187 -12.17022,2.38113 v 14.18502 l 12.17022,-2.23867 z m -80.83627,0.95652 -12.17028,2.605 v 13.12673 l 12.17028,-2.36077 z m -134.70685,1.48566 -11.05092,2.52359 v 13.73729 l 11.05092,-2.46254 z m 202.0704,0.18316 c -5.48081,1.06476 -6.44283,1.24829 -12.17019,2.36079 v 14.0629 l 12.17019,-2.23867 z m -134.70682,0.0814 c -4.13458,0.92212 -8.23849,1.83069 -12.17021,2.70676 v 11.19334 l 12.17021,-2.605 z m 217.2323,0.24422 -13.85939,2.54394 v 14.83627 l 13.85939,-2.25902 z m -163.36181,0.89546 -12.17016,2.58465 v 12.86217 l 12.17016,-2.34042 z m 67.36365,1.40426 c -5.75014,1.11689 -6.24281,1.20965 -12.17028,2.36078 v 13.92045 l 12.17028,-2.23867 z m -134.70686,0.46809 c -3.9082,0.87072 -8.49749,1.88949 -12.17021,2.70675 v 11.05089 l 12.17021,-2.605 z m 215.54313,0.0204 -12.17022,2.23868 v 14.53099 l 12.17022,-1.97409 z m -161.67257,0.97688 -12.17028,2.58465 v 12.61794 l 12.17028,-2.36077 z m 67.36352,1.13969 c -5.94266,1.15406 -6.11947,1.18595 -12.17016,2.36078 v 13.77798 l 12.17016,-2.23866 z m 80.83633,0.36633 -12.17021,2.21831 v 14.26643 l 12.17021,-1.9741 z m -215.54312,0.48843 c -1.09156,0.24286 -2.57452,0.57645 -3.6429,0.81406 -3.51738,0.78223 -5.27922,1.17113 -8.52732,1.8927 v 10.92877 l 12.17022,-2.58464 z m 53.87049,0.87512 -12.14984,2.58464 v 12.35338 l 12.14984,-2.36078 z m 67.36365,0.89546 c -6.05857,1.17634 -6.07297,1.17719 -12.17028,2.36079 v 13.63552 l 12.17028,-2.23867 z m 80.83626,0.20351 -12.17021,2.23868 v 13.9815 l 12.17021,-1.99445 z m -215.54312,1.01756 c -4.57391,1.01591 -8.22339,1.83214 -12.17021,2.70675 v 10.80666 l 12.17021,-2.58464 z m 53.89087,0.753 -12.17022,2.605 v 12.06846 l 12.17022,-2.36078 z m 67.3432,0.6309 c -4.41202,0.85642 -7.76901,1.50668 -12.17015,2.36077 v 13.51342 l 12.17015,-2.23866 z m 80.83634,0.0814 -12.17022,2.23867 v 13.67614 l 12.17022,-1.9741 z m -215.54313,1.52637 c -3.8735,0.85809 -9.01406,1.99002 -12.17021,2.6864 v 10.72526 l 12.17021,-2.60499 z m 53.89087,0.6309 -12.17021,2.605 v 11.82424 l 12.17021,-2.36078 z m 148.17954,0.32562 -12.17022,2.21832 v 13.41166 l 12.17022,-1.97409 z m -80.83627,0.0611 c -4.3986,0.85358 -7.8088,1.51463 -12.17028,2.36078 v 13.3506 l 12.17028,-2.23866 z m -134.70685,1.9741 c -0.47261,0.10422 -1.41797,0.30693 -1.87234,0.40703 -3.92762,0.86533 -6.72356,1.48113 -9.17858,2.0148 v 10.62351 l 11.05092,-2.36079 z m 202.0704,0.42738 -12.17019,2.23867 v 13.12674 l 12.17019,-1.99445 z m -148.17954,0.0814 -12.17021,2.60499 v 11.55968 l 12.17021,-2.36078 z m 67.34321,0.12211 c -4.35601,0.84509 -7.87758,1.52818 -12.17016,2.36078 v 13.22849 l 12.17016,-2.23867 z m 163.36181,1.09898 -13.85939,2.23867 v 15.01943 l 13.85939,-2.09621 z m -95.99816,1.18039 -12.17028,2.23867 v 12.82147 l 12.17028,-1.9741 z m -80.8363,0.34598 c -4.28308,0.83072 -7.97689,1.52728 -12.17028,2.34042 v 13.1064 l 12.17028,-2.23867 z m -67.34327,0.14246 -12.17022,2.58464 v 11.2951 l 12.17022,-2.36077 z m 229.01584,0.7937 -12.17022,1.9741 v 14.83627 l 12.17022,-1.83164 z m -94.30905,1.20075 -12.17016,2.21832 v 12.5569 l 12.17016,-1.97411 z m -80.8363,0.46808 c -4.17686,0.80994 -8.08858,1.57343 -12.14984,2.36078 v 12.94358 l 12.14984,-2.23868 z m -67.34321,0.40703 -12.17021,2.58464 v 11.05089 l 12.17021,-2.36077 z m 229.01584,0.10176 -12.17021,1.99445 v 14.65311 l 12.17021,-1.83164 z m -94.30898,1.48566 -12.17028,2.23867 v 12.25163 l 12.17028,-1.9741 z m -80.81599,0.61058 c -4.05402,0.78593 -8.25849,1.6026 -12.17022,2.36078 v 12.82134 l 12.17022,-2.23867 z m 161.65225,0.10176 -12.17021,1.9741 v 14.49029 l 12.17021,-1.81129 z m -229.01584,0.56984 -12.17021,2.605 v 10.76596 l 12.17021,-2.36077 z m 134.70679,1.20074 -12.17015,2.23867 v 11.9667 l 12.17015,-1.97409 z m 80.83634,0.42738 -12.17022,1.9741 v 14.32749 l 12.17022,-1.83164 z m -161.65226,0.30528 c -3.89511,0.75494 -8.4437,1.63866 -12.17021,2.36078 v 12.679 l 12.17021,-2.23866 z m -67.36358,0.93617 -11.05092,2.36077 v 10.54211 l 11.05092,-2.15727 z m 134.70685,0.81406 -12.17028,2.21832 v 11.70217 l 12.17028,-1.99446 z m 80.83627,0.12211 -12.17022,1.99445 v 14.14432 l 12.17022,-1.83164 z m -161.65226,0.75301 c -3.70703,0.71832 -8.65802,1.68036 -12.17021,2.36078 v 12.53654 l 12.17021,-2.23867 z m 148.17954,1.44496 -12.17019,1.97409 v 13.98151 l 12.17019,-1.81129 z m -80.83633,0.14245 -12.17016,2.23867 v 11.39687 l 12.17016,-1.9741 z m -80.81592,1.01758 c -2.46296,0.47714 -6.23382,1.21277 -8.58835,1.66883 -1.47358,0.28543 -2.15329,0.41535 -3.58187,0.69195 v 12.41444 l 12.17022,-2.23867 z m 148.17957,1.03794 -12.17028,1.97409 v 13.81869 l 12.17028,-1.83164 z m -80.8363,0.42738 -12.17028,2.23866 v 11.11194 l 12.17028,-1.9741 z m 176.83446,0.46808 -13.85939,2.07585 v 16.13878 l 13.85939,-1.83164 z m -257.65045,0.6716 c -4.79742,0.92871 -7.95338,1.54556 -12.17021,2.36078 v 12.27197 l 12.17021,-2.23867 z m 148.17951,0.61055 -12.17016,1.97409 v 13.65588 l 12.17016,-1.83164 z m -80.8363,0.73265 -12.14984,2.21832 v 10.82702 l 12.14984,-1.9741 z m 175.14535,0.26457 -12.17022,1.81129 v 15.9149 l 12.17022,-1.60777 z m -255.96128,0.99723 c -4.15001,0.80219 -8.69013,1.68894 -12.17021,2.36078 v 12.14986 l 12.17021,-2.23867 z m 148.17958,0.20351 -12.17028,1.97411 v 13.47271 l 12.17028,-1.81129 z m 94.30898,0.81407 -12.17021,1.83164 v 15.67067 l 12.17021,-1.60777 z m -175.12497,0.18316 -12.17022,2.23867 v 10.54209 l 12.17022,-1.97409 z m 67.3432,1.18039 -12.17015,1.99445 v 13.30991 l 12.17015,-1.83164 z m -148.1795,0.22387 c -1.99224,0.38454 -5.38518,1.04871 -7.12304,1.38389 -1.67566,0.3232 -2.50594,0.47666 -3.92788,0.75302 v 12.0481 l 11.05092,-2.03515 z m 242.48855,0.42737 -12.17021,1.83164 v 15.44682 l 12.17021,-1.62813 z m -175.12497,0.65125 -12.17021,2.23867 v 10.23683 l 12.17021,-1.9741 z m 67.34327,0.89547 -12.17028,1.9741 v 13.14709 l 12.17028,-1.83163 z m 94.30899,0.48844 -12.17022,1.81129 v 15.20259 l 12.17022,-1.60777 z m -175.12498,1.07864 -12.17021,2.23866 v 9.97226 l 12.17021,-1.97411 z m 67.34321,0.63089 -12.17016,1.97409 v 12.96394 l 12.17016,-1.83164 z m 94.30905,0.30527 -12.17022,1.83164 v 14.95841 l 12.17022,-1.60777 z m -175.12497,1.54672 -12.17022,2.23867 v 9.68733 l 12.17022,-1.99445 z m 67.34327,0.32563 -12.17028,1.97409 v 12.80112 l 12.17028,-1.81129 z m 94.30898,0.14246 -12.17019,1.83163 v 14.73451 l 12.17019,-1.60777 z m -175.12497,2.01479 -12.17021,2.23867 v 9.38206 l 12.17021,-1.9741 z m 161.65229,0 -12.17028,1.83164 v 14.51065 l 12.17028,-1.62812 z m -94.30908,0.0408 -12.14984,1.9741 v 12.63831 l 12.14984,-1.83164 z m 80.8363,1.99446 -12.17016,1.81128 v 14.26643 l 12.17016,-1.60778 z m -94.28864,0.18316 -12.17022,1.9741 v 12.47549 l 12.17022,-1.83164 z m -67.36359,0.24422 -12.17021,2.23867 v 9.11748 l 12.17021,-1.97409 z m 148.17958,1.58741 -12.17028,1.83164 v 14.02221 l 12.17028,-1.60777 z m -94.28871,0.36633 -12.17021,1.97411 v 12.29232 l 12.17021,-1.81128 z m -67.36358,0.52915 -11.05092,2.03515 v 8.85291 l 11.05092,-1.81128 z m 148.1795,1.11933 -12.17015,1.83164 v 13.79834 l 12.17015,-1.60777 z m -94.28864,0.52914 -12.17021,1.99445 v 12.10917 l 12.17021,-1.8113 z m 80.81599,1.50602 -12.17028,1.81128 v 13.57448 l 12.17028,-1.62813 z m -94.2887,0.69195 -12.17022,1.97409 v 11.96671 l 12.17022,-1.83164 z m 80.81592,1.32285 -12.17016,1.83164 v 13.33025 l 12.17016,-1.62812 z m -94.28864,0.87511 -12.17021,1.9741 v 11.78354 l 12.17021,-1.83164 z m 80.81599,1.13969 -12.17028,1.83164 v 13.08604 l 12.17028,-1.60777 z m -94.28871,1.03793 -12.17021,1.99445 v 11.60037 l 12.17021,-1.81128 z m 80.81593,0.99722 -12.14984,1.81129 v 12.86217 l 12.14984,-1.60777 z m -94.28864,1.20075 -11.05092,1.79093 v 11.45791 l 11.05092,-1.64847 z m 80.8363,0.81406 -12.17022,1.81128 v 12.63831 l 12.17022,-1.62813 z m -13.47272,2.0148 -12.17021,1.83163 v 12.37374 l 12.17021,-1.60778 z m -13.47272,2.0148 -12.17021,1.83164 v 12.14986 l 12.17021,-1.60777 z m -13.47271,2.03515 -12.17022,1.81129 v 11.926 l 12.17022,-1.60777 z m -13.47272,2.0148 -12.17021,1.83164 v 11.68179 l 12.17021,-1.62813 z m -13.47272,2.0148 -12.17021,1.83164 v 11.45792 l 12.17021,-1.62812 z m -13.47271,2.03516 -11.05092,1.64848 v 11.23405 l 11.05092,-1.46532 z"
       id="rect6882"
       inkscape:connector-curvature="0" />
  </g>
  <g
     inkscape:groupmode="layer"
     id="layer8"
     inkscape:label="TEXTO"
     style="display:inline"
     transform="translate(-150.1474,-439.45185)">
    <g
       style="font-style:normal;font-variant:normal;font-weight:normal;font-stretch:normal;font-size:36px;line-height:100%;font-family:Arial;-inkscape-font-specification:Arial;text-align:center;letter-spacing:0px;word-spacing:0px;writing-mode:lr-tb;text-anchor:middle;fill:#000080;fill-opacity:1;stroke:none"
       id="text6827"
       transform="matrix(0.61054609,0,0,0.61054609,1013.1136,499.43786)">
      <path
         d="m -1381.3669,115.68822 -27.486,-0.29051 0.1959,-18.542718 3.2437,0.03428 -0.1576,14.905418 8.512,0.09 0.1363,-12.899279 3.2437,0.03428 -0.1365,12.899289 12.4869,0.13198 -0.038,3.63729"
         style="line-height:100%;font-family:Arial;-inkscape-font-specification:Arial;fill:#000080;stroke-width:1.06666672"
         id="path6842"
         inkscape:connector-curvature="0" />
      <path
         d="m -1380.5233,92.28478 -26.6106,-6.887433 4.98,-19.240978 3.1402,0.812773 -4.0685,15.719517 8.1501,2.109452 3.8103,-14.721163 3.1221,0.808075 -3.8102,14.721164 9.0578,2.344358 4.2283,-16.336679 3.1402,0.812773 -5.1397,19.858141"
         style="line-height:100%;font-family:Arial;-inkscape-font-specification:Arial;fill:#000080;stroke-width:1.06666672"
         id="path6844"
         inkscape:connector-curvature="0" />
      <path
         d="m -1373.4458,67.62955 -23.8776,-13.616769 4.6905,-8.225278 c 1.0589,-1.856769 1.9811,-3.208777 2.7663,-4.056028 1.0952,-1.18856 2.3309,-2.030749 3.7073,-2.52657 1.7824,-0.652708 3.6808,-0.814836 5.6951,-0.486384 2.0096,0.311464 4.0786,1.07402 6.2068,2.287672 1.8133,1.034134 3.2997,2.162328 4.4589,3.38458 1.1592,1.222305 2.0115,2.427799 2.5568,3.616482 0.5343,1.182536 0.8416,2.321836 0.9216,3.417904 0.076,1.079054 -0.07,2.255186 -0.4365,3.528395 -0.3601,1.262383 -0.952,2.615653 -1.7756,4.059815 l -4.9136,8.616181 m -1.0157,-4.7667 2.9073,-5.098043 c 0.8978,-1.574461 1.454,-2.89049 1.6687,-3.948089 0.2206,-1.068425 0.2168,-2.020387 -0.012,-2.85589 -0.3219,-1.176479 -0.9951,-2.330189 -2.0193,-3.461133 -1.029,-1.14795 -2.4447,-2.235892 -4.2472,-3.263832 -2.4974,-1.424192 -4.6492,-2.104502 -6.4555,-2.040935 -1.8108,0.04657 -3.2786,0.526162 -4.4035,1.438773 -0.8088,0.661217 -1.7487,1.931068 -2.82,3.809556 l -2.8609,5.016604 18.2423,10.402989"
         style="line-height:100%;font-family:Arial;-inkscape-font-specification:Arial;fill:#000080;stroke-width:1.06666672"
         id="path6846"
         inkscape:connector-curvature="0" />
      <path
         d="m -1358.8183,43.910906 -19.6196,-19.252028 13.9204,-14.185946 2.3153,2.271897 -11.3727,11.58965 6.0089,5.896427 10.6504,-10.853588 2.3018,2.258765 -10.6503,10.853586 6.6782,6.553045 11.8191,-12.044671 2.3152,2.271896 -14.3667,14.640967"
         style="line-height:100%;font-family:Arial;-inkscape-font-specification:Arial;fill:#000080;stroke-width:1.06666672"
         id="path6848"
         inkscape:connector-curvature="0" />
      <path
         d="m -1340.3597,26.032403 -14.2489,-23.505996 10.4221,-6.31772 c 2.0952,-1.269991 3.8175,-2.0216793 5.167,-2.2550674 1.343,-0.2440101 2.6645,-0.029194 3.9646,0.6444506 1.3,0.6737101 2.342,1.6572568 3.126,2.9506432 1.0109,1.66757512 1.3231,3.40045529 0.9369,5.1986456 -0.3863,1.7982401 -1.6132,3.535953 -3.6807,5.2131437 1.0628,-0.1034101 1.9245,-0.09231 2.5854,0.0333 1.414,0.2830172 2.9063,0.8036165 4.4768,1.5617996 l 7.9669,3.9191167 -3.9123,2.371575 -6.0751,-3.004805 c -1.764,-0.86021 -3.1667,-1.486259 -4.2081,-1.878149 -1.0416,-0.391857 -1.8883,-0.594891 -2.54,-0.609105 -0.6411,-0.02066 -1.2378,0.05601 -1.7901,0.229993 -0.3981,0.139021 -0.9979,0.451512 -1.7997,0.937474 l -3.6076,2.186903 6.3274,10.438201 -3.1106,1.885597 m -4.8497,-15.017527 6.6862,-4.0530607 c 1.4217,-0.8617803 2.4459,-1.6799766 3.0726,-2.4545912 0.6203,-0.7852579 0.9445,-1.6249344 0.9726,-2.519032 0.021,-0.9047359 -0.1976,-1.73658996 -0.6577,-2.49556487 -0.6738,-1.11166863 -1.634,-1.77938273 -2.8806,-2.00314443 -1.2359,-0.2301811 -2.7249,0.1828093 -4.4673,1.2389725 l -7.4398,4.5098801 4.714,7.7765406"
         style="line-height:100%;font-family:Arial;-inkscape-font-specification:Arial;fill:#000080;stroke-width:1.06666672"
         id="path6850"
         inkscape:connector-curvature="0" />
      <path
         d="m -1319.0859,13.29785 1.9972,-29.377013 3.745,-1.153558 18.843,22.9579286 -3.9601,1.2197914 -5.5149,-7.01231392 -10.9844,3.38340362 -0.4344,8.8447613 -3.6914,1.137 m 4.2572,-13.12208579 8.9058,-2.74315111 -4.9825,-6.4307331 c -1.517,-1.95244 -2.6975,-3.576914 -3.5415,-4.873423 0.1844,1.787461 0.2276,3.605264 0.1298,5.4534153 l -0.5116,8.59389191"
         style="line-height:100%;font-family:Arial;-inkscape-font-specification:Arial;fill:#000080;stroke-width:1.06666672"
         id="path6852"
         inkscape:connector-curvature="0" />
      <path
         d="m -1272.4993,-5.3529319 3.6894,0.6806853 c -0.567,3.0307036 -1.791,5.39639722 -3.672,7.0970881 -1.8695,1.6874124 -4.2323,2.6240259 -7.0888,2.8098433 -2.9562,0.1923099 -5.4026,-0.2498176 -7.3391,-1.3263839 -1.9248,-1.0898476 -3.448,-2.744463 -4.5693,-4.9638511 -1.1091,-2.2201859 -1.7487,-4.6400127 -1.9191,-7.2594875 -0.1858,-2.8564463 0.1949,-5.3802303 1.1422,-7.5713623 0.9589,-2.204374 2.4068,-3.920732 4.3437,-5.149077 1.9485,-1.241578 4.1327,-1.941089 6.5525,-2.098536 2.7442,-0.178486 5.0973,0.369921 7.0592,1.645226 1.9619,1.275358 3.3932,3.155158 4.2939,5.639408 l -3.519,1.074446 c -0.7659,-1.954377 -1.7835,-3.347508 -3.0526,-4.179398 -1.2693,-0.831841 -2.8206,-1.188133 -4.6542,-1.068879 -2.1081,0.137159 -3.8402,0.757158 -5.1965,1.86 -1.3438,1.102079 -2.2471,2.526214 -2.7097,4.272406 -0.4634,1.733758 -0.6363,3.504965 -0.5186,5.3136261 0.1517,2.3325817 0.6211,4.3501104 1.4083,6.052592 0.7989,1.68921306 1.9435,2.9174981 3.434,3.6848589 1.4904,0.7673698 3.0714,1.0966865 4.7429,0.987951 2.0332,-0.1322598 3.7164,-0.8304977 5.0497,-2.09471571 1.3332,-1.26420659 2.1742,-3.06635159 2.5231,-5.40644019"
         style="line-height:100%;font-family:Arial;-inkscape-font-specification:Arial;fill:#000080;stroke-width:1.06666672"
         id="path6854"
         inkscape:connector-curvature="0" />
      <path
         d="M -1263.1018,4.6621633 V -22.825337 h 3.6376 V 4.6621633 h -3.6376"
         style="line-height:100%;font-family:Arial;-inkscape-font-specification:Arial;fill:#000080;stroke-width:1.06666672"
         id="path6856"
         inkscape:connector-curvature="0" />
      <path
         d="m -1254.1767,-8.7253367 c 0,-4.5624823 1.2249,-8.1312283 3.6749,-10.7062503 2.4501,-2.587473 5.6125,-3.881222 9.4875,-3.881249 2.5375,2.7e-5 4.8251,0.606277 6.8625,1.81875 2.0376,1.212524 3.5875,2.906273 4.65,5.08125 1.075,2.162518 1.6125,4.618766 1.6125,7.3687493 0,2.7875109 -0.5624,5.2812584 -1.6874,7.48125 -1.1251,2.20000402 -2.7189,3.8687523 -4.7813,5.00625 -2.0625,1.125 -4.2875,1.6874996 -6.675,1.6875 -2.5875,-4e-7 -4.9,-0.6249998 -6.9376,-1.875 -2.0374,-1.2499974 -3.5812,-2.95624565 -4.6311,-5.11875 -1.05,-2.1624913 -1.575,-4.449989 -1.575,-6.8625 m 3.7499,0.05625 c 0,3.31251 0.8875,5.9250074 2.6625,7.83749996 1.7876,1.90000354 4.025,2.85000264 6.7126,2.85000004 2.7375,2.6e-6 4.9874,-0.9624964 6.7499,-2.88750004 1.775,-1.92499256 2.6625,-4.65623976 2.6625,-8.19374996 0,-2.2374843 -0.3812,-4.1874823 -1.1437,-5.8499993 -0.75,-1.674979 -1.8563,-2.968728 -3.3188,-3.88125 -1.45,-0.924976 -3.0812,-1.387476 -4.8937,-1.387501 -2.5751,2.5e-5 -4.7937,0.887524 -6.6562,2.6625 -1.8501,1.762521 -2.7751,4.712517 -2.7751,8.8500003 m 7.0875,-15.8437493 2.4938,-5.25 h 4.425 l -4.125,5.25 h -2.7938"
         style="line-height:100%;font-family:Arial;-inkscape-font-specification:Arial;fill:#000080;stroke-width:1.06666672"
         id="path6858"
         inkscape:connector-curvature="0" />
      <path
         d="M -1223.258,4.6621633 V -22.825337 h 3.7313 l 14.4374,21.5812503 V -22.825337 h 3.4876 V 4.6621633 h -3.7313 l -14.4376,-21.6000003 V 4.6621633 h -3.4874"
         style="line-height:100%;font-family:Arial;-inkscape-font-specification:Arial;fill:#000080;stroke-width:1.06666672"
         id="path6860"
         inkscape:connector-curvature="0" />
      <path
         d="M -1184.8205,4.6621633 V -22.825337 h 9.4687 c 2.1375,2.8e-5 3.7688,0.131277 4.8938,0.39375 1.575,0.362527 2.9187,1.018776 4.0312,1.968751 1.4501,1.225023 2.5312,2.793771 3.2438,4.706249 0.725,1.900018 1.0874,4.075017 1.0875,6.5250003 -1e-4,2.0875118 -0.2438,3.9375099 -0.7313,5.55 -0.4874,1.6125067 -1.1125,2.95000539 -1.875,4.01249999 -0.7625,1.05000331 -1.6,1.88125251 -2.5125,2.49375001 -0.8999,0.6000012 -1.9937,1.0562507 -3.2812,1.36875 -1.2751,0.3125002 -2.7438,0.46875 -4.4063,0.46875 h -9.9187 m 3.6375,-3.24375 h 5.8688 c 1.8124,3.2e-6 3.2312,-0.1687466 4.2562,-0.50625001 1.0375,-0.33749591 1.8625,-0.81249544 2.475,-1.425 0.8625,-0.86249399 1.5313,-2.01874279 2.0063,-3.46874999 0.4874,-1.4624899 0.7312,-3.2312382 0.7312,-5.30625 0,-2.8749833 -0.475,-5.0812313 -1.425,-6.6187503 -0.9375,-1.549977 -2.0813,-2.587477 -3.4313,-3.1125 -0.975,-0.374976 -2.5437,-0.562476 -4.7062,-0.5625 h -5.775 V 1.4184133"
         style="line-height:100%;font-family:Arial;-inkscape-font-specification:Arial;fill:#000080;stroke-width:1.06666672"
         id="path6862"
         inkscape:connector-curvature="0" />
      <path
         d="M -1156.9955,4.6621633 V -22.825337 h 19.875 v 3.24375 h -16.2375 v 8.418751 h 15.2062 v 3.2249993 h -15.2062 v 9.35625 h 16.875 v 3.24375 h -20.5125"
         style="line-height:100%;font-family:Arial;-inkscape-font-specification:Arial;fill:#000080;stroke-width:1.06666672"
         id="path6864"
         inkscape:connector-curvature="0" />
      <path
         d="m -1112.9142,4.6621633 -10.6501,-27.4875003 h 3.9375 l 7.1438,19.9687503 c 0.5749,1.6000059 1.0562,3.10000441 1.4437,4.5 0.425,-1.49999549 0.9188,-2.999994 1.4813,-4.5 l 7.425,-19.9687503 h 3.7125 l -10.7625,27.4875003 h -3.7312"
         style="line-height:100%;font-family:Arial;-inkscape-font-specification:Arial;fill:#000080;stroke-width:1.06666672"
         id="path6866"
         inkscape:connector-curvature="0" />
      <path
         d="m -1096.2268,-8.7253367 c 0,-4.5624823 1.225,-8.1312283 3.675,-10.7062503 2.45,-2.587473 5.6125,-3.881222 9.4876,-3.881249 2.5374,2.7e-5 4.8249,0.606277 6.8625,1.81875 2.0374,1.212524 3.5874,2.906273 4.6499,5.08125 1.075,2.162518 1.6125,4.618766 1.6125,7.3687493 0,2.7875109 -0.5625,5.2812584 -1.6875,7.48125 -1.125,2.20000402 -2.7187,3.8687523 -4.7812,5.00625 -2.0625,1.125 -4.2876,1.6874996 -6.675,1.6875 -2.5875,-4e-7 -4.9,-0.6249998 -6.9375,-1.875 -2.0375,-1.2499974 -3.5813,-2.95624565 -4.6312,-5.11875 -1.0501,-2.1624913 -1.5751,-4.449989 -1.5751,-6.8625 m 3.75,0.05625 c 0,3.31251 0.8876,5.9250074 2.6625,7.83749996 1.7875,1.90000354 4.0251,2.85000264 6.7125,2.85000004 2.7375,2.6e-6 4.9876,-0.9624964 6.75,-2.88750004 1.7751,-1.92499256 2.6625,-4.65623976 2.6625,-8.19374996 0,-2.2374843 -0.3812,-4.1874823 -1.1437,-5.8499993 -0.75,-1.674979 -1.8563,-2.968728 -3.3188,-3.88125 -1.45,-0.924976 -3.0813,-1.387476 -4.8937,-1.387501 -2.575,2.5e-5 -4.7938,0.887524 -6.6563,2.6625 -1.85,1.762521 -2.775,4.712517 -2.775,8.8500003"
         style="line-height:100%;font-family:Arial;-inkscape-font-specification:Arial;fill:#000080;stroke-width:1.06666672"
         id="path6868"
         inkscape:connector-curvature="0" />
      <path
         d="M -1065.4205,4.6621633 V -22.825337 h 3.6375 V 1.4184133 h 13.5375 v 3.24375 h -17.175"
         style="line-height:100%;font-family:Arial;-inkscape-font-specification:Arial;fill:#000080;stroke-width:1.06666672"
         id="path6870"
         inkscape:connector-curvature="0" />
      <path
         d="M -1043.8205,4.6621633 V -22.825337 h 19.875 v 3.24375 h -16.2375 v 8.418751 h 15.2062 v 3.2249993 h -15.2062 v 9.35625 h 16.875 v 3.24375 h -20.5125"
         style="line-height:100%;font-family:Arial;-inkscape-font-specification:Arial;fill:#000080;stroke-width:1.06666672"
         id="path6872"
         inkscape:connector-curvature="0" />
      <path
         d="M -1017.6268,4.6621633 V -22.825337 h 3.6375 V 4.6621633 h -3.6375"
         style="line-height:100%;font-family:Arial;-inkscape-font-specification:Arial;fill:#000080;stroke-width:1.06666672"
         id="path6874"
         inkscape:connector-curvature="0" />
      <path
         d="M -1007.7455,4.6621633 V -22.825337 h 10.3125 c 2.09998,2.8e-5 3.78122,0.281277 5.04374,0.84375 1.27499,0.550026 2.26873,1.406275 2.98125,2.568751 0.72498,1.150022 1.08748,2.356271 1.0875,3.61875 -2e-5,1.175018 -0.31876,2.281268 -0.95625,3.318749 -0.63752,1.037516 -1.60002,1.875016 -2.8875,2.5125003 1.66248,0.4875141 2.93748,1.3187633 3.82501,2.49375 0.89996,1.175011 1.34997,2.5625095 1.34999,4.1625 -2e-5,1.2875067 -0.27502,2.48750547 -0.825,3.59999999 -0.53752,1.10000321 -1.20627,1.95000241 -2.00625,2.55000001 -0.80001,0.6000012 -1.80626,1.0562507 -3.01874,1.36875 -1.20002,0.3000001 -2.67502,0.45 -4.42501,0.45 h -10.48124 m 3.6375,-15.9375003 h 5.94374 c 1.61248,1.6e-5 2.76874,-0.10624 3.46875,-0.318749 0.92498,-0.274984 1.61873,-0.731233 2.08125,-1.36875 0.47499,-0.637483 0.71248,-1.437482 0.7125,-2.4 -2e-5,-0.91248 -0.21876,-1.712479 -0.65625,-2.4 -0.43752,-0.699978 -1.06251,-1.174977 -1.87499,-1.425001 -0.81253,-0.262476 -2.20627,-0.393726 -4.18126,-0.39375 h -5.49374 v 8.30625 m 0,12.6937503 h 6.84374 c 1.17499,3.2e-6 1.99998,-0.043747 2.475,-0.13125 0.83748,-0.1499965 1.53748,-0.39999624 2.1,-0.75000001 0.56249,-0.34999552 1.02498,-0.85624502 1.3875,-1.51875 0.36249,-0.67499369 0.54373,-1.44999289 0.54375,-2.32499999 -2e-5,-1.024991 -0.26251,-1.9124901 -0.78749,-2.6625 -0.52503,-0.7624887 -1.25627,-1.293738 -2.19375,-1.59375 -0.92503,-0.3124875 -2.26252,-0.4687373 -4.0125,-0.46875 h -6.35625 v 9.45"
         style="line-height:100%;font-family:Arial;-inkscape-font-specification:Arial;fill:#000080;stroke-width:1.06666672"
         id="path6876"
         inkscape:connector-curvature="0" />
      <path
         d="m -983.05175,-8.7253367 c 0,-4.5624823 1.22499,-8.1312283 3.67499,-10.7062503 2.45,-2.587473 5.61249,-3.881222 9.4875,-3.881249 2.53748,2.7e-5 4.82498,0.606277 6.8625,1.81875 2.03748,1.212524 3.58747,2.906273 4.65,5.08125 1.07498,2.162518 1.61247,4.618766 1.6125,7.3687493 -3e-5,2.7875109 -0.56252,5.2812584 -1.68749,7.48125 -1.12503,2.20000402 -2.71878,3.8687523 -4.78125,5.00625 -2.06253,1.125 -4.28752,1.6874996 -6.67501,1.6875 -2.58751,-4e-7 -4.90001,-0.6249998 -6.93749,-1.875 -2.03752,-1.2499974 -3.58126,-2.95624565 -4.63126,-5.11875 -1.05,-2.1624913 -1.57499,-4.449989 -1.57499,-6.8625 m 3.74999,0.05625 c 0,3.31251 0.8875,5.9250074 2.66251,7.83749996 1.78748,1.90000354 4.02498,2.85000264 6.71249,2.85000004 2.73748,2.6e-6 4.98749,-0.9624964 6.75,-2.88750004 1.77498,-1.92499256 2.66248,-4.65623976 2.6625,-8.19374996 -2e-5,-2.2374843 -0.38127,-4.1874823 -1.14375,-5.8499993 -0.75002,-1.674979 -1.85627,-2.968728 -3.31875,-3.88125 -1.45001,-0.924976 -3.08127,-1.387476 -4.89375,-1.387501 -2.57502,2.5e-5 -4.79376,0.887524 -6.65625,2.6625 -1.85001,1.762521 -2.775,4.712517 -2.775,8.8500003"
         style="line-height:100%;font-family:Arial;-inkscape-font-specification:Arial;fill:#000080;stroke-width:1.06666672"
         id="path6878"
         inkscape:connector-curvature="0" />
      <path
         d="M -952.2455,4.6621633 V -22.825337 h 3.63749 V 1.4184133 h 13.5375 v 3.24375 h -17.17499"
         style="line-height:100%;font-family:Arial;-inkscape-font-specification:Arial;fill:#000080;stroke-width:1.06666672"
         id="path6880"
         inkscape:connector-curvature="0" />
    </g>
    <g
       aria-label="CASTILLA-LA MANCHA"
       transform="matrix(0.96888551,-0.12492986,0,1.0321137,0,0)"
       style="font-style:normal;font-variant:normal;font-weight:normal;font-stretch:normal;font-size:27.45357895px;line-height:100%;font-family:Arial;-inkscape-font-specification:Arial;text-align:center;letter-spacing:0px;word-spacing:0px;writing-mode:lr-tb;text-anchor:middle;fill:#000080;fill-opacity:1;stroke:none;stroke-width:0.65124923"
       id="text6831">
      <path
         d="m 168.83389,687.20008 3.84726,1.21986 q -0.88474,3.21722 -2.94912,4.78561 -2.05097,1.55499 -5.21457,1.55499 -3.91428,0 -6.43443,-2.66761 -2.52015,-2.68101 -2.52015,-7.31916 0,-4.90626 2.53355,-7.61408 2.53356,-2.72123 6.66232,-2.72123 3.60597,0 5.85802,2.1314 1.3405,1.26008 2.01076,3.61937 l -3.92769,0.93836 q -0.34853,-1.52818 -1.46115,-2.41291 -1.09922,-0.88474 -2.68101,-0.88474 -2.18503,0 -3.55235,1.56839 -1.35391,1.5684 -1.35391,5.08052 0,3.72661 1.34051,5.30841 1.34051,1.5818 3.48532,1.5818 1.58179,0 2.72123,-1.00538 1.13943,-1.00538 1.63541,-3.1636 z"
         style="font-weight:bold;-inkscape-font-specification:'Arial Bold';fill:#000080;stroke-width:0.65124923"
         id="path4577" />
      <path
         d="m 193.82094,694.42542 h -4.31643 l -1.71585,-4.46389 h -7.85537 l -1.62201,4.46389 h -4.20919 l 7.65429,-19.65183 h 4.19579 z m -7.30576,-7.77494 -2.70783,-7.29236 -2.6542,7.29236 z"
         style="font-weight:bold;-inkscape-font-specification:'Arial Bold';fill:#000080;stroke-width:0.65124923"
         id="path4579" />
      <path
         d="m 194.98718,688.0312 3.86066,-0.37534 q 0.34853,1.94373 1.40753,2.85528 1.07241,0.91154 2.88209,0.91154 1.91693,0 2.88209,-0.8043 0.97857,-0.81771 0.97857,-1.90352 0,-0.69707 -0.41556,-1.17965 -0.40215,-0.49599 -1.42093,-0.85792 -0.69707,-0.2413 -3.177,-0.85793 -3.19041,-0.7909 -4.4773,-1.94373 -1.80968,-1.62202 -1.80968,-3.9545 0,-1.50137 0.84452,-2.80166 0.85792,-1.31369 2.45313,-1.99735 1.6086,-0.68366 3.87406,-0.68366 3.6998,0 5.5631,1.62201 1.87671,1.62202 1.97055,4.32984 l -3.9679,0.17426 q -0.2547,-1.51477 -1.09922,-2.17162 -0.83111,-0.67025 -2.50675,-0.67025 -1.72925,0 -2.70782,0.71047 -0.63004,0.45577 -0.63004,1.21986 0,0.69706 0.58983,1.19305 0.75068,0.63004 3.64617,1.3137 2.8955,0.68366 4.27622,1.42094 1.39413,0.72387 2.17162,1.99735 0.7909,1.26008 0.7909,3.12338 0,1.68904 -0.93835,3.1636 -0.93836,1.47455 -2.65421,2.19843 -1.71585,0.71047 -4.27621,0.71047 -3.72661,0 -5.72397,-1.71585 -1.99735,-1.72926 -2.3861,-5.0269 z"
         style="font-weight:bold;-inkscape-font-specification:'Arial Bold';fill:#000080;stroke-width:0.65124923"
         id="path4581" />
      <path
         d="m 218.75437,694.42542 v -16.32738 h -5.83121 v -3.32445 h 15.61691 v 3.32445 h -5.8178 v 16.32738 z"
         style="font-weight:bold;-inkscape-font-specification:'Arial Bold';fill:#000080;stroke-width:0.65124923"
         id="path4583" />
      <path
         d="m 230.93957,694.42542 v -19.65183 h 3.9679 v 19.65183 z"
         style="font-weight:bold;-inkscape-font-specification:'Arial Bold';fill:#000080;stroke-width:0.65124923"
         id="path4585" />
      <path
         d="m 238.78153,694.42542 v -19.49097 h 3.9679 v 16.17991 h 9.86613 v 3.31106 z"
         style="font-weight:bold;-inkscape-font-specification:'Arial Bold';fill:#000080;stroke-width:0.65124923"
         id="path4587" />
      <path
         d="m 255.56468,694.42542 v -19.49097 h 3.9679 v 16.17991 h 9.86613 v 3.31106 z"
         style="font-weight:bold;-inkscape-font-specification:'Arial Bold';fill:#000080;stroke-width:0.65124923"
         id="path4589" />
      <path
         d="m 289.96208,694.42542 h -4.31643 l -1.71585,-4.46389 h -7.85537 l -1.62201,4.46389 h -4.20919 l 7.65429,-19.65183 h 4.19579 z m -7.30576,-7.77494 -2.70782,-7.29236 -2.65421,7.29236 z"
         style="font-weight:bold;-inkscape-font-specification:'Arial Bold';fill:#000080;stroke-width:0.65124923"
         id="path4591" />
      <path
         d="m 291.67793,689.18403 v -3.76682 h 7.3996 v 3.76682 z"
         style="font-weight:bold;-inkscape-font-specification:'Arial Bold';fill:#000080;stroke-width:0.65124923"
         id="path4593" />
      <path
         d="m 301.35639,694.42542 v -19.49097 h 3.9679 v 16.17991 h 9.86613 v 3.31106 z"
         style="font-weight:bold;-inkscape-font-specification:'Arial Bold';fill:#000080;stroke-width:0.65124923"
         id="path4595" />
      <path
         d="m 335.75379,694.42542 h -4.31643 l -1.71585,-4.46389 h -7.85537 l -1.62201,4.46389 h -4.20919 l 7.65429,-19.65183 h 4.19579 z m -7.30576,-7.77494 -2.70782,-7.29236 -2.65421,7.29236 z"
         style="font-weight:bold;-inkscape-font-specification:'Arial Bold';fill:#000080;stroke-width:0.65124923"
         id="path4597" />
      <path
         d="m 344.52071,694.42542 v -19.65183 h 5.93845 l 3.56574,13.40506 3.52554,-13.40506 h 5.95185 v 19.65183 h -3.6864 v -15.46945 l -3.90087,15.46945 h -3.82044 l -3.88747,-15.46945 v 15.46945 z"
         style="font-weight:bold;-inkscape-font-specification:'Arial Bold';fill:#000080;stroke-width:0.65124923"
         id="path4599" />
      <path
         d="m 385.19168,694.42542 h -4.31644 l -1.71585,-4.46389 h -7.85537 l -1.62201,4.46389 h -4.20919 l 7.65429,-19.65183 h 4.19579 z m -7.30577,-7.77494 -2.70782,-7.29236 -2.6542,7.29236 z"
         style="font-weight:bold;-inkscape-font-specification:'Arial Bold';fill:#000080;stroke-width:0.65124923"
         id="path4601" />
      <path
         d="m 387.40352,694.42542 v -19.65183 h 3.86066 l 8.04304,13.12356 v -13.12356 h 3.68639 v 19.65183 h -3.9813 l -7.9224,-12.81525 v 12.81525 z"
         style="font-weight:bold;-inkscape-font-specification:'Arial Bold';fill:#000080;stroke-width:0.65124923"
         id="path4603" />
      <path
         d="m 419.77675,687.20008 3.84725,1.21986 q -0.88473,3.21722 -2.94911,4.78561 -2.05098,1.55499 -5.21457,1.55499 -3.91428,0 -6.43444,-2.66761 -2.52015,-2.68101 -2.52015,-7.31916 0,-4.90626 2.53356,-7.61408 2.53356,-2.72123 6.66232,-2.72123 3.60596,0 5.85801,2.1314 1.34051,1.26008 2.01076,3.61937 l -3.92768,0.93836 q -0.34853,-1.52818 -1.46115,-2.41291 -1.09922,-0.88474 -2.68102,-0.88474 -2.18502,0 -3.55234,1.56839 -1.35391,1.5684 -1.35391,5.08052 0,3.72661 1.3405,5.30841 1.34051,1.5818 3.48532,1.5818 1.5818,0 2.72123,-1.00538 1.13943,-1.00538 1.63542,-3.1636 z"
         style="font-weight:bold;-inkscape-font-specification:'Arial Bold';fill:#000080;stroke-width:0.65124923"
         id="path4605" />
      <path
         d="m 427.05569,694.42542 v -19.65183 h 3.9679 v 7.73472 h 7.77494 v -7.73472 h 3.9679 v 19.65183 h -3.9679 v -8.59265 h -7.77494 v 8.59265 z"
         style="font-weight:bold;-inkscape-font-specification:'Arial Bold';fill:#000080;stroke-width:0.65124923"
         id="path4607" />
      <path
         d="m 464.6033,694.42542 h -4.31644 l -1.71584,-4.46389 h -7.85537 l -1.62202,4.46389 h -4.20919 l 7.6543,-19.65183 h 4.19578 z m -7.30577,-7.77494 -2.70782,-7.29236 -2.6542,7.29236 z"
         style="font-weight:bold;-inkscape-font-specification:'Arial Bold';fill:#000080;stroke-width:0.65124923"
         id="path4609" />
    </g>
  </g>
  <g
     inkscape:label="FVCM"
     inkscape:groupmode="layer"
     id="layer1"
     style="display:inline"
     transform="translate(-150.1474,-439.45185)">
    <path
       style="fill:none;stroke:#000080;stroke-width:0.65124923px;stroke-linecap:butt;stroke-linejoin:miter;stroke-opacity:1"
       d="m 252.15823,511.45034 c -42.40245,1.41491 -35.00888,50.00967 -18.00366,56.41151"
       id="path6821"
       inkscape:connector-curvature="0"
       sodipodi:nodetypes="cc" />
    <path
       style="fill:none;stroke:#000080;stroke-width:0.65124923px;stroke-linecap:butt;stroke-linejoin:miter;stroke-opacity:1"
       d="m 245.5569,575.66345 c -27.64344,-15.20488 -19.14509,-61.64239 19.20391,-63.21291"
       id="path6823"
       inkscape:connector-curvature="0"
       sodipodi:nodetypes="cc" />
    <path
       style="fill:none;stroke:#000080;stroke-width:0.65124923px;stroke-linecap:butt;stroke-linejoin:miter;stroke-opacity:1"
       d="m 270.762,513.65078 c -28.50784,1.65024 -48.50595,39.15317 -21.80441,63.613"
       id="path6825"
       inkscape:connector-curvature="0"
       sodipodi:nodetypes="cc" />
    <g
       transform="matrix(-0.16231186,0.37837548,0.37837548,0.16231186,131.29608,172.07863)"
       id="layer1-0"
       inkscape:label="Capa 1"
       style="stroke:#000080">
      <g
         transform="matrix(0.53026773,0,0,0.53026773,405.05087,455.25079)"
         id="g4782"
         style="stroke:#000080">
        <g
           id="g4564"
           transform="translate(4.5470412e-6,-2.0433916e-6)"
           style="stroke:#000080">
          <path
             inkscape:connector-curvature="0"
             id="path4545"
             d="m 733.81531,433.42999 c 0,90.42712 -73.30566,163.73278 -163.73278,163.73278 -90.42711,0 -163.73277,-73.30566 -163.73277,-163.73278 0,-90.42712 73.30566,-163.73278 163.73277,-163.73278 90.42712,0 163.73278,73.30566 163.73278,163.73278 z"
             inkscape:transform-center-y="-168.82301"
             style="fill:#ffffff;stroke:#000080;stroke-width:10.18045139;stroke-linecap:square;stroke-linejoin:miter;stroke-miterlimit:4;stroke-dashoffset:0;stroke-opacity:1" />
          <path
             sodipodi:nodetypes="ccc"
             inkscape:connector-curvature="0"
             id="path4547"
             d="m 429.85919,345.29026 c 28.15085,55.23291 82.28283,71.49413 139.3147,83.40551 30.99311,84.07796 15.97804,126.74855 -0.91655,167.72758"
             style="fill:none;stroke:#000080;stroke-width:6.4000001;stroke-linecap:butt;stroke-linejoin:miter;stroke-opacity:1" />
          <path
             sodipodi:nodetypes="cc"
             inkscape:connector-curvature="0"
             id="path4549"
             d="m 568.25734,428.69577 c 40.29414,-46.10872 86.19425,-75.21275 141.1478,-79.73933"
             style="fill:none;stroke:#000080;stroke-width:6.4000001;stroke-linecap:butt;stroke-linejoin:miter;stroke-opacity:1" />
          <path
             style="fill:none;stroke:#000080;stroke-width:6.4000001;stroke-linecap:butt;stroke-linejoin:miter;stroke-opacity:1"
             d="m 414.27794,389.28437 c 28.15085,55.23292 89.63183,87.41698 165.4445,85.4469"
             id="path4551"
             inkscape:connector-curvature="0"
             sodipodi:nodetypes="cc" />
          <path
             style="fill:none;stroke:#000080;stroke-width:6.4000001;stroke-linecap:butt;stroke-linejoin:miter;stroke-opacity:1"
             d="m 525.89634,416.0141 c 25.59613,-58.76534 88.23565,-106.2419 143.1892,-110.76847"
             id="path4553"
             inkscape:connector-curvature="0"
             sodipodi:nodetypes="cc" />
          <path
             sodipodi:nodetypes="cc"
             inkscape:connector-curvature="0"
             id="path4555"
             d="M 471.71193,391.68402 C 489.14249,350.47463 554.63995,278.90967 609.59349,274.3831"
             style="fill:none;stroke:#000080;stroke-width:6.4000001;stroke-linecap:butt;stroke-linejoin:miter;stroke-opacity:1" />
          <path
             sodipodi:nodetypes="cc"
             inkscape:connector-curvature="0"
             id="path4557"
             d="m 407.24556,443.96874 c 24.88462,60.94881 80.64971,101.70671 177.28455,88.30485"
             style="fill:none;stroke:#000080;stroke-width:6.4000001;stroke-linecap:butt;stroke-linejoin:miter;stroke-opacity:1" />
          <path
             style="fill:none;stroke:#000080;stroke-width:6.4000001;stroke-linecap:butt;stroke-linejoin:miter;stroke-opacity:1"
             d="m 611.90987,388.73449 c 53.85668,69.37993 31.4926,147.16244 7.6573,200.7981"
             id="path4559"
             inkscape:connector-curvature="0"
             sodipodi:nodetypes="cc" />
          <path
             sodipodi:nodetypes="cc"
             inkscape:connector-curvature="0"
             id="path4561"
             d="m 673.11835,355.63058 c 39.56695,69.37995 34.75883,125.52371 15.82286,191.81599"
             style="fill:none;stroke:#000080;stroke-width:6.4000001;stroke-linecap:butt;stroke-linejoin:miter;stroke-opacity:1" />
        </g>
      </g>
    </g>
    <g
       aria-label="V"
       transform="matrix(0.93817141,-0.11152027,0,1.0659033,0,0)"
       style="font-style:normal;font-variant:normal;font-weight:normal;font-stretch:normal;font-size:96.56561279px;line-height:100%;font-family:'Cooper BlkHd BT';-inkscape-font-specification:'Cooper BlkHd BT';text-align:center;letter-spacing:0px;word-spacing:0px;writing-mode:lr-tb;text-anchor:middle;fill:#ffffff;fill-opacity:1;stroke:#000080;stroke-width:3.90749526"
       id="text6466">
      <path
         d="m 240.23877,598.62567 -6.60116,-16.22001 q -0.42437,-1.08447 -1.27309,-3.11197 -4.62081,-11.45774 -6.03535,-12.21216 -0.66011,-0.28291 -1.9332,-0.70727 -3.67779,-1.08447 -3.67779,-3.86639 0,-4.29076 4.76227,-6.41256 4.76227,-2.16896 14.23966,-2.16896 9.33593,0 13.57954,1.88605 4.29075,1.8389 4.29075,5.84675 0,2.59331 -2.1218,3.81924 -2.1218,1.17878 -2.1218,1.69744 0,0.42436 1.55599,4.29076 0.1886,0.47151 0.2829,0.70727 l 5.13948,12.63651 q 0.70727,1.79175 1.41454,2.68762 0.75442,0.89587 1.46168,0.89587 1.03733,0 1.9332,-1.22593 0.94303,-1.22593 3.11198,-6.22395 0.56581,-1.32023 1.60314,-3.72494 4.055,-9.24164 4.055,-11.03338 0,-0.70727 -2.40471,-1.9332 -2.40471,-1.27308 -2.40471,-3.34773 0,-3.34774 3.44204,-5.13948 3.48918,-1.8389 9.99605,-1.8389 8.72297,0 11.78779,1.41454 3.06483,1.41453 3.06483,5.23378 0,3.9607 -3.7721,4.43221 -0.61296,0.0943 -0.84872,0.14145 -3.25343,0.56582 -7.63849,11.12768 -1.27308,3.06483 -2.0275,4.90372 l -6.97837,16.50292 -1.46169,3.53633 q -10.56186,24.84868 -17.35163,24.84868 -6.31826,0 -14.52257,-20.88798 -1.65029,-4.2436 -2.54616,-6.55401 z"
         style="stroke:#000080;stroke-width:3.90749526"
         id="path4550" />
    </g>
    <g
       aria-label="C"
       transform="matrix(0.9047848,-0.12464943,0,1.1052352,0,0)"
       style="font-style:normal;font-variant:normal;font-weight:normal;font-stretch:normal;font-size:100.45314789px;line-height:100%;font-family:'Cooper BlkHd BT';-inkscape-font-specification:'Cooper BlkHd BT';text-align:center;letter-spacing:0px;word-spacing:0px;writing-mode:lr-tb;text-anchor:middle;fill:#ffffff;fill-opacity:1;stroke:#000080;stroke-width:3.90749526"
       id="text6470">
      <path
         d="m 345.93255,617.84447 q -5.05209,3.62965 -10.88897,5.49353 -5.83687,1.81482 -12.26234,1.81482 -8.82889,0 -16.1863,-3.23725 -7.30836,-3.23726 -12.85094,-9.61369 -4.5616,-5.24828 -6.96502,-11.5266 -2.40342,-6.32737 -2.40342,-12.99809 0,-7.50456 2.99202,-14.71482 2.99201,-7.21026 8.28934,-12.60569 5.34639,-5.44448 12.36045,-8.38744 7.06311,-2.99202 14.66577,-2.99202 5.83687,0 11.86995,2.01103 6.08212,2.01102 6.52357,2.01102 0.53954,0 2.25627,-0.44144 1.76578,-0.44145 2.94296,-0.44145 4.12015,0 7.45551,5.68973 3.38441,5.68973 3.38441,12.4095 0,4.95399 -2.79582,8.0441 -2.74676,3.09011 -6.91596,3.09011 -4.75779,0 -8.2403,-5.73878 -0.98099,-1.56958 -1.52053,-2.40342 -2.94296,-4.02205 -6.86691,-6.27832 -3.92396,-2.25627 -7.99505,-2.25627 -5.54259,0 -8.7308,3.72775 -3.13916,3.67871 -3.13916,10.25132 0,10.88897 6.62167,18.54067 6.62167,7.65171 15.6958,7.65171 3.92396,0 7.40646,-1.37339 3.53156,-1.42243 6.71977,-4.21824 0.34334,-0.2943 0.83384,-0.73574 1.81483,-1.71673 3.09011,-1.71673 2.01102,0 3.43346,2.06007 1.42243,2.06008 1.42243,5.10114 0,2.64866 -1.03004,5.49353 -0.98099,2.79581 -2.69771,4.95399 -1.37339,1.86387 -2.64867,2.64866 -1.22624,0.73575 -2.79582,0.73575 -0.34334,0 -0.58859,0 -0.1962,-0.049 -0.44144,-0.049 z"
         style="stroke:#000080;stroke-width:3.90749526"
         id="path4546" />
    </g>
    <g
       aria-label="M"
       transform="matrix(0.92434855,-0.21698774,0,1.081843,0,0)"
       style="font-style:normal;font-variant:normal;font-weight:normal;font-stretch:normal;font-size:98.42293549px;line-height:100%;font-family:'Cooper BlkHd BT';-inkscape-font-specification:'Cooper BlkHd BT';text-align:center;letter-spacing:0px;word-spacing:0px;writing-mode:lr-tb;text-anchor:middle;fill:#ffffff;fill-opacity:1;stroke:#000080;stroke-width:3.90749526"
       id="text6474">
      <path
         d="m 347.36642,638.43337 q 0,-3.31601 3.94076,-4.99804 1.34563,-0.52864 1.77815,-0.9131 1.39369,-1.24951 2.11456,-9.03492 0.76893,-7.78541 0.76893,-21.19361 0,-1.63398 0.048,-4.22911 0.0481,-2.59514 0.0481,-3.65241 0,-4.42135 -0.57669,-6.43979 -0.5767,-2.01844 -2.01844,-3.12377 -0.5767,-0.43252 -1.68204,-1.1534 -3.60435,-2.4029 -3.60435,-5.23833 0,-3.41212 3.79659,-5.09415 3.84464,-1.68203 11.63005,-1.68203 4.4694,0 7.92958,0.52864 3.50824,0.48058 4.4694,1.15339 1.4898,0.9131 6.10338,9.13103 0.52864,0.91311 0.81699,1.39369 2.06649,3.70047 4.99804,9.27521 4.51746,8.65045 6.72813,8.65045 2.25873,0 5.91114,-7.92958 3.46018,-7.44901 6.39172,-12.44704 3.02766,-5.33445 6.68008,-7.59318 3.70047,-2.25873 11.38976,-2.25873 8.3621,0 11.67811,1.58592 3.31601,1.58591 3.31601,5.19027 0,2.49902 -2.83543,4.13299 -0.57669,0.33641 -0.86504,0.52864 -1.77815,1.39369 -2.54708,6.58396 -0.76893,5.19027 -0.76893,16.62809 0,10.52472 0.5767,17.30091 0.57669,6.77619 1.4898,7.59317 0.3364,0.28835 1.34562,0.86505 3.50824,2.01844 3.50824,5.33445 0,3.70047 -4.18105,5.23833 -4.18105,1.53785 -14.84995,1.53785 -10.47666,0 -14.56159,-1.53785 -4.03688,-1.58592 -4.03688,-5.43057 0,-2.83542 2.9796,-4.61357 1.15339,-0.72087 1.53786,-1.1534 1.05728,-1.24951 1.44174,-4.37328 0.43252,-3.12378 0.43252,-11.10142 0,-2.16261 -0.57669,-3.21989 -0.5767,-1.05727 -1.77815,-1.05727 -1.82621,0 -4.27717,5.91114 -1.00922,2.35484 -1.63397,3.74853 -1.34563,3.02766 -3.46019,8.0257 -5.52667,12.92762 -8.21793,12.92762 -2.49902,0 -8.3621,-12.73539 -0.81699,-1.77815 -1.29757,-2.78737 -1.58592,-3.50824 -3.65241,-8.9388 -2.73931,-7.1126 -4.51746,-7.1126 -1.24951,0 -1.73009,2.30679 -0.43253,2.25873 -0.43253,10.95724 0,5.57474 0.48059,7.1126 0.52863,1.53786 2.06649,2.25873 0.0961,0.0481 0.24029,0.0961 3.98882,1.77815 3.98882,4.90193 0,3.17183 -3.17183,4.51746 -3.17183,1.29756 -10.90918,1.29756 -7.54512,0 -10.81307,-1.34562 -3.26795,-1.34563 -3.26795,-4.32523 z"
         style="stroke:#000080;stroke-width:3.90749526"
         id="path4542" />
    </g>
    <g
       aria-label="F"
       transform="matrix(0.88684057,-0.08697979,0,1.1275984,0,0)"
       style="font-style:normal;font-variant:normal;font-weight:normal;font-stretch:normal;font-size:90.02963257px;line-height:100%;font-family:'Cooper BlkHd BT';-inkscape-font-specification:'Cooper BlkHd BT';text-align:center;letter-spacing:0px;word-spacing:0px;writing-mode:lr-tb;text-anchor:middle;fill:#ffffff;fill-opacity:1;stroke:#000080;stroke-width:3.90749526"
       id="text6462">
      <path
         d="m 193.92721,595.08033 q 0,-3.20907 3.60471,-4.96746 0.87919,-0.4396 1.36275,-0.70336 1.18691,-0.74731 1.67047,-4.30806 0.48356,-3.6047 0.48356,-14.50672 0,-10.85807 -0.35168,-16.92452 -0.30772,-6.06645 -0.92316,-6.94564 -0.43959,-0.6594 -3.1651,-1.80236 -2.68155,-1.18691 -2.68155,-3.78054 0,-2.76946 2.19799,-4.13222 2.19799,-1.36275 6.63793,-1.36275 0.17584,0 4.96745,0.13188 4.83558,0.13188 9.4074,0.13188 14.81444,0 28.0903,-1.27483 1.67047,-0.17584 1.89027,-0.17584 3.03322,0 5.40705,4.52785 2.41779,4.4839 2.41779,10.15471 0,3.07719 -1.31879,4.7037 -1.3188,1.62651 -3.78054,1.62651 -2.15403,0 -5.09934,-3.29698 -1.27483,-1.40671 -2.02215,-2.11007 -2.37383,-2.19799 -5.36309,-3.12115 -2.94531,-0.92315 -8.22048,-0.92315 -4.43994,0 -5.40706,1.97819 -0.92315,1.93423 -0.92315,11.42954 0,1.18692 0.57148,1.49463 0.61543,0.30772 3.47282,0.30772 3.78054,0 4.7037,-4.35201 v -0.0879 q 0.48355,-2.24195 1.40671,-3.07719 0.92315,-0.87919 2.63759,-0.87919 3.25302,0 4.70369,3.51678 1.49464,3.47282 1.49464,11.16578 0,7.82484 -1.62652,11.60538 -1.62651,3.78055 -5.01141,3.78055 -1.71443,0 -2.68155,-1.05504 -0.92315,-1.09899 -1.27483,-3.51678 -0.57148,-3.86846 -1.71443,-4.9235 -1.099,-1.09899 -3.42887,-1.09899 -1.93423,0 -2.54966,0.48356 -0.61544,0.48355 -0.61544,2.54966 v 0.83524 q 0,6.41813 0.52752,9.67115 0.52751,3.20907 1.67047,3.73658 0.57148,0.26376 2.02215,0.61544 4.70369,1.09899 4.70369,4.79162 0,3.8245 -4.30805,5.53893 -4.2641,1.67047 -14.33089,1.67047 -10.24263,0 -14.77049,-1.67047 -4.4839,-1.71443 -4.4839,-5.45101 z"
         style="stroke:#000080;stroke-width:3.90749526"
         id="path4554" />
    </g>
    <path
       style="fill:none;stroke:#000080;stroke-width:0.65124923px;stroke-linecap:butt;stroke-linejoin:miter;stroke-opacity:1"
       d="m 205.34865,544.65713 c -13.22323,-8.79371 -10.25151,-35.69593 13.80284,-36.20741"
       id="path6817"
       inkscape:connector-curvature="0"
       sodipodi:nodetypes="cc" />
    <path
       style="fill:none;stroke:#000080;stroke-width:0.65124923px;stroke-linecap:butt;stroke-linejoin:miter;stroke-opacity:1"
       d="m 235.15476,509.85001 c -31.46393,2.09409 -30.62942,33.71404 -16.80346,44.80915"
       id="path6819"
       inkscape:connector-curvature="0"
       sodipodi:nodetypes="cc" />
  </g>
</svg>
