<?xml version="1.0" encoding="UTF-8" standalone="no"?>
<!-- Created with Inkscape (http://www.inkscape.org/) -->

<svg
   xmlns:dc="http://purl.org/dc/elements/1.1/"
   xmlns:cc="http://creativecommons.org/ns#"
   xmlns:rdf="http://www.w3.org/1999/02/22-rdf-syntax-ns#"
   xmlns:svg="http://www.w3.org/2000/svg"
   xmlns="http://www.w3.org/2000/svg"
   xmlns:sodipodi="http://sodipodi.sourceforge.net/DTD/sodipodi-0.dtd"
   xmlns:inkscape="http://www.inkscape.org/namespaces/inkscape"
   width="1212.4852"
   height="455.19656"
   id="svg39101"
   version="1.1"
   inkscape:version="0.92.0 r15299"
   sodipodi:docname="logo-ayto-trio.svg">
  <defs
     id="defs39103" />
  <sodipodi:namedview
     id="base"
     pagecolor="#ffffff"
     bordercolor="#666666"
     borderopacity="1.0"
     inkscape:pageopacity="0.0"
     inkscape:pageshadow="2"
     inkscape:zoom="1.0419889"
     inkscape:cx="442.63133"
     inkscape:cy="302.60093"
     inkscape:document-units="px"
     inkscape:current-layer="layer1"
     showgrid="false"
     units="mm"
     fit-margin-top="5"
     fit-margin-left="5"
     fit-margin-right="5"
     fit-margin-bottom="5"
     inkscape:window-width="1920"
     inkscape:window-height="1016"
     inkscape:window-x="0"
     inkscape:window-y="27"
     inkscape:window-maximized="1" />
  <metadata
     id="metadata39106">
    <rdf:RDF>
      <cc:Work
         rdf:about="">
        <dc:format>image/svg+xml</dc:format>
        <dc:type
           rdf:resource="http://purl.org/dc/dcmitype/StillImage" />
        <dc:title />
      </cc:Work>
    </rdf:RDF>
  </metadata>
  <g
     inkscape:label="Layer 1"
     inkscape:groupmode="layer"
     id="layer1"
     transform="translate(1374.3779,-149.90659)">
    <g
       transform="matrix(0.95432584,0,0,0.95432584,-1494.725,-93.690756)"
       inkscape:label="buena"
       id="layer2">
      <g
         id="text3201"
         style="font-style:normal;font-variant:normal;font-weight:bold;font-stretch:normal;font-size:300px;line-height:100%;font-family:'Arial Black';-inkscape-font-specification:'Arial Black, Bold';text-align:center;letter-spacing:0px;word-spacing:0px;writing-mode:lr-tb;text-anchor:middle;fill:#729fcf;fill-opacity:1;stroke:none" />
      <g
         id="g41597">
        <rect
           style="fill:#013e5a;fill-opacity:1;fill-rule:nonzero;stroke:none;stroke-width:1.06666672"
           id="rect3142"
           width="334.32135"
           height="254.87173"
           x="201.92438"
           y="340.40179" />
        <path
           id="path8257"
           style="fill:#ef2929;fill-opacity:1;fill-rule:evenodd;stroke:none;stroke-width:1.06666672"
           d="m 259.60097,275.11573 c -0.007,0.009 0.0255,0.062 0.0192,0.0718 -0.0129,0.0221 -0.0407,0.0642 -0.0526,0.0912 -0.006,0.015 -0.047,0.0754 -0.0526,0.0912 -0.0117,0.0338 -0.023,0.12453 -0.0334,0.16283 -0.57312,2.29115 -0.28663,11.56931 -2.03988,16.24305 -1.98604,5.29412 -10.32157,12.09651 -10.39044,17.55723 10e-4,0.12855 0.0228,0.31791 0.0435,0.45 0.992,5.48348 17.79278,14.08365 15.96617,30.26947 -0.032,0.0145 -0.11095,0.0268 -0.1437,0.0386 -0.0328,0.0117 -0.11037,0.0287 -0.14371,0.0386 -0.0505,0.0129 -0.16404,0.0485 -0.21558,0.0578 -0.0343,0.006 -0.10859,0.035 -0.14371,0.0386 -0.0351,0.002 -0.10824,0.0364 -0.14371,0.0386 -4.29837,0.083 -12.02675,-11.13534 -20.35471,-9.85773 -8.92038,1.36851 -32.81455,10.08157 -28.226,31.18477 5.4157,24.90754 41.30835,24.8799 53.03159,32.64878 6.35397,5.71147 3.18624,6.81939 1.53712,8.89827 -0.59056,0.76844 -0.94557,1.73412 -0.56243,3.07456 1.68537,5.89624 12.46454,3.24909 10.71777,-1.10211 -1.83668,-4.57511 -2.16766,-8.80476 -4.44523,-13.42816 -6.83113,-13.86702 -37.04891,-15.22504 -35.48703,-30.11716 1.01478,-9.67566 24.17307,-7.31604 31.8001,8.02205 4.02144,8.08712 10.29196,32.47262 15.38309,51.66208 -19.18189,5.19036 -43.43891,12.03029 -52.46077,12.5949 -17.11084,1.07087 -30.75492,-17.85537 -22.87398,-23.57109 12.12978,-8.79724 28.41599,16.66523 43.85359,15.64131 5.14704,-0.34135 8.97945,-2.16986 13.86415,-2.8685 4.6457,-0.66445 1.47919,-11.29384 -4.47524,-9.80376 -2.5083,0.62774 -2.437,2.77968 -3.06722,4.36124 -0.11401,0.27294 -0.29727,0.59377 -0.47358,0.8194 -0.86821,1.04103 -2.70956,1.42006 -7.25455,-0.0568 -12.59688,-6.25733 -30.51923,-37.32191 -54.82067,-29.55331 -20.58969,6.58205 -16.24901,31.70051 -12.97526,40.10178 3.10758,7.97464 17.1194,8.88537 18.83385,12.80438 0.0129,0.0324 0.0267,0.11071 0.0384,0.14355 0.0107,0.0333 0.0295,0.11002 0.0384,0.1436 0.0129,0.0506 0.0498,0.16363 0.0578,0.21536 0.004,0.0344 0.0351,0.10871 0.0384,0.14357 -13.22482,9.75117 -29.26896,-0.80974 -34.38817,1.28911 -0.10059,0.0441 -0.24825,0.11354 -0.34,0.16811 -4.69975,2.78994 -6.35747,13.38297 -9.9542,17.74814 -3.2596,3.95597 -11.80409,8.46391 -13.18643,9.99654 -0.0117,0.0129 -0.0429,0.0787 -0.0526,0.0912 -0.0347,0.0475 -0.0891,0.14216 -0.10517,0.18209 -0.004,0.0183 -0.0544,0.075 -0.0526,0.0912 0.004,0.015 0.0816,0.0381 0.0912,0.0526 0.006,0.007 0.0117,0.0652 0.0192,0.0718 0.009,0.007 0.0801,0.0462 0.0912,0.0526 0.0367,0.0183 0.11566,0.0163 0.16298,0.0334 0.017,0.006 0.0731,0.0471 0.0912,0.0526 2.18709,0.59233 11.62819,0.31811 16.34623,2.08328 5.29743,1.982 12.01031,10.25517 17.47541,10.32145 0.10656,0.001 0.26936,-0.0129 0.3785,-0.0243 5.48279,-0.74192 14.11623,-17.83824 30.44483,-16.00589 0.0218,0.048 0.0401,0.16625 0.0578,0.21536 0.0107,0.0331 0.0296,0.11001 0.0384,0.14359 0.009,0.0336 0.0322,0.1093 0.0385,0.14357 0.009,0.0518 0.0525,0.16268 0.0578,0.21538 0.001,0.0355 -0.0341,0.12696 -0.0334,0.16282 -0.0129,4.30502 -11.1637,11.9853 -9.89425,20.2712 1.36552,8.91258 10.14634,32.76435 31.26855,28.16976 24.92997,-5.42289 24.9189,-41.28683 32.69943,-53.00428 7.87127,-8.74188 6.87914,0.55529 11.93027,-0.88838 5.90168,-1.68684 3.31005,-12.54713 -1.04544,-10.79974 -4.57958,1.83734 -8.79355,2.24184 -13.42172,4.51965 -13.88133,6.8321 -15.27361,36.95454 -30.17691,35.40081 -9.68294,-1.00952 -7.31077,-24.15038 8.04314,-31.77838 8.09549,-4.02196 32.50339,-10.29873 51.71058,-15.39468 5.18562,19.16418 11.96723,43.48966 12.52813,52.50403 1.06384,17.09671 -17.81203,30.7193 -23.52868,22.84731 -8.7987,-12.11601 16.69165,-28.40097 15.6741,-43.82569 -0.3393,-5.14282 -2.16747,-8.97124 -2.8644,-13.85176 -0.66283,-4.64161 -11.32141,-1.54459 -9.83293,4.40442 1.27394,5.09156 8.7662,-0.39611 5.12309,10.78433 -6.26818,12.58971 -37.36595,30.51208 -29.60232,54.79049 6.57781,20.57013 31.64651,16.24058 40.05605,12.96556 7.85106,-3.05749 8.93483,-16.63709 12.69884,-18.71436 0.032,-0.0159 0.0925,-0.0954 0.12453,-0.11037 0.0322,-0.0146 0.11094,-0.0268 0.14372,-0.0386 0.0493,-0.0176 0.16526,-0.0443 0.21557,-0.0578 0.0337,-0.009 0.10954,-0.0322 0.14369,-0.0386 0.0342,-0.006 0.10872,-0.0351 0.14371,-0.0386 9.79189,13.26253 -0.84342,29.36553 1.36534,34.41259 0.0368,0.0789 0.10517,0.19454 0.14879,0.26791 2.78999,4.69466 13.39074,6.34615 17.75775,9.93801 3.88933,3.19898 8.3003,11.52289 9.90736,13.11875 0.0547,0.0518 0.15398,0.14229 0.2014,0.17686 0.0229,0.015 0.0702,0.0421 0.0912,0.0526 0.0198,0.009 0.073,0.0492 0.0912,0.0526 0.009,5.4e-4 0.0639,-0.0185 0.0718,-0.0192 0.009,-0.002 0.0646,-0.0144 0.0718,-0.0192 0.0143,-0.0129 0.0394,-0.0741 0.0526,-0.0912 0.0129,-0.0195 0.0403,-0.0666 0.0526,-0.0912 0.0239,-0.0537 0.0645,-0.18167 0.086,-0.25387 0.59385,-2.18559 0.25191,-11.59978 2.02067,-16.31484 1.98603,-5.29416 10.34076,-12.02475 10.40965,-17.48544 10e-4,-0.0853 0.002,-0.21952 -0.006,-0.30643 -0.61073,-5.47528 -17.87258,-14.10321 -16.02389,-30.48483 0.032,-0.0145 0.11095,-0.0268 0.14373,-0.0386 0.0328,-0.0117 0.11036,-0.0287 0.14368,-0.0386 0.0505,-0.0129 0.16406,-0.0484 0.21557,-0.0577 0.0343,-0.006 0.1086,-0.035 0.14371,-0.0386 0.0351,-0.002 0.12726,0.0347 0.16298,0.0333 4.29836,-0.083 12.02673,11.13533 20.3547,9.85772 8.92037,-1.36851 32.7953,-10.15337 28.20678,-31.25655 -5.41572,-24.90755 -41.30839,-24.87986 -53.03161,-32.64878 -6.28563,-5.6501 -3.25198,-6.77209 -1.58975,-8.80724 0.62064,-0.78239 1.02873,-1.71393 0.63429,-3.09382 -1.68536,-5.89625 -12.46459,-3.24904 -10.71776,1.10213 1.83669,4.57512 2.16767,8.80471 4.44524,13.42817 6.83107,13.86698 37.04889,15.225 35.48702,30.11714 -1.01477,9.67566 -24.17304,7.31606 -31.80009,-8.02203 -4.02143,-8.08713 -10.31118,-32.54441 -15.40234,-51.73389 19.18188,-5.19036 43.45814,-11.95848 52.47998,-12.52311 17.1109,-1.07091 30.7357,17.78356 22.85478,23.4993 -12.12977,8.79722 -28.39682,-16.59341 -43.83437,-15.56953 -5.14707,0.3414 -8.99862,2.09809 -13.88337,2.79671 -4.64568,0.66448 -1.45996,11.36563 4.49448,9.87557 5.09622,-1.27533 -0.41159,-8.83082 10.77611,-5.19576 12.59688,6.25735 30.51923,37.32197 54.82068,29.55333 20.58966,-6.58205 16.26826,-31.62874 12.99449,-40.02999 -3.04356,-7.81055 -16.54035,-8.8866 -18.70429,-12.60827 -0.0173,-0.0316 -0.0946,-0.0925 -0.11036,-0.12438 -0.0218,-0.0482 -0.0387,-0.16646 -0.0578,-0.21538 -0.0117,-0.0328 -0.0287,-0.11024 -0.0384,-0.14355 -0.009,-0.0335 -0.0308,-0.10966 -0.0384,-0.1436 -0.0107,-0.0513 -0.0526,-0.16291 -0.0578,-0.21536 13.22477,-9.75115 29.24973,0.73797 34.36893,-1.3609 0.10058,-0.0441 0.24823,-0.11354 0.34,-0.16811 4.69973,-2.78992 6.37661,-13.31116 9.97342,-17.67633 3.20334,-3.88771 11.51669,-8.3708 13.11461,-9.9773 0.0129,-0.0143 0.0407,-0.0778 0.0526,-0.0912 0.0323,-0.0381 0.10187,-0.0762 0.12439,-0.11036 0.006,-0.0107 0.0475,-0.0807 0.0526,-0.0912 0.002,-0.0107 -0.0212,-0.0627 -0.0192,-0.0718 10e-4,-0.0172 0.0566,-0.0758 0.0526,-0.0912 -0.009,-0.0144 -0.0793,-0.0386 -0.0912,-0.0526 -0.0342,-0.0265 -0.12854,-0.0813 -0.18216,-0.10507 -0.015,-0.006 -0.0754,-0.0468 -0.0912,-0.0526 -1.96348,-0.63611 -11.61728,-0.26785 -16.41807,-2.06403 -5.29746,-1.98196 -12.02956,-10.32695 -17.49465,-10.39324 -0.10671,-0.001 -0.26934,0.0129 -0.37852,0.0243 -5.48277,0.74195 -14.09697,17.91002 -30.42556,16.07769 -0.0145,-0.032 -0.0253,-0.11118 -0.0386,-0.14358 -0.0191,-0.0487 -0.043,-0.16541 -0.0578,-0.21535 -0.009,-0.0335 -0.0308,-0.10966 -0.0384,-0.14359 -0.006,-0.0343 -0.0335,-0.10871 -0.0384,-0.14358 -0.47475,-4.2512 11.20459,-12.04584 9.90839,-20.50583 -1.36548,-8.91258 -10.16556,-32.83616 -31.28776,-28.24153 -24.93001,5.42292 -24.91888,41.28679 -32.69945,53.00424 -3.19772,3.55141 -4.9819,4.14383 -6.2543,3.67639 -0.26548,-0.10719 -0.58464,-0.29346 -0.81983,-0.47282 -1.33658,-1.05457 -2.35081,-2.9539 -4.83691,-2.24336 -5.90171,1.68684 -3.32924,12.47533 1.02621,10.72794 4.5796,-1.83733 8.81273,-2.16996 13.44096,-4.44789 13.88127,-6.83203 15.25436,-37.02632 30.15765,-35.47258 9.68296,1.00951 7.32997,24.22216 -8.0239,31.85018 -8.09546,4.02193 -32.52259,10.22691 -51.7298,15.32288 -5.18561,-19.16419 -11.94797,-43.41788 -12.50889,-52.43225 -1.06381,-17.09669 17.81202,-30.71932 23.52867,-22.8473 8.79869,12.11598 -16.6917,28.40096 -15.6741,43.8257 0.3393,5.14278 2.16747,8.97126 2.8644,13.85176 0.66281,4.64163 11.32144,1.54455 9.83293,-4.40444 -1.27395,-5.09157 -8.78544,0.3243 -5.14233,-10.85613 6.26816,-12.58966 37.36596,-30.51203 29.60233,-54.79045 -6.57781,-20.57017 -31.6273,-16.16881 -40.03681,-12.89381 -7.85106,3.05754 -8.93482,16.63712 -12.69883,18.71439 -0.032,0.0159 -0.11154,0.0239 -0.14371,0.0386 -0.0322,0.0146 -0.11096,0.0268 -0.14374,0.0386 -0.0493,0.0176 -0.16524,0.0443 -0.21557,0.0578 -0.0337,0.009 -0.10942,0.0322 -0.14369,0.0386 -0.0342,0.006 -0.10872,0.0351 -0.1437,0.0386 -9.67481,-13.10403 0.57495,-28.95237 -1.30764,-34.19722 -0.0483,-0.12481 -0.12452,-0.29928 -0.18724,-0.4115 -2.79003,-4.69468 -13.40995,-6.41795 -17.777,-10.00977 -3.85518,-3.17097 -8.24619,-11.34933 -9.88811,-13.04697 -0.0283,-0.0282 -0.0837,-0.10048 -0.11037,-0.12438 -0.0129,-0.0117 -0.0788,-0.0428 -0.0912,-0.0526 -0.0238,-0.0172 -0.0692,-0.0397 -0.0912,-0.0526 -0.0209,-0.0107 -0.0721,-0.0467 -0.0912,-0.0526 -0.009,-5.5e-4 -0.0639,0.0184 -0.0718,0.0192 -0.009,0.002 -0.0645,0.0144 -0.0718,0.0192 -0.007,0.007 -0.0653,0.0107 -0.0718,0.0192 z"
           inkscape:connector-curvature="0" />
        <g
           style="font-style:normal;font-variant:normal;font-weight:bold;font-stretch:normal;font-size:300px;line-height:100%;font-family:'Arial Black';-inkscape-font-specification:'Arial Black, Bold';text-align:center;letter-spacing:0px;word-spacing:0px;writing-mode:lr-tb;text-anchor:middle;fill:#ffffff;fill-opacity:1;stroke:none"
           id="text3197">
          <path
             style="fill:#ffffff;stroke-width:1.06666672"
             d="M 496.23333,393.38562 H 464.2613 l -12.25875,27.89647 C 451.7011,421.27889 431.90372,419.8 431.6,419.8 c -12.08357,1.7e-4 -22.23772,1.97517 -30.46667,5.93333 -8.22936,3.85433 -17.36687,11.20016 -27.36666,22.03334 -4.89602,-9.27068 -11.19184,-16.24568 -18.9,-20.93334 -7.70849,-4.68734 -18.17099,-7.03316 -31.4,-7.03333 -12.29179,1.7e-4 -22.81679,2.12933 -31.56667,6.4 -8.64593,4.271 -17.22509,11.46266 -25.76667,21.56667 v -24.2 h -59.4 V 589.5 H 270.5 v -84.7 c -9e-5,-12.60406 2.34575,-21.67906 7.03333,-27.2 4.68741,-5.52071 10.67489,-8.26655 17.96667,-8.26667 4.47905,1.2e-4 8.39988,1.29595 11.73333,3.9 3.33322,2.50011 5.64571,5.83344 7,10 0.83321,2.60427 1.26654,7.54177 1.26667,14.83334 V 589.5 h 68 v -85.63333 c -1.9e-4,-11.97908 2.31648,-20.68322 6.9,-26.1 4.58314,-5.41655 11.48978,-8.37057 18.1,-8.13334 6.04126,0.21682 12.23171,3.84669 15.96667,8.6 3.5616,4.53269 4.36643,9.23343 4.36666,16.73334 v 49.93128 c 0,21.48121 3.56186,44.39484 24.9,44.39484 h 66.01103 c 6.27419,-0.77389 8.66505,-4.53496 11.18101,-8.19979 l -13.94979,-29.30095 c -4.42566,0.81385 -8.01338,2.18016 -11.67609,0.83482 -3.08136,-1.13181 -4.94959,-3.35182 -7.03282,-6.89354 -1.35426,-2.29161 -2.03343,-6.94994 -2.03334,-14.03333 v -58.93333 h 35 v -48.53334 h -35 z"
             id="path3217"
             inkscape:connector-curvature="0"
             sodipodi:nodetypes="ccccccccccccccssccccccccaaccccccaccccccc" />
        </g>
        <text
           xml:space="preserve"
           style="font-style:normal;font-variant:normal;font-weight:bold;font-stretch:normal;font-size:46.58064651px;line-height:100%;font-family:Arial;-inkscape-font-specification:'Arial Bold';text-align:center;letter-spacing:0px;word-spacing:0px;writing-mode:lr-tb;text-anchor:middle;fill:#013e5a;fill-opacity:1;stroke:none;stroke-width:1.06666672"
           x="367.98068"
           y="639.94196"
           id="text3205"><tspan
             sodipodi:role="line"
             id="tspan3207"
             x="367.98068"
             y="639.94196"
             style="stroke-width:1.06666672">MIGUELTURRA</tspan></text>
        <text
           xml:space="preserve"
           style="font-style:normal;font-variant:normal;font-weight:bold;font-stretch:normal;font-size:34.56880188px;line-height:100%;font-family:Arial;-inkscape-font-specification:'Arial Bold';text-align:center;letter-spacing:0px;word-spacing:0px;writing-mode:lr-tb;text-anchor:middle;fill:#013e5a;fill-opacity:1;stroke:none;stroke-width:1.06666672"
           x="426.48074"
           y="670.10028"
           id="text3209"><tspan
             sodipodi:role="line"
             id="tspan3211"
             x="426.48074"
             y="670.10028"
             style="stroke-width:1.06666672">ayuntamiento</tspan></text>
        <text
           id="text41593"
           y="706.04205"
           x="458.26865"
           style="font-style:normal;font-variant:normal;font-weight:normal;font-stretch:normal;font-size:32.41380692px;line-height:100%;font-family:'Arial Black';-inkscape-font-specification:'Arial Black,';text-align:center;letter-spacing:0px;word-spacing:0px;writing-mode:lr-tb;text-anchor:middle;fill:#ef2929;fill-opacity:1;stroke:none;stroke-width:1.06666672"
           xml:space="preserve"><tspan
             style="font-style:normal;font-variant:normal;font-weight:normal;font-stretch:normal;font-size:32.41380692px;line-height:100%;font-family:'Arial Black';-inkscape-font-specification:'Arial Black,';text-align:center;writing-mode:lr-tb;text-anchor:middle;fill:#ef2929;stroke-width:1.06666672"
             y="706.04205"
             x="458.26865"
             id="tspan41595"
             sodipodi:role="line">Deportes</tspan></text>
      </g>
    </g>
    <g
       id="g5721">
      <path
         sodipodi:nodetypes="sssssssss"
         style="fill:#ffffff;fill-opacity:1;fill-rule:nonzero;stroke:none;stroke-width:1.06666672"
         d="m -870.56652,275.66394 c -5.57317,0 -10.06194,4.48876 -10.06194,10.06194 v 227.68665 c 0,5.57318 4.48877,10.06194 10.06194,10.06194 h 227.68666 c 5.57317,0 10.06194,-4.48876 10.06194,-10.06194 V 285.72588 c 0,-5.57318 -4.48877,-10.06194 -10.06194,-10.06194 z"
         id="path5719"
         inkscape:connector-curvature="0" />
      <path
         inkscape:connector-curvature="0"
         id="rect3852"
         d="m -874.32873,271.56921 c -5.75735,0 -10.39446,4.6371 -10.39446,10.39446 v 235.21107 c 0,5.75736 4.63711,10.39447 10.39446,10.39447 h 235.21108 c 5.75735,0 10.39446,-4.63711 10.39446,-10.39447 V 281.96367 c 0,-5.75736 -4.63711,-10.39446 -10.39446,-10.39446 z m 123.67166,13.16203 c 0,0 -6.05737,10.54994 -5.95349,16.34796 0.12716,7.09701 3.86183,13.94621 7.9809,19.72697 4.95852,6.95889 13.01553,11.08267 19.3086,16.86285 8.00303,7.35076 12.05765,12.63918 13.54822,26.03444 1.49058,13.39526 -8.90881,28.04808 -22.88071,37.71616 0,0 9.67896,-10.99061 12.74368,-17.53866 2.31776,-4.95206 4.23753,-10.46621 4.02263,-15.9296 -0.24125,-6.1336 -2.53302,-12.30251 -5.88912,-17.44212 -4.21377,-6.45303 -11.67918,-10.08556 -17.08813,-15.57562 -3.94654,-4.00571 -8.37519,-7.73358 -11.16681,-12.61495 -2.76344,-4.83211 -5.08867,-10.33168 -5.18114,-15.89742 -0.078,-4.69409 3.92608,-13.51603 3.92608,-13.51603 0,0 -4.82483,5.90673 -6.50056,9.30031 -2.14234,4.33851 -4.50323,9.00014 -4.4088,13.83784 0.12361,6.3351 2.97097,12.57682 6.46838,17.86047 6.67075,10.07767 19.48043,14.91253 26.54935,24.71502 2.43136,3.37159 4.56036,7.2175 5.18114,11.32772 1.02389,6.77935 -0.0853,14.03978 -2.63885,20.40276 -1.74505,4.34845 -8.33488,11.32772 -8.33488,11.32772 0,-0.34042 3.43273,-5.33121 4.44098,-8.3027 1.50954,-4.44891 2.65734,-9.25114 2.28485,-13.93438 -0.36298,-4.56372 -1.85881,-9.15653 -4.34443,-13.00113 -4.33765,-6.70914 -11.94401,-10.61195 -17.60302,-16.25142 -3.7745,-3.76148 -8.19496,-7.1094 -10.87719,-11.71389 -2.94201,-5.05047 -5.45516,-10.89103 -5.30986,-16.73413 0.20839,-8.38071 4.32439,-16.45868 8.78542,-23.55651 3.30948,-5.26564 12.93676,-13.45166 12.93676,-13.45166 z m -27.06423,42.73639 c 0,0 -2.49921,6.03318 -2.22049,9.17159 0.40005,4.50496 2.03308,9.44576 5.43859,12.42188 3.24768,2.83817 7.42527,2.41073 12.45405,3.57209 5.02879,1.16135 11.14612,4.53955 14.61018,8.01307 4.61152,4.62415 7.78003,11.49188 7.65909,18.02137 -0.11144,6.01592 -3.54317,11.95902 -7.65909,16.34796 -2.89932,3.09165 -11.13463,6.14658 -11.13463,6.14658 0,0 5.67436,-4.75771 7.75563,-7.75563 2.80919,-4.04644 6.03314,-8.52635 6.11439,-13.45167 0.0816,-4.94369 -2.25504,-10.12638 -5.69605,-13.67693 -5.62096,-5.79992 -14.72489,-6.52572 -22.07617,-10.0083 -7.35126,-3.48258 -8.57906,-6.10249 -10.52319,-10.71627 -1.06476,-2.52686 -0.1609,-8.23835 -0.1609,-8.23835 0,0 -3.11737,7.41748 -2.22049,11.07028 1.62595,6.62227 4.37073,9.76045 7.56253,13.99873 6.22471,8.26557 18.81927,12.91467 19.40516,22.59108 0.5859,9.67642 -6.88674,16.34795 -6.88674,16.34795 0,0 3.16294,-9.28285 1.8665,-13.70911 -2.0298,-6.93 -9.90884,-10.54764 -14.03093,-16.47668 -3.91635,-5.63311 -8.58505,-11.2846 -10.04048,-17.98918 -1.0995,-5.06499 -0.70938,-10.68282 1.25506,-15.47907 1.67916,-4.09968 8.52798,-10.20139 8.52798,-10.20139 z m -13.87002,31.98793 c 0,0 2.70191,7.26707 5.18113,10.13703 6.36479,7.36785 16.48279,10.8713 17.02377,20.33841 0.27751,4.85638 -3.15374,8.91413 -3.15374,8.91413 0,0 0.77922,-4.54354 0.41835,-6.7902 -1.4934,-9.29785 -10.41025,-10.38453 -14.80327,-16.25141 -1.83053,-2.44466 -4.76279,-7.85216 -4.76279,-7.85216 0,0 -0.66724,5.71344 0.25746,8.33488 3.77335,10.69709 13.48288,12.08253 16.18704,17.28121 1.23307,2.37051 0.48272,8.01307 0.48272,8.01307 0,0 -0.9651,-3.11998 -1.93086,-4.4088 -3.73117,-4.9793 -8.9908,-5.08395 -14.28837,-12.0357 -3.46719,-4.54983 -4.82785,-10.86598 -4.44098,-16.57323 0.22252,-3.28292 3.82954,-9.10723 3.82954,-9.10723 z m 36.04274,45.05343 c 8.72718,0 16.83775,2.54602 23.68523,6.91891 h -47.40264 c 6.8476,-4.37312 14.98999,-6.91891 23.71741,-6.91891 z m -107.06625,11.55299 h 207.3423 c 5.71859,0 10.45883,4.70806 10.45883,10.42665 v 27.19296 c 0,5.71859 -4.74024,10.42664 -10.45883,10.42664 h -49.94494 c -5.71859,0 -10.42666,-4.70805 -10.42666,-10.42664 0.0564,-1.68208 -0.0494,-3.58049 0,-5.34206 0,-5.71859 4.70807,-10.42664 10.42666,-10.42664 h 37.68397 c 0.98417,-0.0331 1.99531,0.34528 2.70321,1.0298 0.70788,0.68452 1.12633,1.65412 1.12633,2.63884 0,0.98472 -0.41845,1.95432 -1.12633,2.63884 -0.7079,0.68453 -1.71904,1.06285 -2.70321,1.02978 h -37.68397 c -1.76598,0 -3.08938,1.32342 -3.08938,3.08938 0,1.79571 -0.0207,3.61389 0,5.34206 0,1.76596 1.3234,3.05719 3.08938,3.05719 h 49.94494 c 1.76596,0 3.05719,-1.29123 3.05719,-3.05719 v -27.19296 c 0,-1.76596 -1.29123,-3.0572 -3.05719,-3.0572 h -207.3423 c -0.965,0 -1.92431,-0.37961 -2.60666,-1.06198 -0.68237,-0.68236 -1.09416,-1.64165 -1.09416,-2.60666 0,-0.965 0.41179,-1.9243 1.09416,-2.60665 0.68235,-0.68237 1.64166,-1.09416 2.60666,-1.09416 z m 6.9511,12.10007 h 43.734 c 0.98417,-0.0331 1.96315,0.34526 2.67102,1.02978 0.7079,0.68452 1.12635,1.65413 1.12635,2.63885 0,0.98472 -0.41845,1.98649 -1.12635,2.67102 -0.70787,0.68453 -1.68685,1.06285 -2.67102,1.02979 h -43.734 c -1.83994,0 -3.28247,1.40746 -3.28247,3.4112 v 26.64588 c 0,2.00372 1.44253,3.41117 3.28247,3.41117 h 207.08486 c 0.96499,0 1.92429,0.4118 2.60666,1.09416 0.68235,0.68237 1.09414,1.60949 1.09414,2.57448 0,0.96502 -0.41179,1.92431 -1.09414,2.60667 -0.68237,0.68236 -1.64167,1.09416 -2.60666,1.09416 h -207.08486 c -5.87589,0 -10.61974,-4.90589 -10.61974,-10.78064 v -26.64588 c 0,-5.87475 4.74385,-10.78064 10.61974,-10.78064 z m 74.56342,0.64361 h 50.74947 c 5.71858,0 10.42665,4.70806 10.42665,10.42665 v 21.36819 c 0,0.965 -0.37962,1.92431 -1.06198,2.60667 -0.68236,0.68236 -1.64166,1.06197 -2.60666,1.06197 -0.965,0 -1.9243,-0.37961 -2.60667,-1.06197 -0.68236,-0.68236 -1.09415,-1.64167 -1.09415,-2.60667 v -21.36819 c 0,-1.76596 -1.29124,-3.08938 -3.05719,-3.08938 h -21.46474 v 25.06902 c 0.033,0.98417 -0.34527,1.96313 -1.0298,2.67102 -0.68452,0.70789 -1.65412,1.12633 -2.63884,1.12633 -0.98473,0 -1.95432,-0.41844 -2.63884,-1.12633 -0.68452,-0.70789 -1.06285,-1.68685 -1.0298,-2.67102 v -25.06902 h -21.94745 c -1.76596,0 -3.05719,1.32342 -3.05719,3.08938 v 21.36819 c 0.033,0.98417 -0.34527,1.96314 -1.0298,2.67103 -0.68452,0.70789 -1.6863,1.12634 -2.67103,1.12634 -0.98471,0 -1.95432,-0.41845 -2.63883,-1.12634 -0.68454,-0.70789 -1.06285,-1.68686 -1.02981,-2.67103 v -21.36819 c 0,-5.71859 4.70807,-10.42665 10.42666,-10.42665 z m -41.28824,58.92345 c 1.65077,1e-5 2.93653,0.32612 3.86171,0.9976 0.93121,0.66567 1.53607,1.5881 1.80214,2.76757 l -2.67102,0.48272 c -0.18746,-0.63061 -0.54194,-1.11829 -1.06198,-1.48033 -0.51399,-0.36785 -1.15687,-0.54706 -1.93085,-0.54707 -1.17311,1e-5 -2.10438,0.34377 -2.79976,1.06197 -0.68934,0.71821 -1.06197,1.77287 -1.06197,3.18592 0,1.524 0.36054,2.67845 1.06197,3.44337 0.70144,0.75908 1.63076,1.12634 2.76757,1.12634 0.56235,0 1.11105,-0.0795 1.67341,-0.28963 0.5684,-0.21604 1.07518,-0.50089 1.48033,-0.80454 v -1.60904 h -3.08937 v -2.15613 h 5.79257 v 5.0846 c -0.56234,0.52552 -1.37545,1.01307 -2.44575,1.41597 -1.06425,0.39705 -2.1558,0.57925 -3.25029,0.57925 -1.39077,0 -2.60244,-0.27615 -3.63645,-0.8367 -1.03402,-0.56639 -1.79701,-1.36838 -2.31703,-2.41358 -0.52005,-1.05103 -0.80453,-2.17914 -0.80453,-3.41118 0,-1.33715 0.32056,-2.53274 0.90107,-3.57211 0.5805,-1.03935 1.42363,-1.82665 2.54231,-2.38138 0.8526,-0.42624 1.91607,-0.64361 3.18592,-0.64362 z m -44.31327,0.19309 h 4.02262 l 2.41358,8.78542 2.3814,-8.78542 h 4.02262 v 12.84022 h -2.47793 v -10.10484 l -2.63885,10.10484 h -2.60667 l -2.60665,-10.10484 v 10.10484 h -2.51012 z m 24.20012,0 h 2.67102 v 12.84022 h -2.67102 z m 37.1369,0 h 2.67102 v 6.98327 c -1e-5,1.1036 0.0301,1.79696 0.0965,2.12395 0.11488,0.52551 0.37519,0.96609 0.80452,1.28724 0.43536,0.31531 1.05232,0.45054 1.80215,0.45054 0.7619,0 1.31857,-0.12057 1.70558,-0.41836 0.38699,-0.30362 0.62937,-0.6884 0.70799,-1.12633 0.0786,-0.43793 0.12871,-1.17229 0.12872,-2.18831 v -7.112 h 2.67102 v 6.758 c -1e-5,1.54153 -0.0802,2.64601 -0.22527,3.28247 -0.14513,0.63646 -0.41149,1.17112 -0.80451,1.60905 -0.38701,0.43793 -0.89165,0.76703 -1.54469,1.02978 -0.65308,0.25693 -1.52235,0.38618 -2.57449,0.38618 -1.26984,0 -2.23718,-0.13807 -2.89629,-0.41835 -0.65306,-0.28611 -1.16374,-0.64454 -1.54468,-1.09415 -0.38097,-0.45545 -0.61923,-0.91965 -0.74017,-1.41597 -0.17536,-0.73572 -0.25745,-1.84605 -0.25745,-3.28246 v -6.85455 z m 22.17273,0 h 9.84739 v 2.18831 h -7.17638 v 2.83191 h 6.69367 v 2.18831 h -6.69367 v 3.47555 h 7.43382 v 2.15614 h -10.10483 z m 40.001,0 h 10.55537 v 2.18831 h -3.92608 v 10.65191 h -2.7032 v -10.65191 h -3.92609 z m 20.98202,0 h 2.7032 v 6.98327 c 0,1.1036 0.0301,1.79696 0.0965,2.12395 0.1149,0.52551 0.37519,0.96609 0.80453,1.28724 0.43536,0.31531 1.02014,0.45054 1.76995,0.45054 0.7619,0 1.35078,-0.12057 1.73777,-0.41836 0.387,-0.30362 0.62937,-0.6884 0.70799,-1.12633 0.0786,-0.43793 0.0964,-1.17229 0.0964,-2.18831 v -7.112 h 2.7032 v 6.758 c -10e-6,1.54153 -0.0802,2.64601 -0.22526,3.28247 -0.14513,0.63646 -0.4115,1.17112 -0.80453,1.60905 -0.38702,0.43793 -0.92381,0.76703 -1.57687,1.02978 -0.65307,0.25693 -1.49015,0.38618 -2.5423,0.38618 -1.26985,0 -2.23719,-0.13807 -2.8963,-0.41835 -0.65305,-0.28611 -1.16374,-0.64454 -1.54468,-1.09415 -0.38096,-0.45545 -0.65141,-0.91965 -0.77234,-1.41597 -0.17537,-0.73572 -0.25745,-1.84605 -0.25745,-3.28246 v -6.85455 z m 22.20491,0 h 5.63167 c 1.421,1e-5 2.4484,0.12042 3.08938,0.35398 0.647,0.22773 1.18986,0.63315 1.57687,1.22288 0.387,0.58976 0.57924,1.26834 0.57925,2.0274 -10e-6,0.96346 -0.31453,1.78297 -0.90106,2.41358 -0.58656,0.62479 -1.43963,0.99503 -2.60666,1.15852 0.58049,0.327 1.04105,0.70293 1.41597,1.09415 0.38094,0.39122 0.90372,1.09328 1.54468,2.09177 l 1.60906,2.47794 h -3.21811 l -1.93085,-2.76757 c -0.68937,-0.99848 -1.16202,-1.64176 -1.41598,-1.89868 -0.25396,-0.26276 -0.52031,-0.42146 -0.80452,-0.5149 -0.28421,-0.0993 -0.73482,-0.1609 -1.35161,-0.1609 h -0.54707 v 5.34205 h -2.67102 z m 22.14053,0 h 5.66387 c 1.421,1e-5 2.44839,0.12042 3.08937,0.35398 0.64701,0.22773 1.15769,0.63315 1.54468,1.22288 0.38699,0.58976 0.57926,1.26834 0.57927,2.0274 -1e-5,0.96346 -0.28235,1.78297 -0.86889,2.41358 -0.58656,0.62479 -1.4718,0.99503 -2.63884,1.15852 0.5805,0.327 1.07323,0.70293 1.44814,1.09415 0.38095,0.39122 0.87154,1.09328 1.51251,2.09177 l 1.64123,2.47794 h -3.2181 l -1.93087,-2.76757 c -0.68934,-0.99848 -1.16199,-1.64176 -1.41595,-1.89868 -0.25398,-0.26276 -0.52032,-0.42146 -0.80453,-0.5149 -0.2842,-0.0993 -0.73482,-0.1609 -1.3516,-0.1609 h -0.54707 v 5.34205 h -2.70322 z m 25.32647,0 h 2.83193 l 5.34205,12.84022 h -2.92848 l -1.15851,-2.8963 h -5.30987 l -1.12634,2.8963 h -2.83192 z m -109.44764,0.12871 h 2.7032 v 10.55537 h 6.66147 v 2.15614 h -9.36467 z m 64.65166,2.0596 v 3.25027 h 1.99522 c 1.28797,1e-5 2.09309,-0.0558 2.41358,-0.1609 0.32048,-0.10506 0.55876,-0.29015 0.74016,-0.54708 0.18141,-0.2569 0.28962,-0.54786 0.28963,-0.93325 -10e-6,-0.43207 -0.14431,-0.79921 -0.38616,-1.06197 -0.23584,-0.26859 -0.56225,-0.44482 -0.99762,-0.51489 -0.21769,-0.0291 -0.87462,-0.0322 -1.96304,-0.0322 h -2.09177 z m 22.17273,0 v 3.25027 h 1.99522 c 1.28796,1e-5 2.09308,-0.0558 2.41358,-0.1609 0.32048,-0.10506 0.55874,-0.29015 0.74016,-0.54708 0.1814,-0.2569 0.25742,-0.54786 0.25744,-0.93325 -2e-5,-0.43207 -0.11212,-0.79921 -0.35399,-1.06197 -0.23584,-0.26859 -0.56224,-0.44482 -0.99761,-0.51489 -0.2177,-0.0291 -0.87461,-0.0322 -1.96304,-0.0322 h -2.09176 z m 24.00704,0.83669 -1.80214,4.76279 h 3.63645 z"
         style="fill:#f57900;fill-opacity:1;fill-rule:nonzero;stroke:none;stroke-width:1.06666672" />
    </g>
    <flowRoot
       xml:space="preserve"
       id="flowRoot3820"
       style="font-style:normal;font-variant:normal;font-weight:bold;font-stretch:normal;font-size:20.09365654px;line-height:100%;font-family:Impact;-inkscape-font-specification:'Impact Bold';text-align:center;letter-spacing:0px;word-spacing:0px;writing-mode:lr-tb;text-anchor:middle;fill:#000000;fill-opacity:1;stroke:none;stroke-width:0.35881528"><flowRegion
         id="flowRegion3822"
         style="stroke-width:0.35881528"><rect
           id="rect3824"
           width="126.9109"
           height="27.660069"
           x="-816.39142"
           y="845.9798"
           style="stroke-width:0.12874842" /></flowRegion><flowPara
         id="flowPara3826"
         style="stroke-width:0.35881528" /></flowRoot>    <g
       id="g41489">
      <text
         id="text3049"
         y="431.76718"
         x="-366.4866"
         style="font-style:normal;font-variant:normal;font-weight:bold;font-stretch:normal;font-size:54.82284927px;line-height:100%;font-family:'Trebuchet MS';-inkscape-font-specification:'Trebuchet MS Bold';text-align:center;letter-spacing:0px;word-spacing:0px;writing-mode:lr-tb;text-anchor:middle;fill:#002768;fill-opacity:1;stroke:none;stroke-width:1.06666672"
         xml:space="preserve"><tspan
           y="431.76718"
           x="-366.4866"
           id="tspan3051"
           sodipodi:role="line"
           style="stroke-width:1.06666672">miguelturra.es</tspan></text>
      <text
         id="text3053"
         y="464.00964"
         x="-550.15295"
         style="font-style:normal;font-variant:normal;font-weight:normal;font-stretch:normal;font-size:25.58399391px;line-height:120.00000477%;font-family:'DejaVu Sans';-inkscape-font-specification:'DejaVu Sans';text-align:start;letter-spacing:10.68131828px;word-spacing:0px;writing-mode:lr-tb;text-anchor:start;fill:#002768;fill-opacity:1;stroke:none;stroke-width:1.06666672"
         xml:space="preserve"><tspan
           y="464.00964"
           x="-550.15295"
           id="tspan3059"
           sodipodi:role="line"
           style="stroke-width:1.06666672">CIUDAD  DIGITAL</tspan></text>
      <path
         d="m -276.39637,323.48551 c -14.80374,0 -27.21462,6.77817 -35.83472,15.41893 -8.62011,8.64075 -13.84848,18.93959 -13.84848,28.18237 v 25.44122 h 10.05084 v -25.44122 c 0,-4.96151 3.82003,-13.96811 10.90747,-21.07253 7.08745,-7.10442 17.00128,-12.47791 28.72489,-12.47791 26.59688,0 41.06003,20.00804 41.06003,40.31764 0,6.20918 -1.34604,11.57483 -3.28366,14.90496 -1.93762,3.33012 -3.86473,4.56857 -6.65298,4.56857 l 0.0286,-0.79951 v -26.8118 c -7e-5,-4.5254 -1.35625,-8.0717 -4.05461,-10.65047 -2.6715,-2.604 -6.41999,-3.9118 -11.25011,-3.91184 -2.26672,4e-5 -4.52911,0.39026 -6.79574,1.19925 -2.26672,0.78378 -4.04274,1.8581 -5.31097,3.198 -2.91432,-2.93265 -7.24427,-4.39721 -12.99187,-4.39725 -4.45243,4e-5 -8.07256,1.42949 -10.87891,4.31158 l -2.05585,-3.56919 h -6.96708 v 40.63172 h 10.10796 v -29.21029 c 0.6746,-1.0618 1.74241,-2.02756 3.22656,-2.91246 1.5111,-0.88483 2.92909,-1.34198 4.19737,-1.34203 2.40158,5e-5 4.24569,0.61067 5.56794,1.79888 1.3222,1.163 1.99873,2.74267 1.99876,4.7399 v 26.926 h 10.10796 v -29.32451 c 0.56663,-1.08708 1.5378,-2.04958 2.94102,-2.8839 1.40313,-0.83428 2.88608,-1.25632 4.39725,-1.25637 5.09996,5e-5 7.62374,2.68913 7.6238,8.02356 v 25.2128 c 0,1.56258 0.18955,3.99733 0.68528,5.1682 1.19201,2.70495 4.87149,5.91058 9.42268,5.91058 6.6089,0 12.15066,-4.09561 15.33327,-9.56544 3.18261,-5.46985 4.65423,-12.40111 4.65423,-19.95894 0,-25.27058 -19.33044,-50.3685 -51.11089,-50.3685 z"
         id="path3070"
         inkscape:connector-curvature="0"
         sodipodi:nodetypes="sssccssssscccccccccccccccccccccsccccssss"
         style="font-style:normal;font-variant:normal;font-weight:bold;font-stretch:normal;font-size:87.81528473px;line-height:100%;font-family:'Trebuchet MS';-inkscape-font-specification:'Trebuchet MS Bold';text-align:start;letter-spacing:0px;word-spacing:0px;writing-mode:lr-tb;text-anchor:start;fill:#fcaf3e;fill-opacity:1;stroke:none;stroke-width:1.06666672" />
      <rect
         y="312.23807"
         x="-280.90945"
         height="10.025537"
         width="10.123343"
         id="rect3851"
         style="fill:#fcaf3e;fill-opacity:1;fill-rule:nonzero;stroke:none;stroke-width:1.06666672" />
      <path
         sodipodi:nodetypes="ccsc"
         inkscape:connector-curvature="0"
         id="path3853"
         d="m -269.93024,311.30886 h -11.83503 c 0,-3.26815 2.64938,-5.9175 5.91752,-5.9175 3.26816,0 5.91751,2.64935 5.91751,5.9175 z"
         style="fill:#fcaf3e;fill-opacity:1;fill-rule:nonzero;stroke:none;stroke-width:1.06666672" />
      <path
         sodipodi:nodetypes="cccc"
         inkscape:connector-curvature="0"
         id="path3856"
         d="m -276.99702,304.8045 h 2.29853 l -1.14926,-13.39999 z"
         style="fill:#fcaf3e;stroke:none;stroke-width:1.06666672" />
      <text
         id="text41475"
         y="501.24713"
         x="-365.32449"
         style="font-style:normal;font-variant:normal;font-weight:normal;font-stretch:normal;font-size:24.07085609px;line-height:100%;font-family:Impact;-inkscape-font-specification:Sans;text-align:center;letter-spacing:0px;word-spacing:0px;writing-mode:lr-tb;text-anchor:middle;fill:#134458;fill-opacity:1;stroke:none;stroke-width:1.06666672"
         xml:space="preserve"><tspan
           style="font-style:normal;font-variant:normal;font-weight:bold;font-stretch:normal;font-family:Arial;-inkscape-font-specification:'Arial Bold';fill:#134458;fill-opacity:1;stroke-width:1.06666672"
           y="501.24713"
           x="-365.32449"
           id="tspan41477"
           sodipodi:role="line">información | fotos | diseño</tspan></text>
    </g>
  </g>
</svg>
